<svg id="svg" version="1.1"
    xmlns="http://www.w3.org/2000/svg"
    xmlns:xlink="http://www.w3.org/1999/xlink" width="400" height="400" viewBox="0, 0, 400,400">
    <g id="svgg">
        <path id="path0" d="M1.200 126.800 L 1.200 132.000 39.600 132.000 L 78.000 132.000 78.000 126.800 L 78.000 121.600 39.600 121.600 L 1.200 121.600 1.200 126.800 M89.447 122.221 C 89.087 123.161,89.156 130.912,89.531 131.501 C 89.784 131.900,100.988 131.982,144.224 131.901 L 198.600 131.800 196.207 129.906 C 193.286 127.595,186.067 123.942,182.000 122.718 L 179.000 121.815 134.347 121.696 C 93.592 121.587,89.673 121.633,89.447 122.221 M221.200 126.800 L 221.200 132.000 254.200 132.000 C 272.350 132.000,287.200 131.918,287.200 131.819 C 287.200 131.719,287.030 131.224,286.823 130.719 C 286.615 130.213,285.785 127.955,284.978 125.700 L 283.511 121.600 252.356 121.600 L 221.200 121.600 221.200 126.800 M335.154 122.700 C 333.941 125.835,332.000 131.340,332.000 131.648 C 332.000 131.848,346.077 132.000,364.600 132.000 L 397.200 132.000 397.200 126.800 L 397.200 121.600 366.390 121.600 L 335.580 121.600 335.154 122.700 M1.288 147.900 L 1.400 153.000 39.600 153.000 L 77.800 153.000 77.912 147.900 L 78.024 142.800 39.600 142.800 L 1.176 142.800 1.288 147.900 M89.374 143.324 C 89.263 143.613,89.224 145.908,89.286 148.424 L 89.400 153.000 150.500 153.101 L 211.600 153.203 211.600 152.243 C 211.600 150.999,210.125 146.223,209.147 144.300 L 208.384 142.800 148.979 142.800 C 100.347 142.800,89.538 142.895,89.374 143.324 M221.200 148.000 L 221.200 153.200 257.800 153.200 C 277.930 153.200,294.400 153.065,294.400 152.901 C 294.400 152.736,293.665 150.396,292.767 147.701 L 291.134 142.800 256.167 142.800 L 221.200 142.800 221.200 148.000 M327.600 142.963 C 327.600 143.052,326.880 145.161,326.000 147.649 C 325.120 150.137,324.400 152.404,324.400 152.687 C 324.400 153.101,331.438 153.200,360.800 153.200 L 397.200 153.200 397.200 148.000 L 397.200 142.800 362.400 142.800 C 343.260 142.800,327.600 142.873,327.600 142.963 M23.600 169.200 L 23.600 174.400 40.000 174.400 L 56.400 174.400 56.400 169.200 L 56.400 164.000 40.000 164.000 L 23.600 164.000 23.600 169.200 M111.600 169.204 L 111.600 174.409 128.100 174.304 L 144.600 174.200 144.712 169.100 L 144.824 164.000 128.212 164.000 L 111.600 164.000 111.600 169.204 M177.600 169.200 L 177.600 174.400 194.189 174.400 L 210.778 174.400 211.384 172.300 C 212.123 169.741,212.800 166.225,212.800 164.945 L 212.800 164.000 195.200 164.000 L 177.600 164.000 177.600 169.200 M243.600 169.197 L 243.600 174.400 272.940 174.400 L 302.280 174.400 300.378 169.300 L 298.476 164.200 271.038 164.097 L 243.600 163.994 243.600 169.197 M318.500 168.914 C 317.565 171.613,316.800 173.952,316.800 174.111 C 316.800 174.270,330.030 174.400,346.200 174.400 L 375.600 174.400 375.600 169.200 L 375.600 164.000 347.900 164.003 L 320.200 164.006 318.500 168.914 M23.600 190.400 L 23.600 195.600 40.000 195.600 L 56.400 195.600 56.400 190.400 L 56.400 185.200 40.000 185.200 L 23.600 185.200 23.600 190.400 M111.688 190.300 L 111.800 195.400 154.341 195.502 L 196.882 195.604 199.878 192.702 C 202.928 189.748,205.600 186.453,205.600 185.646 C 205.600 185.320,192.921 185.200,158.588 185.200 L 111.576 185.200 111.688 190.300 M243.600 190.400 L 243.600 195.600 259.982 195.600 L 276.365 195.600 276.486 192.700 L 276.607 189.800 277.526 191.800 C 278.031 192.900,278.611 194.205,278.814 194.700 L 279.183 195.600 309.556 195.600 L 339.930 195.600 341.043 192.700 C 342.271 189.499,342.677 189.735,342.760 193.700 L 342.800 195.600 359.200 195.600 L 375.600 195.600 375.600 190.398 L 375.600 185.195 344.332 185.298 L 313.064 185.400 311.565 189.389 C 310.740 191.583,309.891 193.436,309.677 193.508 C 309.354 193.615,307.728 189.671,306.624 186.100 L 306.346 185.200 274.973 185.200 L 243.600 185.200 243.600 190.400 M23.600 211.400 L 23.600 216.400 40.000 216.400 L 56.400 216.400 56.400 211.400 L 56.400 206.400 40.000 206.400 L 23.600 206.400 23.600 211.400 M111.600 211.400 L 111.600 216.400 158.600 216.400 C 184.450 216.400,205.600 216.251,205.600 216.069 C 205.600 215.249,202.985 211.927,200.262 209.287 L 197.285 206.400 154.443 206.400 L 111.600 206.400 111.600 211.400 M243.600 211.400 L 243.600 216.400 260.000 216.400 L 276.400 216.400 276.400 211.400 L 276.400 206.400 260.000 206.400 L 243.600 206.400 243.600 211.400 M283.300 206.900 C 283.402 207.175,284.259 209.425,285.204 211.900 L 286.922 216.400 309.819 216.400 L 332.717 216.400 334.358 211.774 C 335.261 209.230,336.000 206.980,336.000 206.774 C 336.000 206.546,325.699 206.400,309.557 206.400 C 288.571 206.400,283.153 206.503,283.300 206.900 M342.800 211.400 L 342.800 216.400 359.200 216.400 L 375.600 216.400 375.600 211.400 L 375.600 206.400 359.200 206.400 L 342.800 206.400 342.800 211.400 M23.600 232.396 L 23.600 237.600 40.012 237.600 L 56.424 237.600 56.312 232.500 L 56.200 227.400 39.900 227.296 L 23.600 227.191 23.600 232.396 M111.871 227.462 C 111.722 227.611,111.600 229.953,111.600 232.667 L 111.600 237.600 128.212 237.600 L 144.824 237.600 144.712 232.500 L 144.600 227.400 128.371 227.296 C 119.445 227.238,112.020 227.313,111.871 227.462 M177.600 232.400 L 177.600 237.600 195.200 237.600 L 212.800 237.600 212.800 236.655 C 212.800 235.375,212.123 231.859,211.384 229.300 L 210.778 227.200 194.189 227.200 L 177.600 227.200 177.600 232.400 M243.600 232.400 L 243.600 237.600 260.000 237.600 L 276.400 237.600 276.400 232.400 L 276.400 227.200 260.000 227.200 L 243.600 227.200 243.600 232.400 M290.807 227.496 C 290.810 227.663,291.595 229.960,292.551 232.600 L 294.289 237.400 309.660 237.505 L 325.030 237.609 326.732 232.905 C 327.668 230.317,328.471 228.020,328.517 227.800 C 328.571 227.539,322.034 227.364,309.700 227.296 C 299.305 227.239,290.803 227.329,290.807 227.496 M342.800 232.400 L 342.800 237.600 359.200 237.600 L 375.600 237.600 375.600 232.400 L 375.600 227.200 359.200 227.200 L 342.800 227.200 342.800 232.400 M2.000 253.600 L 2.000 258.800 40.200 258.800 L 78.400 258.800 78.400 253.600 L 78.400 248.400 40.200 248.400 L 2.000 248.400 2.000 253.600 M89.374 248.924 C 89.263 249.213,89.224 251.508,89.286 254.024 L 89.400 258.600 148.891 258.701 L 208.382 258.803 209.146 257.301 C 210.124 255.378,211.600 250.602,211.600 249.358 L 211.600 248.400 150.587 248.400 C 100.629 248.400,89.538 248.495,89.374 248.924 M222.000 253.600 L 222.000 258.800 249.200 258.800 L 276.400 258.800 276.400 253.600 L 276.400 248.400 249.200 248.400 L 222.000 248.400 222.000 253.600 M298.400 248.603 C 298.400 248.715,299.228 251.055,300.240 253.803 L 302.080 258.800 309.775 258.800 L 317.470 258.800 319.135 254.384 C 321.647 247.722,322.727 248.400,309.600 248.400 C 303.440 248.400,298.400 248.491,298.400 248.603 M342.800 253.597 L 342.800 258.800 370.412 258.800 L 398.024 258.800 397.912 253.700 L 397.800 248.600 370.300 248.497 L 342.800 248.394 342.800 253.597 M2.000 274.800 L 2.000 280.000 40.200 280.000 L 78.400 280.000 78.400 274.800 L 78.400 269.600 40.200 269.600 L 2.000 269.600 2.000 274.800 M89.391 270.500 C 89.268 270.995,89.219 273.290,89.283 275.600 L 89.400 279.800 132.800 279.924 C 164.740 280.015,176.928 279.923,178.959 279.577 C 184.582 278.618,194.900 273.605,197.764 270.440 L 198.524 269.600 144.070 269.600 L 89.615 269.600 89.391 270.500 M222.000 274.800 L 222.000 280.000 249.200 280.000 L 276.400 280.000 276.400 274.800 L 276.400 269.600 249.200 269.600 L 222.000 269.600 222.000 274.800 M306.000 269.850 C 306.000 270.212,309.211 278.888,309.609 279.600 C 309.872 280.071,310.045 279.943,310.416 279.000 C 310.935 277.681,313.600 269.916,313.600 269.721 C 313.600 269.655,311.890 269.600,309.800 269.600 C 307.710 269.600,306.000 269.712,306.000 269.850 M342.800 274.797 L 342.800 280.000 370.412 280.000 L 398.024 280.000 397.912 274.900 L 397.800 269.800 370.300 269.697 L 342.800 269.594 342.800 274.797 " stroke="none" fill="#206ec4" fill-rule="evenodd"></path>
        <path id="path1" d="M0.000 200.000 L 0.000 400.000 200.000 400.000 L 400.000 400.000 400.000 200.000 L 400.000 0.000 200.000 0.000 L 0.000 0.000 0.000 200.000 M78.400 126.800 L 78.400 132.400 39.600 132.400 L 0.800 132.400 0.800 126.800 L 0.800 121.200 39.600 121.200 L 78.400 121.200 78.400 126.800 M182.600 122.337 C 188.691 124.376,198.517 130.069,199.106 131.901 C 199.235 132.302,188.179 132.382,144.134 132.301 L 89.000 132.200 88.887 127.222 C 88.825 124.484,88.866 122.006,88.978 121.714 C 89.145 121.277,97.148 121.202,134.491 121.292 L 179.800 121.400 182.600 122.337 M285.757 126.232 C 286.771 129.000,287.600 131.520,287.600 131.832 C 287.600 132.318,282.774 132.400,254.200 132.400 L 220.800 132.400 220.800 126.800 L 220.800 121.200 252.357 121.200 L 283.914 121.200 285.757 126.232 M397.600 126.800 L 397.600 132.400 364.400 132.400 C 346.140 132.400,331.200 132.324,331.200 132.231 C 331.200 132.093,333.466 125.793,334.844 122.100 L 335.180 121.200 366.390 121.200 L 397.600 121.200 397.600 126.800 M78.400 148.000 L 78.400 153.600 39.600 153.600 L 0.800 153.600 0.800 148.000 L 0.800 142.400 39.600 142.400 L 78.400 142.400 78.400 148.000 M209.170 143.453 C 209.999 144.507,211.683 149.303,212.210 152.111 L 212.490 153.603 150.745 153.501 L 89.000 153.400 88.889 147.900 L 88.777 142.400 148.560 142.400 L 208.342 142.400 209.170 143.453 M293.315 147.700 C 294.309 150.615,295.039 153.135,294.938 153.300 C 294.836 153.465,278.113 153.600,257.776 153.600 L 220.800 153.600 220.800 148.000 L 220.800 142.400 256.154 142.400 L 291.508 142.400 293.315 147.700 M397.600 148.000 L 397.600 153.600 360.824 153.600 C 340.597 153.600,323.960 153.459,323.853 153.286 C 323.695 153.030,324.585 150.099,327.007 142.900 C 327.140 142.505,334.574 142.400,362.387 142.400 L 397.600 142.400 397.600 148.000 M56.800 169.204 L 56.800 174.809 39.900 174.704 L 23.000 174.600 22.889 169.100 L 22.777 163.600 39.789 163.600 L 56.800 163.600 56.800 169.204 M145.111 169.100 L 145.000 174.600 128.200 174.600 L 111.400 174.600 111.289 169.100 L 111.177 163.600 128.200 163.600 L 145.223 163.600 145.111 169.100 M213.075 166.175 C 212.800 169.120,211.728 173.558,211.112 174.304 C 210.786 174.698,207.058 174.786,194.047 174.704 L 177.400 174.600 177.289 169.100 L 177.177 163.600 195.247 163.600 L 213.316 163.600 213.075 166.175 M300.856 169.000 C 301.882 171.860,302.594 174.336,302.438 174.503 C 302.282 174.669,288.845 174.759,272.577 174.703 L 243.000 174.600 242.887 169.622 C 242.825 166.884,242.865 164.408,242.976 164.119 C 243.140 163.692,248.348 163.614,271.084 163.697 L 298.991 163.800 300.856 169.000 M376.200 169.200 L 376.200 174.600 346.423 174.703 C 330.045 174.759,316.506 174.666,316.335 174.495 C 316.077 174.237,318.177 167.804,319.598 164.497 L 319.985 163.595 348.093 163.697 L 376.200 163.800 376.200 169.200 M56.711 190.304 L 56.822 196.009 39.911 195.904 L 23.000 195.800 22.887 190.621 C 22.826 187.773,22.866 185.206,22.977 184.917 C 23.140 184.492,26.382 184.411,39.889 184.496 L 56.600 184.600 56.711 190.304 M206.400 185.049 C 206.400 186.149,202.987 190.552,199.969 193.347 L 197.099 196.004 154.249 195.902 L 111.400 195.800 111.287 190.621 C 111.226 187.773,111.265 185.208,111.375 184.921 C 111.715 184.036,206.400 184.163,206.400 185.049 M307.963 188.473 C 308.753 190.603,309.500 192.442,309.621 192.561 C 309.743 192.679,310.451 191.116,311.194 189.088 C 311.937 187.060,312.714 185.175,312.922 184.900 C 313.459 184.187,375.207 184.167,375.920 184.880 C 376.469 185.429,376.597 194.670,376.068 195.504 C 375.816 195.900,372.127 195.986,358.974 195.904 L 342.200 195.800 342.000 193.828 L 341.800 191.856 341.249 193.428 C 340.946 194.293,340.519 195.225,340.300 195.500 C 339.988 195.892,333.308 196.000,309.329 196.000 L 278.756 196.000 277.878 193.900 L 277.000 191.800 276.800 193.800 L 276.600 195.800 259.800 195.800 L 243.000 195.800 242.884 191.000 C 242.820 188.360,242.869 185.794,242.992 185.298 L 243.216 184.395 274.871 184.498 L 306.525 184.600 307.963 188.473 M56.800 211.404 L 56.800 217.209 39.900 217.104 L 23.000 217.000 22.887 211.821 C 22.826 208.973,22.865 206.408,22.975 206.121 C 23.135 205.704,26.542 205.600,39.987 205.600 L 56.800 205.600 56.800 211.404 M200.512 208.900 C 203.763 212.112,206.400 215.592,206.400 216.670 C 206.400 217.112,198.255 217.186,158.900 217.102 L 111.400 217.000 111.287 211.821 C 111.226 208.973,111.265 206.408,111.375 206.121 C 111.538 205.697,119.577 205.600,154.374 205.600 L 197.173 205.600 200.512 208.900 M276.711 211.300 L 276.600 217.000 259.800 217.000 L 243.000 217.000 242.887 211.821 C 242.826 208.973,242.865 206.408,242.975 206.121 C 243.135 205.704,246.544 205.600,259.998 205.600 L 276.822 205.600 276.711 211.300 M336.582 205.971 C 336.708 206.175,335.954 208.740,334.906 211.671 L 333.000 217.000 309.808 217.000 L 286.615 217.000 284.708 212.006 C 283.658 209.260,282.800 206.695,282.800 206.306 C 282.800 205.507,336.090 205.175,336.582 205.971 M376.157 206.233 C 376.517 207.169,376.440 216.118,376.068 216.704 C 375.816 217.100,372.127 217.186,358.974 217.104 L 342.200 217.000 342.087 211.821 C 342.026 208.973,342.065 206.408,342.175 206.121 C 342.507 205.257,375.825 205.366,376.157 206.233 M56.711 232.500 L 56.600 238.200 40.600 238.311 C 20.530 238.451,22.800 239.172,22.800 232.659 C 22.800 229.730,22.920 227.213,23.067 227.067 C 23.213 226.920,30.868 226.800,40.078 226.800 L 56.822 226.800 56.711 232.500 M145.000 232.600 L 145.000 238.200 128.200 238.200 L 111.400 238.200 111.287 233.021 C 111.226 230.173,111.266 227.606,111.377 227.317 C 111.540 226.892,114.782 226.811,128.289 226.896 L 145.000 227.000 145.000 232.600 M211.115 227.300 C 211.839 228.175,212.880 232.908,212.941 235.600 L 213.000 238.200 195.200 238.200 L 177.400 238.200 177.287 233.021 C 177.226 230.173,177.265 227.608,177.375 227.321 C 177.662 226.574,210.498 226.553,211.115 227.300 M276.600 232.600 L 276.600 238.200 260.246 238.305 C 248.507 238.380,243.739 238.281,243.346 237.956 C 242.767 237.474,242.518 227.616,243.071 227.062 C 243.220 226.913,250.825 226.838,259.971 226.896 L 276.600 227.000 276.600 232.600 M329.200 227.181 C 329.200 227.391,329.035 227.976,328.833 228.481 C 328.631 228.987,327.796 231.290,326.977 233.600 C 326.158 235.910,325.288 237.932,325.044 238.094 C 324.216 238.642,294.485 238.459,294.124 237.903 C 293.499 236.945,290.093 227.397,290.269 227.100 C 290.539 226.646,329.200 226.726,329.200 227.181 M376.157 227.433 C 376.623 228.646,376.424 237.416,375.920 237.920 C 375.412 238.428,343.924 238.653,342.633 238.157 C 341.975 237.905,341.638 227.695,342.267 227.067 C 342.917 226.417,375.904 226.773,376.157 227.433 M79.000 253.800 L 79.000 259.400 40.200 259.400 L 1.400 259.400 1.287 254.221 C 1.226 251.373,1.265 248.807,1.376 248.519 C 1.539 248.092,8.702 248.015,40.288 248.098 L 79.000 248.200 79.000 253.800 M212.224 248.517 C 212.524 249.299,210.488 255.967,209.358 257.901 L 208.365 259.603 148.682 259.501 L 89.000 259.400 88.887 254.221 C 88.826 251.373,88.865 248.808,88.975 248.521 C 89.270 247.752,211.928 247.748,212.224 248.517 M276.600 253.800 L 276.600 259.400 249.000 259.400 L 221.400 259.400 221.287 254.221 C 221.226 251.373,221.265 248.807,221.376 248.518 C 221.540 248.092,226.706 248.014,249.089 248.097 L 276.600 248.200 276.600 253.800 M321.331 249.000 C 321.249 249.936,318.653 257.581,318.005 258.790 C 317.578 259.589,317.294 259.613,309.691 259.508 L 301.820 259.400 299.922 254.400 C 298.879 251.650,298.020 249.082,298.013 248.694 C 298.001 248.033,298.742 247.995,309.700 248.094 C 321.124 248.198,321.398 248.219,321.331 249.000 M398.200 253.800 L 398.200 259.400 370.200 259.400 L 342.200 259.400 342.087 254.221 C 342.026 251.373,342.065 248.807,342.176 248.518 C 342.340 248.092,347.577 248.014,370.288 248.097 L 398.200 248.200 398.200 253.800 M79.111 274.890 C 79.221 280.313,79.211 280.382,78.311 280.599 C 77.810 280.721,60.300 280.770,39.400 280.710 L 1.400 280.600 1.287 275.421 C 1.226 272.573,1.265 270.007,1.376 269.719 C 1.539 269.292,8.702 269.215,40.288 269.298 L 79.000 269.400 79.111 274.890 M199.200 269.525 C 199.200 271.494,188.288 277.603,181.397 279.493 L 177.400 280.588 133.200 280.594 L 89.000 280.600 88.887 275.421 C 88.826 272.573,88.865 270.008,88.975 269.721 C 89.205 269.122,199.200 268.927,199.200 269.525 M276.711 274.900 L 276.600 280.600 249.000 280.600 L 221.400 280.600 221.287 275.421 C 221.226 272.573,221.265 270.008,221.375 269.721 C 221.537 269.300,226.871 269.200,249.198 269.200 L 276.822 269.200 276.711 274.900 M314.000 269.973 C 314.000 271.394,310.487 280.195,309.869 280.322 C 309.259 280.448,308.826 279.481,306.651 273.133 C 305.213 268.935,305.000 269.200,309.800 269.200 C 313.685 269.200,314.000 269.258,314.000 269.973 M398.311 274.900 L 398.200 280.600 370.200 280.600 L 342.200 280.600 342.087 275.421 C 342.026 272.573,342.065 270.008,342.175 269.721 C 342.337 269.300,347.742 269.200,370.398 269.200 L 398.422 269.200 398.311 274.900 " stroke="none" fill="#ffffff" fill-rule="evenodd"></path>
        <path id="path2" d="M88.957 126.800 C 88.957 129.770,89.020 130.985,89.097 129.500 C 89.174 128.015,89.174 125.585,89.097 124.100 C 89.020 122.615,88.957 123.830,88.957 126.800 M190.400 125.779 C 190.400 125.889,190.940 126.259,191.600 126.600 C 192.260 126.941,192.800 127.131,192.800 127.021 C 192.800 126.911,192.260 126.541,191.600 126.200 C 190.940 125.859,190.400 125.669,190.400 125.779 M198.034 131.047 C 198.565 131.733,199.080 132.223,199.179 132.135 C 199.277 132.047,198.843 131.486,198.213 130.888 L 197.069 129.800 198.034 131.047 M88.981 147.767 C 88.997 152.366,89.104 153.363,89.600 153.498 C 90.031 153.615,90.063 153.564,89.712 153.314 C 89.382 153.080,89.182 151.231,89.094 147.584 L 88.963 142.200 88.981 147.767 M22.982 169.099 L 23.000 174.600 39.800 174.607 L 56.600 174.613 39.911 174.502 L 23.223 174.391 23.094 168.995 L 22.965 163.599 22.982 169.099 M144.887 168.909 L 144.800 174.417 128.038 174.309 C 118.819 174.249,111.360 174.335,111.462 174.500 C 111.819 175.077,144.802 174.860,145.025 174.279 C 145.135 173.992,145.169 171.427,145.099 168.579 L 144.974 163.400 144.887 168.909 M177.382 169.099 L 177.400 174.600 194.000 174.607 L 210.600 174.613 194.111 174.502 L 177.623 174.391 177.494 168.995 L 177.365 163.599 177.382 169.099 M375.922 169.019 L 376.043 174.400 346.255 174.400 C 326.311 174.400,316.399 174.265,316.263 173.990 C 316.151 173.764,316.107 173.810,316.163 174.090 C 316.246 174.498,322.267 174.600,346.233 174.600 L 376.200 174.600 376.312 169.432 C 376.374 166.590,376.284 164.124,376.112 163.951 C 375.941 163.779,375.855 166.059,375.922 169.019 M242.982 169.299 L 243.000 174.600 272.577 174.703 C 288.845 174.759,302.291 174.669,302.457 174.503 C 302.624 174.336,289.364 174.247,272.992 174.305 L 243.223 174.410 243.094 169.204 L 242.964 163.999 242.982 169.299 M22.975 184.921 C 22.865 185.208,22.826 187.773,22.887 190.621 L 23.000 195.800 40.000 195.807 L 57.000 195.813 40.100 195.702 L 23.200 195.591 23.200 190.187 L 23.200 184.783 39.962 184.891 C 49.181 184.951,56.640 184.865,56.538 184.700 C 56.181 184.123,23.198 184.340,22.975 184.921 M111.384 184.827 C 111.239 185.061,111.228 185.361,111.360 185.493 C 111.492 185.625,111.600 185.523,111.600 185.267 C 111.600 184.914,123.116 184.800,158.847 184.800 C 205.907 184.800,206.092 184.803,205.884 185.601 C 205.769 186.041,205.838 186.300,206.037 186.177 C 206.237 186.054,206.400 185.603,206.400 185.176 C 206.400 184.263,111.947 183.916,111.384 184.827 M254.400 184.693 C 284.149 184.969,306.706 184.972,306.538 184.700 C 306.436 184.535,292.098 184.442,274.676 184.494 C 257.254 184.545,248.130 184.635,254.400 184.693 M312.749 185.100 C 312.262 185.721,312.273 185.743,312.844 185.298 C 313.351 184.902,320.120 184.817,344.644 184.898 L 375.800 185.000 376.018 190.200 L 376.237 195.400 376.318 190.380 C 376.375 186.911,376.252 185.212,375.920 184.880 C 375.033 183.993,313.449 184.208,312.749 185.100 M242.982 190.499 L 243.000 195.800 259.800 195.807 L 276.600 195.813 259.912 195.702 L 243.223 195.591 243.093 190.395 L 242.964 185.199 242.982 190.499 M200.788 192.300 L 198.200 195.000 200.900 192.412 C 202.385 190.988,203.600 189.773,203.600 189.712 C 203.600 189.417,203.193 189.792,200.788 192.300 M276.828 191.400 C 276.828 191.620,277.086 192.250,277.400 192.800 C 277.714 193.350,277.972 193.620,277.972 193.400 C 277.972 193.180,277.714 192.550,277.400 192.000 C 277.086 191.450,276.828 191.180,276.828 191.400 M341.987 191.343 C 341.870 191.462,341.870 192.514,341.987 193.680 L 342.200 195.800 359.000 195.807 L 375.800 195.813 359.120 195.702 L 342.440 195.591 342.320 193.359 C 342.254 192.131,342.104 191.224,341.987 191.343 M111.303 195.200 C 111.482 195.855,196.608 196.352,197.258 195.702 C 197.424 195.536,178.276 195.447,154.706 195.504 C 120.620 195.586,111.779 195.504,111.495 195.104 C 111.229 194.728,111.181 194.752,111.303 195.200 M278.742 195.703 C 278.909 195.869,292.805 195.959,309.623 195.902 L 340.200 195.800 309.320 195.600 C 292.336 195.490,278.576 195.536,278.742 195.703 M22.975 206.121 C 22.865 206.408,22.826 208.973,22.887 211.821 L 23.000 217.000 40.000 217.007 L 57.000 217.013 40.100 216.902 L 23.200 216.791 23.200 211.400 L 23.200 206.009 40.100 205.900 L 57.000 205.791 40.087 205.696 C 26.492 205.619,23.136 205.702,22.975 206.121 M111.467 205.867 C 111.320 206.013,111.203 206.328,111.206 206.567 C 111.210 206.821,111.344 206.792,111.532 206.496 C 111.786 206.096,120.601 206.014,154.688 206.096 C 178.247 206.153,197.440 206.065,197.338 205.900 C 197.109 205.529,111.837 205.496,111.467 205.867 M242.975 206.121 C 242.865 206.408,242.826 208.973,242.887 211.821 L 243.000 217.000 259.576 217.104 C 268.692 217.162,276.288 217.072,276.456 216.904 C 276.623 216.737,269.209 216.649,259.980 216.709 L 243.200 216.817 243.200 211.400 L 243.200 205.983 260.000 206.091 C 269.240 206.151,276.800 206.065,276.800 205.900 C 276.800 205.321,243.198 205.541,242.975 206.121 M309.378 205.899 C 330.163 205.982,336.235 206.117,336.509 206.503 C 336.768 206.868,336.818 206.841,336.697 206.400 C 336.554 205.874,333.195 205.799,309.567 205.796 L 282.600 205.791 309.378 205.899 M342.175 206.121 C 342.065 206.408,342.026 208.973,342.087 211.821 L 342.200 217.000 359.200 217.007 L 376.200 217.013 359.300 216.902 L 342.400 216.791 342.400 211.400 L 342.400 206.009 359.300 205.900 L 376.200 205.791 359.287 205.696 C 345.692 205.619,342.336 205.702,342.175 206.121 M376.155 211.400 C 376.156 214.260,376.220 215.378,376.297 213.883 C 376.374 212.389,376.374 210.049,376.296 208.683 C 376.218 207.318,376.155 208.540,376.155 211.400 M200.800 209.400 C 201.995 210.610,203.063 211.600,203.173 211.600 C 203.283 211.600,202.395 210.610,201.200 209.400 C 200.005 208.190,198.937 207.200,198.827 207.200 C 198.717 207.200,199.605 208.190,200.800 209.400 M111.363 216.490 C 111.550 217.412,206.410 217.424,206.368 216.502 C 206.350 216.083,206.255 216.002,206.135 216.300 C 205.872 216.953,111.787 217.042,111.463 216.390 C 111.351 216.165,111.306 216.210,111.363 216.490 M286.662 216.900 C 286.764 217.065,297.176 217.200,309.800 217.200 C 322.424 217.200,332.836 217.065,332.938 216.900 C 333.040 216.735,322.628 216.600,309.800 216.600 C 296.972 216.600,286.560 216.735,286.662 216.900 M22.975 227.321 C 22.865 227.608,22.831 230.173,22.901 233.021 L 23.026 238.200 23.113 232.704 L 23.200 227.209 40.100 227.100 L 57.000 226.991 40.087 226.896 C 26.492 226.819,23.136 226.902,22.975 227.321 M111.464 227.096 C 111.361 227.263,118.819 227.351,128.038 227.291 L 144.800 227.183 144.800 232.600 L 144.800 238.017 128.020 237.909 C 118.791 237.849,111.377 237.937,111.544 238.104 C 111.712 238.272,119.308 238.362,128.424 238.304 L 145.000 238.200 145.000 232.600 L 145.000 227.000 128.326 226.896 C 119.156 226.838,111.568 226.928,111.464 227.096 M177.375 227.321 C 177.265 227.608,177.226 230.173,177.287 233.021 L 177.400 238.200 194.976 238.304 C 204.642 238.362,212.689 238.272,212.856 238.104 C 213.023 237.937,205.159 237.849,195.380 237.908 L 177.600 238.016 177.600 232.612 L 177.600 227.209 194.300 227.100 L 211.000 226.991 194.287 226.895 C 180.856 226.819,177.536 226.902,177.375 227.321 M242.975 227.322 C 242.864 227.609,242.831 230.084,242.901 232.822 L 243.027 237.800 243.114 232.504 L 243.200 227.209 259.900 227.100 L 276.600 226.991 259.887 226.895 C 246.440 226.819,243.136 226.902,242.975 227.322 M290.262 227.100 C 290.160 227.265,298.731 227.352,309.310 227.292 C 324.509 227.207,328.611 227.291,328.866 227.692 C 329.099 228.061,329.189 228.008,329.194 227.500 C 329.200 226.759,290.717 226.364,290.262 227.100 M342.175 227.321 C 342.065 227.608,342.031 230.173,342.101 233.021 L 342.226 238.200 342.313 232.704 L 342.400 227.209 359.300 227.100 L 376.200 226.991 359.287 226.896 C 345.692 226.819,342.336 226.902,342.175 227.321 M375.993 232.600 L 375.800 237.800 359.200 238.007 L 342.600 238.213 359.051 238.307 C 378.425 238.417,376.469 239.093,376.306 232.344 L 376.186 227.400 375.993 232.600 M40.000 238.000 L 23.400 238.213 39.876 238.307 C 50.531 238.367,56.440 238.259,56.600 238.000 C 56.736 237.780,56.792 237.642,56.724 237.693 C 56.656 237.745,49.130 237.883,40.000 238.000 M260.000 238.000 L 243.400 238.213 259.876 238.307 C 270.531 238.367,276.440 238.259,276.600 238.000 C 276.736 237.780,276.792 237.642,276.724 237.693 C 276.656 237.745,269.130 237.883,260.000 238.000 M301.900 238.299 C 306.135 238.364,313.065 238.364,317.300 238.299 C 321.535 238.235,318.070 238.182,309.600 238.182 C 301.130 238.182,297.665 238.235,301.900 238.299 M1.376 248.519 C 1.265 248.807,1.226 251.373,1.287 254.221 L 1.400 259.400 40.200 259.400 L 79.000 259.400 79.000 253.800 L 79.000 248.200 40.288 248.098 C 8.702 248.015,1.539 248.092,1.376 248.519 M88.975 248.520 C 88.865 248.807,88.826 251.373,88.887 254.221 L 89.000 259.400 148.579 259.501 C 181.347 259.557,208.293 259.467,208.459 259.301 C 208.624 259.136,181.859 259.046,148.980 259.103 L 89.200 259.205 89.200 253.803 L 89.200 248.400 150.571 248.400 C 199.311 248.400,211.976 248.503,212.109 248.900 C 212.206 249.187,212.258 249.145,212.233 248.800 C 212.171 247.956,89.299 247.676,88.975 248.520 M221.375 248.521 C 221.265 248.808,221.226 251.373,221.287 254.221 L 221.400 259.400 248.777 259.503 C 263.835 259.559,276.291 259.469,276.457 259.303 C 276.624 259.136,264.349 259.047,249.180 259.105 L 221.600 259.211 221.600 253.808 L 221.600 248.406 249.100 248.300 L 276.600 248.194 249.087 248.097 C 226.782 248.018,221.537 248.099,221.375 248.521 M309.542 248.300 L 321.284 248.412 321.036 249.506 C 320.830 250.421,320.861 250.481,321.228 249.876 C 322.335 248.048,321.978 247.994,309.513 248.094 L 297.800 248.187 309.542 248.300 M342.176 248.518 C 342.065 248.807,342.026 251.373,342.087 254.221 L 342.200 259.400 370.200 259.400 L 398.200 259.400 398.200 253.800 L 398.200 248.200 370.288 248.097 C 347.577 248.014,342.340 248.092,342.176 248.518 M78.800 253.800 L 78.800 259.200 40.200 259.200 L 1.600 259.200 1.600 253.800 L 1.600 248.400 40.200 248.400 L 78.800 248.400 78.800 253.800 M398.000 253.800 L 398.000 259.200 370.200 259.200 L 342.400 259.200 342.400 253.800 L 342.400 248.400 370.200 248.400 L 398.000 248.400 398.000 253.800 M301.862 259.300 C 301.964 259.465,305.536 259.600,309.800 259.600 C 314.064 259.600,317.636 259.465,317.738 259.300 C 317.840 259.135,314.268 259.000,309.800 259.000 C 305.332 259.000,301.760 259.135,301.862 259.300 M1.375 269.721 C 1.265 270.008,1.226 272.573,1.287 275.421 L 1.400 280.600 39.800 280.603 L 78.200 280.606 39.900 280.501 L 1.600 280.396 1.600 275.031 C 1.600 271.114,1.735 269.612,2.100 269.465 C 2.492 269.307,2.489 269.256,2.087 269.232 C 1.806 269.214,1.485 269.435,1.375 269.721 M78.288 269.486 C 78.618 269.720,78.818 271.569,78.906 275.216 L 79.037 280.600 79.019 275.033 C 79.003 270.434,78.896 269.437,78.400 269.302 C 77.969 269.185,77.937 269.236,78.288 269.486 M88.975 269.721 C 88.865 270.008,88.826 272.573,88.887 275.421 L 89.000 280.600 131.700 280.603 L 174.400 280.605 131.800 280.501 L 89.200 280.396 89.200 275.032 C 89.200 271.114,89.335 269.612,89.700 269.465 C 90.092 269.307,90.089 269.256,89.687 269.232 C 89.406 269.214,89.085 269.435,88.975 269.721 M198.333 269.476 C 198.720 269.630,198.556 270.031,197.733 270.944 L 196.600 272.200 197.900 271.025 C 199.358 269.707,199.533 269.185,198.500 269.232 C 198.031 269.253,197.975 269.333,198.333 269.476 M221.375 269.721 C 221.265 270.008,221.226 272.573,221.287 275.421 L 221.400 280.600 248.777 280.703 C 263.835 280.759,276.291 280.669,276.457 280.503 C 276.624 280.336,264.340 280.247,249.159 280.305 L 221.558 280.411 221.679 274.805 C 221.799 269.262,221.765 268.704,221.375 269.721 M342.175 269.721 C 342.065 270.008,342.026 272.573,342.087 275.421 L 342.200 280.600 370.200 280.600 L 398.200 280.600 398.311 274.900 C 398.413 269.653,398.365 269.203,397.711 269.232 C 397.292 269.250,397.205 269.346,397.500 269.465 C 397.865 269.612,398.000 271.114,398.000 275.033 L 398.000 280.400 370.200 280.400 L 342.400 280.400 342.400 275.029 C 342.400 270.251,342.477 269.638,343.100 269.476 C 343.756 269.304,343.755 269.290,343.087 269.246 C 342.696 269.221,342.285 269.435,342.175 269.721 " stroke="none" fill="#adc9e8" fill-rule="evenodd"></path>
        <path id="path3" d="M221.142 153.302 C 221.308 153.468,237.904 153.558,258.022 153.502 L 294.600 153.400 257.720 153.200 C 237.436 153.090,220.976 153.136,221.142 153.302 M20.500 153.500 C 31.005 153.559,48.195 153.559,58.700 153.500 C 69.205 153.441,60.610 153.392,39.600 153.392 C 18.590 153.392,9.995 153.441,20.500 153.500 M120.300 153.500 C 137.075 153.558,164.525 153.558,181.300 153.500 C 198.075 153.442,184.350 153.395,150.800 153.395 C 117.250 153.395,103.525 153.442,120.300 153.500 M342.270 153.500 C 352.208 153.559,368.588 153.559,378.670 153.500 C 388.751 153.440,380.620 153.392,360.600 153.392 C 340.580 153.392,332.331 153.440,342.270 153.500 M111.355 169.000 C 111.356 171.860,111.420 172.978,111.497 171.483 C 111.574 169.989,111.574 167.649,111.496 166.283 C 111.418 164.918,111.355 166.140,111.355 169.000 M111.353 190.200 C 111.353 192.840,111.418 193.868,111.497 192.484 C 111.575 191.101,111.574 188.941,111.495 187.684 C 111.416 186.428,111.352 187.560,111.353 190.200 M276.564 191.351 C 276.447 191.654,276.411 192.779,276.484 193.851 L 276.615 195.800 276.808 193.299 C 277.002 190.773,276.949 190.347,276.564 191.351 M276.555 211.400 C 276.556 214.260,276.620 215.378,276.697 213.883 C 276.774 212.389,276.774 210.049,276.696 208.683 C 276.618 207.318,276.555 208.540,276.555 211.400 M111.353 211.400 C 111.353 214.040,111.418 215.068,111.497 213.684 C 111.575 212.301,111.574 210.141,111.495 208.884 C 111.416 207.628,111.352 208.760,111.353 211.400 M276.557 232.400 C 276.557 235.370,276.620 236.585,276.697 235.100 C 276.774 233.615,276.774 231.185,276.697 229.700 C 276.620 228.215,276.557 229.430,276.557 232.400 M111.355 232.600 C 111.356 235.460,111.420 236.578,111.497 235.083 C 111.574 233.589,111.574 231.249,111.496 229.883 C 111.418 228.518,111.355 229.740,111.355 232.600 M276.557 253.600 C 276.557 256.570,276.620 257.785,276.697 256.300 C 276.774 254.815,276.774 252.385,276.697 250.900 C 276.620 249.415,276.557 250.630,276.557 253.600 M21.330 269.500 C 31.852 269.559,48.952 269.559,59.330 269.500 C 69.709 269.441,61.100 269.392,40.200 269.392 C 19.300 269.392,10.809 269.441,21.330 269.500 M116.900 269.500 C 131.805 269.558,156.195 269.558,171.100 269.500 C 186.005 269.442,173.810 269.394,144.000 269.394 C 114.190 269.394,101.995 269.442,116.900 269.500 M235.529 269.500 C 243.080 269.561,255.320 269.561,262.729 269.500 C 270.138 269.439,263.960 269.389,249.000 269.389 C 234.040 269.389,227.978 269.439,235.529 269.500 M308.112 269.495 C 309.164 269.577,310.784 269.576,311.712 269.492 C 312.640 269.408,311.780 269.341,309.800 269.342 C 307.820 269.343,307.060 269.412,308.112 269.495 M356.900 269.500 C 364.325 269.561,376.475 269.561,383.900 269.500 C 391.325 269.439,385.250 269.389,370.400 269.389 C 355.550 269.389,349.475 269.439,356.900 269.500 M276.555 275.000 C 276.556 277.860,276.620 278.978,276.697 277.483 C 276.774 275.989,276.774 273.649,276.696 272.283 C 276.618 270.918,276.555 272.140,276.555 275.000 " stroke="none" fill="#8cb4dc" fill-rule="evenodd"></path>
        <path id="path4" d="M0.975 121.722 C 0.864 122.009,0.831 124.484,0.901 127.222 L 1.027 132.200 1.114 126.902 L 1.200 121.604 39.700 121.500 L 78.200 121.396 39.687 121.298 C 8.304 121.218,1.138 121.297,0.975 121.722 M89.467 121.467 C 89.320 121.613,89.203 121.928,89.206 122.167 C 89.210 122.425,89.340 122.399,89.529 122.102 C 89.777 121.710,99.011 121.581,132.622 121.500 L 175.400 121.396 132.567 121.298 C 109.008 121.244,89.613 121.320,89.467 121.467 M236.730 121.500 C 245.381 121.560,259.421 121.560,267.930 121.500 C 276.438 121.440,269.360 121.390,252.200 121.390 C 235.040 121.390,228.078 121.440,236.730 121.500 M335.462 121.500 C 335.294 121.772,357.758 121.769,386.400 121.493 C 392.450 121.435,383.506 121.345,366.524 121.293 C 349.542 121.242,335.564 121.335,335.462 121.500 M78.154 126.800 C 78.154 129.550,78.218 130.675,78.296 129.300 C 78.374 127.925,78.374 125.675,78.296 124.300 C 78.218 122.925,78.154 124.050,78.154 126.800 M220.954 126.800 C 220.954 129.550,221.018 130.675,221.096 129.300 C 221.174 127.925,221.174 125.675,221.096 124.300 C 221.018 122.925,220.954 124.050,220.954 126.800 M397.351 126.800 C 397.351 129.330,397.416 130.365,397.496 129.100 C 397.575 127.835,397.575 125.765,397.496 124.500 C 397.416 123.235,397.351 124.270,397.351 126.800 M197.762 131.100 L 198.524 132.000 144.162 132.099 L 89.800 132.197 143.979 132.300 C 173.777 132.357,198.306 132.254,198.488 132.072 C 198.670 131.890,198.410 131.394,197.909 130.971 L 197.000 130.200 197.762 131.100 M331.703 131.600 C 331.847 132.127,335.827 132.200,364.433 132.204 L 397.000 132.207 364.622 132.101 C 339.356 132.019,332.167 131.886,331.892 131.498 C 331.632 131.131,331.582 131.158,331.703 131.600 M20.500 132.300 C 31.005 132.359,48.195 132.359,58.700 132.300 C 69.205 132.241,60.610 132.192,39.600 132.192 C 18.590 132.192,9.995 132.241,20.500 132.300 M237.500 132.300 C 246.575 132.360,261.425 132.360,270.500 132.300 C 279.575 132.240,272.150 132.191,254.000 132.191 C 235.850 132.191,228.425 132.240,237.500 132.300 M1.069 142.665 C 0.698 143.036,0.728 153.200,1.100 153.201 C 1.265 153.201,1.345 150.861,1.278 148.001 L 1.156 142.800 39.600 142.800 L 78.044 142.800 77.922 147.981 C 77.855 150.831,77.941 153.021,78.113 152.849 C 78.285 152.676,78.375 150.299,78.313 147.567 L 78.200 142.600 39.769 142.498 C 18.631 142.442,1.216 142.517,1.069 142.665 M89.200 142.700 C 89.200 142.865,116.093 143.000,148.962 143.000 C 181.831 143.000,208.640 142.865,208.538 142.700 C 208.436 142.535,181.543 142.400,148.776 142.400 C 116.009 142.400,89.200 142.535,89.200 142.700 M255.978 142.699 C 283.324 142.781,291.032 142.913,291.308 143.302 C 291.568 143.669,291.618 143.642,291.497 143.200 C 291.353 142.672,287.085 142.600,256.167 142.597 L 221.000 142.593 255.978 142.699 M327.467 142.667 C 327.320 142.813,327.203 143.128,327.206 143.367 C 327.210 143.625,327.340 143.599,327.528 143.302 C 327.776 142.913,335.411 142.782,362.622 142.700 L 397.400 142.596 362.567 142.498 C 343.408 142.444,327.613 142.520,327.467 142.667 M220.954 148.000 C 220.954 150.750,221.018 151.875,221.096 150.500 C 221.174 149.125,221.174 146.875,221.096 145.500 C 221.018 144.125,220.954 145.250,220.954 148.000 M397.354 148.000 C 397.354 150.750,397.418 151.875,397.496 150.500 C 397.574 149.125,397.574 146.875,397.496 145.500 C 397.418 144.125,397.354 145.250,397.354 148.000 M23.376 164.118 C 23.265 164.407,23.231 166.884,23.301 169.622 L 23.427 174.600 23.514 169.300 L 23.600 164.000 39.988 164.000 L 56.377 164.000 56.507 169.201 L 56.636 174.401 56.618 169.101 L 56.600 163.800 40.089 163.696 C 26.730 163.611,23.540 163.692,23.376 164.118 M119.927 163.900 C 124.617 163.964,132.177 163.964,136.727 163.899 C 141.277 163.835,137.440 163.783,128.200 163.783 C 118.960 163.783,115.237 163.836,119.927 163.900 M186.300 163.900 C 191.195 163.963,199.205 163.963,204.100 163.900 C 208.995 163.836,204.990 163.784,195.200 163.784 C 185.410 163.784,181.405 163.836,186.300 163.900 M243.375 164.122 C 243.264 164.409,243.231 166.884,243.301 169.622 L 243.427 174.600 243.514 169.295 L 243.600 163.989 271.162 164.095 C 286.321 164.153,298.640 164.065,298.538 163.900 C 298.179 163.319,243.598 163.539,243.375 164.122 M348.088 163.899 L 375.577 164.005 375.707 169.203 L 375.836 174.401 375.818 169.101 L 375.800 163.800 348.200 163.796 L 320.600 163.792 348.088 163.899 M23.376 185.318 C 23.265 185.607,23.231 188.084,23.301 190.822 L 23.427 195.800 23.514 190.500 L 23.600 185.200 39.988 185.200 L 56.376 185.200 56.507 190.201 L 56.637 195.201 56.619 190.101 L 56.600 185.000 40.089 184.896 C 26.730 184.811,23.540 184.892,23.376 185.318 M158.377 185.100 C 195.349 185.181,205.422 185.309,205.671 185.702 C 205.896 186.056,205.990 185.998,205.994 185.500 C 206.000 184.837,203.520 184.805,158.700 184.898 L 111.400 184.997 158.377 185.100 M243.375 185.322 C 243.264 185.609,243.231 188.084,243.301 190.822 L 243.427 195.800 243.514 190.502 L 243.600 185.205 275.100 185.100 L 306.600 184.995 275.087 184.898 C 249.463 184.818,243.537 184.898,243.375 185.322 M313.063 185.098 C 312.960 185.264,326.984 185.353,344.226 185.295 L 375.576 185.190 375.707 190.196 L 375.837 195.201 375.819 190.101 L 375.800 185.000 344.525 184.898 C 327.324 184.841,313.166 184.931,313.063 185.098 M200.587 192.100 L 198.200 194.600 200.700 192.213 C 203.022 189.995,203.383 189.600,203.087 189.600 C 203.026 189.600,201.901 190.725,200.587 192.100 M342.520 193.600 C 342.520 194.810,342.595 195.305,342.687 194.700 C 342.778 194.095,342.778 193.105,342.687 192.500 C 342.595 191.895,342.520 192.390,342.520 193.600 M23.200 211.400 L 23.200 216.809 39.900 216.704 L 56.600 216.600 56.600 211.400 L 56.600 206.200 39.900 206.096 L 23.200 205.991 23.200 211.400 M126.800 206.295 C 167.301 206.569,197.506 206.572,197.338 206.300 C 197.236 206.135,177.858 206.043,154.276 206.095 C 130.694 206.148,118.330 206.237,126.800 206.295 M243.200 211.400 L 243.200 216.800 259.900 216.705 L 276.600 216.609 260.100 216.500 L 243.600 216.391 243.600 211.400 L 243.600 206.409 260.100 206.300 L 276.600 206.191 259.900 206.095 L 243.200 206.000 243.200 211.400 M309.378 206.300 C 329.868 206.382,335.827 206.517,336.072 206.903 C 336.296 207.255,336.390 207.196,336.394 206.700 C 336.400 206.039,334.901 206.005,309.700 206.097 L 283.000 206.194 309.378 206.300 M342.400 211.400 L 342.400 216.809 359.100 216.704 L 375.800 216.600 375.800 211.400 L 375.800 206.200 359.100 206.096 L 342.400 205.991 342.400 211.400 M56.400 211.400 L 56.400 216.400 40.000 216.400 L 23.600 216.400 23.600 211.400 L 23.600 206.400 40.000 206.400 L 56.400 206.400 56.400 211.400 M375.600 211.400 L 375.600 216.400 359.200 216.400 L 342.800 216.400 342.800 211.400 L 342.800 206.400 359.200 206.400 L 375.600 206.400 375.600 211.400 M200.600 209.600 C 201.683 210.700,202.660 211.600,202.770 211.600 C 202.880 211.600,202.083 210.700,201.000 209.600 C 199.917 208.500,198.940 207.600,198.830 207.600 C 198.720 207.600,199.517 208.500,200.600 209.600 M205.447 215.778 C 205.660 216.334,200.902 216.407,158.542 216.500 L 111.400 216.603 158.700 216.702 C 207.332 216.803,207.847 216.789,205.605 215.403 C 205.378 215.263,205.311 215.423,205.447 215.778 M286.503 216.000 C 286.646 216.524,289.583 216.601,309.833 216.605 L 333.000 216.610 310.022 216.502 C 292.277 216.418,286.963 216.280,286.691 215.897 C 286.432 215.532,286.383 215.559,286.503 216.000 M23.382 232.499 L 23.400 237.800 40.000 237.800 L 56.600 237.800 56.713 232.833 C 56.775 230.101,56.685 227.724,56.513 227.551 C 56.341 227.379,56.255 229.569,56.322 232.419 L 56.444 237.600 40.034 237.600 L 23.623 237.600 23.493 232.399 L 23.364 227.199 23.382 232.499 M243.382 232.499 L 243.400 237.800 260.000 237.807 L 276.600 237.814 260.112 237.702 L 243.623 237.591 243.493 232.395 L 243.364 227.199 243.382 232.499 M342.487 232.504 L 342.400 238.009 359.100 237.904 L 375.800 237.800 375.819 232.699 L 375.837 227.599 375.707 232.599 L 375.576 237.600 359.200 237.600 L 342.823 237.600 342.699 232.300 L 342.575 227.000 342.487 232.504 M294.345 237.705 C 294.512 237.872,301.568 237.962,310.025 237.905 L 325.400 237.800 309.720 237.600 C 301.096 237.490,294.177 237.537,294.345 237.705 M119.927 237.900 C 124.617 237.964,132.177 237.964,136.727 237.899 C 141.277 237.835,137.440 237.783,128.200 237.783 C 118.960 237.783,115.237 237.836,119.927 237.900 M186.300 237.900 C 191.195 237.963,199.205 237.963,204.100 237.900 C 208.995 237.836,204.990 237.784,195.200 237.784 C 185.410 237.784,181.405 237.836,186.300 237.900 M1.687 253.700 L 1.600 259.200 40.200 259.200 L 78.800 259.200 78.713 253.700 L 78.625 248.200 78.501 253.500 L 78.377 258.800 40.200 258.800 L 2.023 258.800 1.899 253.500 L 1.775 248.200 1.687 253.700 M221.687 253.700 L 221.600 259.200 249.100 259.103 L 276.600 259.006 249.312 258.900 L 222.023 258.794 221.899 253.497 L 221.775 248.200 221.687 253.700 M342.487 253.700 L 342.400 259.200 370.300 259.103 L 398.200 259.006 370.512 258.900 L 342.823 258.795 342.699 253.497 L 342.575 248.200 342.487 253.700 M317.600 258.333 C 317.600 258.670,315.400 258.825,309.700 258.891 L 301.800 258.982 309.571 259.100 C 316.803 259.210,318.721 258.988,317.873 258.140 C 317.723 257.990,317.600 258.077,317.600 258.333 M89.200 258.900 C 89.200 259.065,116.009 259.200,148.776 259.200 C 181.543 259.200,208.436 259.065,208.538 258.900 C 208.640 258.735,181.831 258.600,148.962 258.600 C 116.093 258.600,89.200 258.735,89.200 258.900 M1.687 274.902 L 1.600 280.404 40.100 280.302 L 78.600 280.200 78.617 275.000 L 78.635 269.800 78.506 274.900 L 78.377 280.000 40.200 280.000 L 2.023 280.000 1.899 274.700 L 1.775 269.400 1.687 274.902 M221.687 274.900 L 221.600 280.400 249.100 280.303 L 276.600 280.206 249.312 280.100 L 222.023 279.994 221.899 274.697 L 221.775 269.400 221.687 274.900 M342.487 274.900 L 342.400 280.400 370.300 280.303 L 398.200 280.206 370.512 280.100 L 342.823 279.995 342.699 274.697 L 342.575 269.400 342.487 274.900 M89.200 280.100 C 89.200 280.265,108.775 280.357,132.700 280.305 C 156.625 280.252,169.180 280.163,160.600 280.105 C 119.545 279.831,89.200 279.828,89.200 280.100 " stroke="none" fill="#7cacdc" fill-rule="evenodd"></path>
    </g>
</svg>