<svg xmlns="http://www.w3.org/2000/svg" width="65.26" height="63.622" viewBox="0 0 17.267 16.833"><path d="m1.1 11.958 1.71-7.492 6.923-3.334 6.923 3.334 1.71 7.492-4.79 6.008H5.89Z" style="fill:#326ce5;fill-opacity:1;fill-rule:evenodd;stroke:none;stroke-width:.26458332;stroke-linecap:square;stroke-miterlimit:10" transform="translate(-1.1 -1.132)"/><text xml:space="preserve" x="9.703" y="16.812" style="font-style:normal;font-weight:400;font-size:10.58333302px;line-height:6.61458349px;font-family:Sans;letter-spacing:0;word-spacing:0;fill:#eee;fill-opacity:1;stroke:none;stroke-width:.26458332px;stroke-linecap:butt;stroke-linejoin:miter;stroke-opacity:1" transform="translate(-1.1 -1.132)"><tspan x="9.703" y="16.812" style="font-style:normal;font-variant:normal;font-weight:400;font-stretch:normal;font-size:2.82222223px;font-family:Arial;-inkscape-font-specification:&quot;Arial, Normal&quot;;font-variant-ligatures:normal;font-variant-caps:normal;font-variant-numeric:normal;font-feature-settings:normal;text-align:center;writing-mode:lr-tb;text-anchor:middle;fill:#eee;fill-opacity:1;stroke-width:.26458332px">api</tspan></text><path d="M9.715 4.635c-.139-.004-3.996 1.892-4.046 1.99-.121.233-.999 4.28-.947 4.368.03.05.662.852 1.404 1.78l1.35 1.688 2.222.002h2.221l1.413-1.765 1.414-1.765-.495-2.17c-.272-1.192-.515-2.188-.54-2.212-.07-.067-3.921-1.913-3.996-1.916Zm.236 1.983c.187.008.206.292.605.321.522.04.466-.446.865-.108.399.338-.09.363.035.87.124.509.569.306.37.79-.198.484-.372.027-.817.302-.445.275-.115.635-.636.596-.522-.039-.14-.346-.54-.684-.399-.338-.64.088-.764-.42-.124-.509.286-.241.484-.725.199-.485-.281-.582.164-.857a.696.696 0 0 1 .142-.07.256.256 0 0 1 .092-.015Zm.521.572a.758.758 0 0 0-.73.976.757.757 0 1 0 .73-.976ZM7.48 8.492c.04 0 .088.009.148.027.48.147-.008.4.334.767.343.367.629-.101.741.388.113.49-.35.193-.497.673-.147.48.402.494.034.836-.367.342-.341-.206-.83-.093-.49.112-.228.594-.707.447-.48-.147.007-.4-.335-.767s-.628.1-.74-.388c-.113-.49.35-.193.496-.673.147-.48-.402-.494-.034-.836.367-.342.342.206.831.094.428-.099.28-.48.559-.475Zm3.567.524c.046 0 .1.013.17.04.553.214-.175.545.254.956.429.41.727-.333.967.21.239.543-.51.262-.497.856.013.593.75.278.534.832-.214.553-.546-.176-.956.253-.41.43.333.727-.21.967-.544.24-.262-.51-.855-.497-.594.013-.28.75-.833.534-.553-.214.176-.545-.253-.956-.43-.41-.727.333-.967-.21s.51-.262.497-.855c-.014-.593-.75-.28-.535-.833.215-.553.546.176.956-.253.41-.429-.332-.727.21-.967.544-.24.263.51.856.497.52-.012.343-.577.662-.574Zm-3.881.256a.757.757 0 1 0-.001 1.513.757.757 0 0 0 0-1.513Zm3.253.725a1.115 1.115 0 1 0 0 2.23 1.115 1.115 0 0 0 0-2.23z" style="opacity:1;fill:#eee;fill-opacity:1;stroke:#eee;stroke-width:0;stroke-miterlimit:10;stroke-dasharray:none;stroke-dashoffset:11.23642349;stroke-opacity:1"  transform="translate(-1.1 -1.132)"/></svg>