<svg xmlns="http://www.w3.org/2000/svg" width="65.26" height="63.622" viewBox="0 0 17.267 16.833"><path d="m1.288 11.769 1.71-7.492L9.922.943l6.923 3.334 1.71 7.492-4.79 6.008H6.08Z" style="fill:#326ce5;fill-opacity:1;fill-rule:evenodd;stroke:none;stroke-width:.26458332;stroke-linecap:square;stroke-miterlimit:10" transform="translate(-1.288 -.943)"/><text xml:space="preserve" x="9.892" y="16.623" style="font-style:normal;font-weight:400;font-size:10.58333302px;line-height:6.61458349px;font-family:Sans;letter-spacing:0;word-spacing:0;fill:#eee;fill-opacity:1;stroke:none;stroke-width:.26458332px;stroke-linecap:butt;stroke-linejoin:miter;stroke-opacity:1" transform="translate(-1.288 -.943)"><tspan x="9.892" y="16.623" style="font-style:normal;font-variant:normal;font-weight:400;font-stretch:normal;font-size:2.82222223px;font-family:Arial;-inkscape-font-specification:&quot;Arial, Normal&quot;;font-variant-ligatures:normal;font-variant-caps:normal;font-variant-numeric:normal;font-feature-settings:normal;text-align:center;writing-mode:lr-tb;text-anchor:middle;fill:#eee;fill-opacity:1;stroke-width:.26458332px">kubelet</tspan></text><path d="M9.904 4.446c-.139-.004-3.995 1.892-4.046 1.99-.12.233-.999 4.28-.947 4.368.03.05.662.852 1.405 1.78l1.35 1.688 2.22.001 2.222.001 1.413-1.765 1.414-1.766-.495-2.168c-.272-1.193-.515-2.189-.54-2.213-.07-.067-3.921-1.914-3.996-1.916Zm.196.948.909.263-.91.264-.908-.264zm-.909.364.851.253-.004 1.184-.847-.47Zm1.818 0v.967l-.847.47-.004-1.184zM8.81 7.373l.91.263-.91.264-.909-.264Zm2.21 0 .908.263-.909.264-.909-.264Zm-3.119.364.852.253-.004 1.183-.847-.468Zm1.818 0v.968l-.847.468L8.87 7.99zm.391 0 .851.253-.004 1.183-.847-.468zm1.818 0v.968l-.847.468-.004-1.183zm-3.45 1.515c.271.01.061.282.369.428.328.156.395-.235.601.064.206.299-.183.223-.154.585.029.361.401.225.246.552-.156.328-.286-.047-.585.159-.298.206.006.46-.355.489-.362.029-.102-.27-.43-.426-.327-.156-.395.235-.6-.064-.207-.299.183-.223.154-.585-.029-.361-.401-.225-.246-.552.156-.328.285.047.584-.159.299-.206-.006-.46.356-.489a.56.56 0 0 1 .06-.002zm2.336.363c.484.014.015.467.456.665.442.198.467-.454.8-.103.332.352-.32.341-.148.793.173.452.652.009.638.492-.014.484-.467.015-.665.456-.197.442.454.468.103.8-.351.332-.34-.32-.792-.148-.452.173-.009.652-.493.638-.483-.013-.014-.467-.456-.665-.441-.197-.467.455-.8.103-.332-.351.32-.34.148-.792-.172-.452-.652-.01-.638-.493.014-.483.467-.015.665-.456.197-.441-.454-.467-.103-.8.352-.331.34.32.793.148.451-.172.009-.651.492-.638zM8.5 9.87a.532.532 0 1 0 0 1.063.532.532 0 0 0 0-1.063zm2.265.48a1.062 1.062 0 1 0 0 2.125 1.062 1.062 0 0 0 0-2.125z" style="opacity:1;fill:#eee;fill-opacity:1;stroke:#eee;stroke-width:0;stroke-miterlimit:10;stroke-dasharray:none;stroke-dashoffset:11.23642349;stroke-opacity:1" transform="translate(-1.288 -.943)"/></svg>