<svg id="svg" version="1.1" xmlns="http://www.w3.org/2000/svg" xmlns:xlink="http://www.w3.org/1999/xlink" width="400" height="400" viewBox="0, 0, 400,400"><g id="svgg"><path id="path0" d="M190.388 8.945 C 190.274 9.059,186.601 9.441,182.225 9.793 C 177.849 10.145,174.145 10.511,173.992 10.605 C 173.840 10.699,171.215 11.227,168.158 11.780 C 159.015 13.432,156.409 13.948,155.072 14.372 C 154.372 14.594,152.180 15.247,150.200 15.823 C 143.755 17.699,140.227 18.800,138.800 19.378 C 138.030 19.691,135.870 20.506,134.000 21.189 C 132.130 21.873,130.240 22.592,129.800 22.786 C 129.360 22.980,127.110 23.968,124.800 24.982 C 112.188 30.517,95.135 40.543,87.763 46.757 C 87.083 47.331,86.116 48.070,85.614 48.400 C 85.112 48.730,84.499 49.180,84.251 49.400 C 84.003 49.620,82.630 50.783,81.200 51.984 C 64.999 65.593,49.863 83.425,39.764 100.800 C 36.336 106.698,28.407 122.504,28.396 123.461 C 28.394 123.647,27.665 125.600,26.775 127.800 C 25.010 132.167,24.158 134.620,22.814 139.200 C 22.329 140.850,21.517 143.550,21.009 145.200 C 19.616 149.718,17.014 162.382,15.995 169.600 C 13.922 184.285,13.904 206.888,15.955 220.800 C 16.562 224.915,17.582 230.854,17.983 232.600 C 18.185 233.480,18.735 236.000,19.205 238.200 C 20.028 242.049,23.134 253.103,24.206 256.000 C 25.383 259.177,27.354 264.283,27.859 265.460 C 28.157 266.154,28.400 266.925,28.400 267.175 C 28.400 267.424,28.652 268.027,28.961 268.514 C 29.269 269.001,30.469 271.560,31.627 274.200 C 32.785 276.840,34.120 279.630,34.594 280.400 C 35.068 281.170,35.878 282.700,36.394 283.800 C 36.910 284.900,37.909 286.700,38.614 287.800 C 39.319 288.900,40.411 290.700,41.041 291.800 C 42.996 295.212,49.295 304.359,51.726 307.316 C 52.592 308.370,53.684 309.756,54.151 310.397 C 54.618 311.037,55.833 312.605,56.850 313.881 C 62.354 320.780,77.694 336.299,81.212 338.526 C 82.893 339.591,84.610 338.889,90.306 334.811 C 101.901 326.508,106.310 317.883,103.982 308.055 C 103.249 304.962,102.420 303.005,99.891 298.400 C 99.042 296.854,94.216 290.376,92.738 288.798 C 89.957 285.828,86.753 281.601,82.281 275.000 C 70.252 257.245,62.641 237.448,59.598 216.000 C 57.486 201.114,57.491 190.805,59.616 174.600 C 60.773 165.776,61.262 163.634,65.008 151.000 C 66.137 147.192,71.076 134.999,72.380 132.800 C 72.576 132.470,73.314 131.030,74.019 129.600 C 75.858 125.876,79.356 119.874,80.897 117.800 C 81.061 117.580,82.106 116.050,83.220 114.400 C 92.881 100.092,105.322 87.792,121.278 76.773 C 122.531 75.908,123.629 75.200,123.719 75.200 C 123.808 75.200,125.115 74.390,126.622 73.400 C 128.129 72.410,129.537 71.600,129.750 71.600 C 129.963 71.600,130.421 71.351,130.769 71.047 C 131.928 70.033,142.680 64.836,147.200 63.104 C 153.452 60.710,156.342 59.680,158.400 59.112 C 162.384 58.013,164.172 57.545,166.400 57.021 C 167.610 56.737,169.526 56.226,170.658 55.886 C 171.790 55.546,173.770 55.148,175.058 55.002 C 176.346 54.856,178.666 54.487,180.214 54.182 C 187.694 52.710,213.383 52.734,222.400 54.222 C 230.474 55.554,233.951 56.299,237.600 57.479 C 238.590 57.799,240.120 58.200,241.000 58.370 C 243.577 58.868,246.643 59.880,252.200 62.065 C 253.300 62.498,254.920 63.089,255.800 63.379 C 257.252 63.858,260.898 65.491,262.400 66.337 C 262.730 66.522,264.890 67.613,267.200 68.761 C 278.462 74.357,287.729 80.825,297.800 90.119 C 301.913 93.914,304.228 96.293,309.360 102.000 C 310.746 103.541,316.492 110.784,317.928 112.800 C 319.685 115.267,322.000 118.780,322.000 118.979 C 322.000 119.070,322.694 120.191,323.542 121.472 C 327.002 126.694,332.833 138.366,334.797 144.000 C 335.296 145.430,336.118 147.680,336.624 149.000 C 337.630 151.624,339.884 159.658,340.946 164.400 C 347.161 192.170,344.734 221.966,334.088 248.600 C 331.597 254.831,326.374 265.109,323.415 269.601 C 322.764 270.591,321.911 272.030,321.521 272.800 C 321.131 273.570,320.404 274.650,319.906 275.200 C 319.408 275.750,318.474 277.010,317.832 278.000 C 316.730 279.699,313.364 283.994,307.801 290.800 C 293.158 308.716,294.393 322.552,311.742 334.923 C 318.399 339.670,319.417 339.916,322.464 337.520 C 325.396 335.213,338.910 321.634,341.691 318.200 C 342.938 316.660,344.994 314.140,346.262 312.600 C 352.344 305.208,360.034 294.046,364.423 286.240 C 368.532 278.931,375.600 264.122,375.600 262.821 C 375.600 262.584,375.775 262.077,375.990 261.695 C 376.204 261.313,377.040 259.020,377.848 256.600 C 378.655 254.180,379.449 252.020,379.612 251.800 C 379.774 251.580,380.024 250.770,380.167 250.000 C 380.309 249.230,380.676 247.700,380.981 246.600 C 383.371 238.002,383.721 236.527,384.780 230.600 C 386.165 222.843,386.915 216.797,388.048 204.237 C 388.816 195.722,387.737 177.690,385.807 166.765 C 385.473 164.877,385.200 162.840,385.200 162.239 C 385.200 160.985,383.946 155.193,382.723 150.800 C 382.264 149.150,381.752 147.170,381.587 146.400 C 380.916 143.287,379.596 138.814,378.400 135.600 C 377.703 133.730,377.041 131.840,376.927 131.400 C 376.650 130.327,375.244 126.490,374.581 125.000 C 374.287 124.340,373.497 122.593,372.824 121.117 C 372.151 119.641,371.600 118.178,371.600 117.866 C 371.600 117.553,371.342 117.083,371.026 116.821 C 370.710 116.559,370.336 115.819,370.195 115.177 C 370.054 114.535,369.770 113.905,369.565 113.778 C 369.359 113.651,368.647 112.344,367.983 110.874 C 367.318 109.403,366.602 107.930,366.391 107.600 C 366.181 107.270,365.279 105.740,364.387 104.200 C 359.293 95.404,348.866 80.095,346.814 78.400 C 346.681 78.290,346.162 77.660,345.661 77.000 C 340.503 70.212,330.176 59.717,320.408 51.337 C 319.422 50.492,318.432 49.666,318.208 49.503 C 317.984 49.340,316.332 48.080,314.538 46.703 C 306.670 40.666,295.884 33.968,286.028 29.001 C 282.753 27.350,279.971 26.000,279.846 26.000 C 279.720 26.000,278.219 25.360,276.509 24.578 C 274.799 23.796,273.040 22.994,272.600 22.795 C 272.160 22.596,270.270 21.874,268.400 21.192 C 266.530 20.510,264.190 19.624,263.200 19.224 C 262.210 18.823,260.050 18.105,258.400 17.626 C 256.750 17.148,254.230 16.416,252.800 16.000 C 244.667 13.631,242.870 13.225,233.400 11.620 C 230.980 11.210,228.730 10.767,228.400 10.638 C 226.061 9.716,191.171 8.162,190.388 8.945 M194.800 84.810 C 189.505 85.150,181.603 86.197,178.400 86.982 C 177.190 87.278,175.480 87.639,174.600 87.784 C 170.096 88.524,159.560 92.295,152.287 95.770 C 142.987 100.214,137.610 103.803,126.630 112.899 C 117.724 120.277,108.514 132.225,102.195 144.600 C 100.960 147.020,99.780 149.171,99.574 149.380 C 99.369 149.589,99.199 150.039,99.198 150.380 C 99.196 150.721,98.932 151.504,98.611 152.120 C 98.289 152.736,97.854 153.816,97.642 154.520 C 97.431 155.224,96.692 157.240,96.000 159.000 C 94.763 162.147,94.346 163.633,92.798 170.400 C 89.236 185.969,88.987 204.730,92.171 217.600 C 92.470 218.810,93.118 221.600,93.611 223.800 C 94.103 226.000,94.655 228.160,94.837 228.600 C 95.465 230.120,97.532 235.803,97.819 236.800 C 97.978 237.350,98.354 238.155,98.654 238.589 C 98.954 239.023,99.200 239.777,99.200 240.265 C 99.200 240.753,99.390 241.270,99.621 241.413 C 99.853 241.556,100.685 243.045,101.469 244.721 C 105.761 253.887,111.288 261.749,120.252 271.437 C 127.753 279.544,131.451 285.213,135.103 294.200 C 139.177 304.227,139.181 320.698,135.112 330.600 C 130.138 342.706,124.405 349.868,113.407 357.719 C 112.853 358.114,112.400 358.661,112.400 358.934 C 112.400 359.602,126.790 366.800,128.124 366.800 C 128.351 366.800,128.821 367.040,129.169 367.334 C 129.516 367.627,131.600 368.464,133.800 369.193 C 136.000 369.923,138.155 370.763,138.589 371.060 C 139.023 371.357,139.743 371.601,140.189 371.602 C 140.635 371.604,141.483 371.857,142.073 372.165 C 142.663 372.473,143.743 372.847,144.473 372.997 C 145.203 373.147,146.925 373.608,148.301 374.022 C 151.192 374.892,151.456 374.829,154.400 372.579 C 161.823 366.906,171.251 354.585,175.408 345.126 C 176.212 343.297,177.013 341.620,177.189 341.400 C 177.364 341.180,177.635 340.403,177.792 339.673 C 177.948 338.943,178.327 337.863,178.635 337.273 C 178.943 336.683,179.196 335.887,179.198 335.504 C 179.199 335.122,179.556 333.502,179.991 331.904 C 181.883 324.950,182.982 315.004,182.439 309.739 C 181.234 298.066,178.866 285.803,176.964 281.382 C 176.676 280.713,175.881 278.643,175.198 276.782 C 171.373 266.371,163.427 253.689,154.645 243.982 C 147.049 235.585,142.521 229.193,139.783 223.000 C 139.200 221.680,138.483 220.060,138.190 219.399 C 132.267 206.054,132.293 186.435,138.255 171.200 C 140.054 166.602,140.656 165.328,143.104 160.938 C 145.610 156.443,152.011 148.759,156.216 145.198 C 159.471 142.442,161.125 141.200,161.541 141.200 C 161.794 141.200,162.000 141.046,162.000 140.857 C 162.000 139.913,172.288 134.455,177.200 132.793 C 185.491 129.988,187.286 129.584,194.000 129.014 C 255.467 123.800,292.191 192.895,252.240 238.591 C 250.898 240.126,249.408 241.836,248.928 242.391 C 248.448 242.946,247.579 243.940,246.997 244.600 C 240.339 252.148,235.240 259.591,230.966 268.000 C 229.623 270.642,226.344 278.568,225.574 281.034 C 222.523 290.803,221.740 294.405,220.776 303.114 C 218.284 325.627,223.716 344.948,237.333 362.000 C 240.422 365.869,247.305 372.577,249.536 373.894 L 251.272 374.918 254.336 374.008 C 259.810 372.381,262.586 371.491,263.311 371.132 C 263.703 370.938,265.963 370.087,268.335 369.241 C 270.706 368.395,272.996 367.518,273.423 367.292 C 273.850 367.066,275.550 366.298,277.200 365.586 C 281.257 363.835,288.886 360.032,289.486 359.462 C 290.115 358.863,289.819 358.466,287.400 356.668 C 278.702 350.199,273.956 344.715,269.689 336.200 C 265.759 328.358,263.202 316.941,263.867 310.200 C 265.395 294.704,270.335 284.080,281.854 271.515 C 283.727 269.472,286.630 266.090,288.304 264.000 C 289.978 261.910,291.590 259.930,291.886 259.600 C 292.182 259.270,293.178 257.830,294.099 256.400 C 296.494 252.680,296.496 252.676,297.643 250.541 C 298.216 249.474,299.069 247.970,299.538 247.200 C 300.006 246.430,300.577 245.350,300.806 244.800 C 301.034 244.250,301.473 243.260,301.780 242.600 C 303.442 239.029,305.595 233.869,306.369 231.600 C 309.402 222.704,310.445 217.717,312.012 204.600 C 312.482 200.659,312.480 190.050,312.006 186.000 C 311.039 177.717,310.412 173.143,310.196 172.793 C 310.064 172.580,309.784 171.280,309.572 169.903 C 309.361 168.526,308.932 166.770,308.620 166.000 C 308.308 165.230,307.498 162.800,306.820 160.600 C 306.142 158.400,305.424 156.240,305.223 155.800 C 305.023 155.360,303.912 152.840,302.754 150.200 C 301.597 147.560,300.469 145.159,300.247 144.865 C 300.025 144.571,299.204 143.108,298.422 141.615 C 288.850 123.340,269.289 104.660,250.800 96.139 C 249.590 95.581,247.700 94.704,246.600 94.189 C 243.102 92.551,240.402 91.572,231.800 88.822 C 222.916 85.983,205.660 84.111,194.800 84.810 M195.016 161.645 C 174.336 164.658,160.299 186.912,166.447 206.937 C 167.133 209.172,167.853 211.171,168.047 211.380 C 168.241 211.589,168.400 212.046,168.400 212.395 C 168.400 214.482,175.032 222.556,179.397 225.785 C 181.939 227.664,188.604 231.200,189.606 231.200 C 189.821 231.200,191.123 231.597,192.498 232.082 C 198.894 234.338,209.242 233.113,217.416 229.132 C 234.464 220.828,242.094 198.626,233.682 181.800 C 231.527 177.488,230.230 175.345,229.326 174.600 C 229.059 174.380,228.301 173.513,227.642 172.673 C 221.345 164.645,207.212 159.868,195.016 161.645 " stroke="none" fill="#e4665e" fill-rule="evenodd"></path><path id="path1" d="M0.000 200.000 L 0.000 400.000 200.000 400.000 L 400.000 400.000 400.000 200.000 L 400.000 0.000 200.000 0.000 L 0.000 0.000 0.000 200.000 M219.600 7.631 C 221.250 7.834,224.130 8.182,226.000 8.403 C 232.388 9.159,244.106 11.448,249.800 13.052 C 251.780 13.610,254.390 14.340,255.600 14.675 C 258.311 15.426,263.520 17.101,264.600 17.570 C 265.040 17.761,267.200 18.583,269.400 19.396 C 271.600 20.210,274.300 21.291,275.400 21.799 C 276.500 22.307,278.667 23.270,280.217 23.939 C 283.013 25.147,290.938 29.163,292.740 30.286 C 293.258 30.608,294.698 31.423,295.940 32.097 C 297.183 32.771,299.190 33.983,300.400 34.791 C 301.610 35.598,304.220 37.321,306.200 38.619 C 311.900 42.357,319.426 48.146,326.187 53.995 C 330.561 57.780,340.216 67.608,344.463 72.600 C 347.084 75.680,349.459 78.470,349.743 78.800 C 354.941 84.855,365.442 101.611,370.048 111.200 C 373.359 118.093,374.450 120.550,374.656 121.581 C 374.788 122.241,375.145 122.988,375.448 123.240 C 375.752 123.492,376.000 123.953,376.000 124.265 C 376.000 124.577,376.348 125.514,376.773 126.348 C 377.199 127.182,378.029 129.380,378.619 131.232 C 379.208 133.084,379.960 135.230,380.289 136.000 C 381.189 138.106,383.200 144.790,383.200 145.675 C 383.200 146.103,383.413 146.846,383.673 147.326 C 383.933 147.807,384.373 149.370,384.651 150.800 C 384.930 152.230,385.414 154.390,385.729 155.600 C 386.620 159.030,387.950 167.088,388.172 170.402 C 388.283 172.053,388.604 174.033,388.887 174.802 C 389.628 176.821,389.626 213.497,388.885 215.800 C 388.601 216.680,388.208 219.380,388.011 221.800 C 387.672 225.974,387.301 228.120,385.798 234.600 C 385.441 236.140,384.893 238.622,384.580 240.115 C 384.268 241.608,383.829 243.172,383.606 243.589 C 383.383 244.006,383.200 244.717,383.200 245.168 C 383.200 246.073,381.103 252.670,380.183 254.660 C 379.862 255.354,379.600 256.226,379.600 256.600 C 379.600 256.974,379.346 257.846,379.034 258.540 C 378.723 259.233,378.247 260.520,377.975 261.400 C 377.703 262.280,376.878 264.275,376.140 265.834 C 375.403 267.393,374.800 268.800,374.800 268.960 C 374.800 269.120,374.330 270.275,373.756 271.526 C 373.181 272.777,372.552 274.160,372.357 274.600 C 372.162 275.040,371.841 275.670,371.645 276.000 C 371.449 276.330,370.552 278.130,369.652 280.000 C 365.560 288.501,360.664 296.470,352.940 307.200 C 344.315 319.181,322.988 341.200,320.009 341.200 C 318.457 341.200,316.150 340.180,313.800 338.453 C 312.700 337.645,311.049 336.500,310.131 335.907 C 297.246 327.590,292.773 313.917,298.841 301.400 C 301.487 295.942,302.873 293.903,308.557 287.106 C 313.196 281.559,319.347 272.996,321.464 269.137 C 321.719 268.672,322.079 268.181,322.264 268.046 C 322.449 267.911,323.088 266.810,323.685 265.600 C 324.282 264.390,325.381 262.307,326.129 260.971 C 343.743 229.491,347.150 180.583,334.009 147.875 C 333.815 147.394,333.169 145.650,332.573 144.000 C 331.421 140.808,330.733 139.234,327.856 133.200 C 324.756 126.697,321.369 120.802,318.113 116.242 C 317.501 115.385,316.280 113.658,315.400 112.404 C 309.621 104.168,298.466 92.443,290.600 86.337 C 289.940 85.824,288.950 85.013,288.400 84.534 C 287.071 83.377,284.261 81.374,279.400 78.120 C 277.200 76.647,275.340 75.298,275.267 75.121 C 275.193 74.945,274.947 74.800,274.719 74.800 C 274.491 74.800,273.221 74.142,271.896 73.337 C 268.157 71.065,258.929 66.473,255.556 65.205 C 253.881 64.576,251.814 63.687,250.961 63.231 C 250.109 62.774,249.100 62.400,248.719 62.400 C 248.339 62.400,247.436 62.140,246.714 61.823 C 245.991 61.506,243.420 60.683,241.000 59.995 C 238.580 59.307,235.970 58.507,235.200 58.216 C 234.430 57.925,232.450 57.488,230.800 57.243 C 229.150 56.999,226.720 56.621,225.400 56.404 C 211.611 54.129,195.673 53.518,187.200 54.940 C 185.110 55.291,181.659 55.762,179.530 55.987 C 177.402 56.213,175.242 56.555,174.730 56.749 C 174.219 56.943,172.630 57.235,171.200 57.398 C 169.770 57.561,167.970 57.929,167.200 58.214 C 166.430 58.500,163.820 59.311,161.400 60.016 C 155.065 61.861,152.465 62.735,150.200 63.781 C 149.100 64.289,147.750 64.835,147.200 64.994 C 146.650 65.154,143.449 66.615,140.088 68.242 C 136.726 69.869,133.816 71.200,133.621 71.200 C 133.426 71.200,133.207 71.344,133.133 71.521 C 132.997 71.849,128.270 74.800,127.880 74.800 C 127.462 74.800,118.549 80.956,114.800 83.834 C 103.093 92.821,90.938 105.717,84.294 116.200 C 83.597 117.300,82.926 118.290,82.804 118.400 C 82.092 119.040,77.381 127.258,75.116 131.809 C 74.128 133.795,73.119 135.775,72.873 136.209 C 72.628 136.644,71.868 138.440,71.186 140.200 C 70.504 141.960,69.760 143.741,69.533 144.158 C 68.772 145.557,65.823 154.587,65.209 157.400 C 65.017 158.280,64.577 159.540,64.232 160.200 C 63.887 160.860,63.604 162.042,63.602 162.827 C 63.601 163.612,63.333 165.153,63.007 166.250 C 62.682 167.348,62.143 170.305,61.812 172.823 C 61.480 175.340,61.020 178.030,60.790 178.800 C 58.961 184.917,60.152 210.925,62.832 223.400 C 63.258 225.380,63.604 227.360,63.603 227.800 C 63.601 228.240,63.960 229.680,64.400 231.000 C 64.841 232.320,66.034 236.100,67.053 239.400 C 68.072 242.700,69.044 245.580,69.214 245.800 C 69.383 246.020,70.186 247.910,70.998 250.000 C 75.185 260.783,84.521 276.104,93.057 286.200 C 93.801 287.080,95.026 288.524,95.781 289.409 C 97.065 290.916,97.689 291.774,100.424 295.800 C 106.876 305.297,108.052 317.534,103.131 323.954 C 102.729 324.479,102.400 325.109,102.400 325.355 C 102.400 325.601,101.635 326.631,100.700 327.645 C 99.765 328.658,98.539 330.008,97.976 330.644 C 96.426 332.394,92.090 336.128,90.875 336.758 C 90.284 337.065,89.710 337.425,89.600 337.558 C 88.522 338.861,83.932 341.200,82.452 341.200 C 79.598 341.200,63.904 325.628,53.700 312.671 C 48.347 305.875,46.000 302.629,46.000 302.025 C 46.000 301.838,45.775 301.597,45.500 301.488 C 45.225 301.379,44.376 300.235,43.612 298.945 C 42.849 297.655,41.564 295.700,40.757 294.600 C 39.950 293.500,38.889 291.790,38.398 290.800 C 37.908 289.810,37.278 288.730,36.998 288.400 C 36.185 287.440,31.356 278.295,29.982 275.111 C 29.290 273.510,28.090 270.850,27.313 269.200 C 26.537 267.550,25.753 265.750,25.571 265.200 C 25.389 264.650,24.768 262.940,24.191 261.400 C 22.876 257.890,21.145 252.705,19.985 248.800 C 19.494 247.150,18.770 244.720,18.376 243.400 C 17.605 240.825,16.177 234.417,15.791 231.800 C 15.661 230.920,15.297 229.030,14.983 227.600 C 11.730 212.786,11.718 168.510,14.965 163.256 C 15.089 163.056,15.374 161.567,15.600 159.947 C 16.200 155.641,18.328 146.673,19.810 142.200 C 20.102 141.320,20.991 138.560,21.787 136.068 C 22.583 133.575,23.385 131.235,23.570 130.868 C 23.755 130.500,24.305 129.120,24.792 127.800 C 26.404 123.432,27.741 120.208,28.192 119.600 C 28.437 119.270,29.063 117.920,29.584 116.600 C 30.615 113.985,35.289 104.831,36.446 103.163 C 36.841 102.593,37.792 100.922,38.560 99.449 C 39.328 97.976,40.473 96.102,41.104 95.285 C 41.736 94.468,42.765 92.900,43.392 91.800 C 44.018 90.700,44.870 89.350,45.285 88.800 C 45.700 88.250,47.695 85.548,49.720 82.795 C 56.741 73.247,65.110 63.915,73.200 56.615 C 74.850 55.127,76.830 53.337,77.600 52.638 C 78.370 51.940,79.900 50.661,81.000 49.798 C 82.100 48.934,83.090 48.109,83.200 47.964 C 83.391 47.711,90.105 42.714,93.630 40.200 C 94.556 39.540,96.428 38.280,97.792 37.400 C 99.155 36.520,100.978 35.329,101.842 34.753 C 102.707 34.178,104.475 33.141,105.771 32.449 C 107.067 31.758,108.324 31.034,108.564 30.842 C 109.213 30.321,120.997 24.389,124.212 22.965 C 144.795 13.845,169.180 8.000,190.000 7.197 C 198.715 6.861,215.329 7.104,219.600 7.631 M216.548 83.623 C 227.412 85.206,241.136 89.018,246.772 92.017 C 247.117 92.201,249.290 93.272,251.600 94.396 C 256.296 96.683,257.236 97.196,260.395 99.198 C 261.608 99.968,262.784 100.688,263.009 100.798 C 263.862 101.219,267.834 103.980,268.600 104.685 C 269.040 105.090,270.030 105.855,270.800 106.384 C 276.042 109.987,286.924 121.188,292.000 128.204 C 296.557 134.503,302.492 144.838,304.632 150.200 C 304.896 150.860,305.427 152.120,305.812 153.000 C 307.069 155.872,308.800 160.975,308.800 161.808 C 308.800 162.256,309.055 162.986,309.367 163.431 C 309.679 163.877,310.054 164.952,310.202 165.820 C 310.349 166.689,310.814 168.436,311.235 169.702 C 311.656 170.967,312.000 172.439,312.000 172.972 C 312.000 173.505,312.360 175.768,312.800 178.000 C 313.691 182.522,313.990 207.315,313.193 210.600 C 312.979 211.480,312.536 213.936,312.208 216.059 C 311.880 218.181,311.409 220.431,311.162 221.059 C 310.915 221.686,310.483 223.190,310.204 224.400 C 309.924 225.610,309.513 227.140,309.289 227.800 C 309.066 228.460,308.485 230.260,307.998 231.800 C 307.511 233.340,306.786 235.320,306.387 236.200 C 305.987 237.080,305.186 238.970,304.607 240.400 C 304.027 241.830,303.039 243.990,302.410 245.200 C 301.781 246.410,300.615 248.653,299.819 250.184 C 299.023 251.716,298.113 253.254,297.797 253.603 C 297.481 253.952,296.751 255.129,296.175 256.219 C 294.769 258.876,290.152 265.025,286.428 269.200 C 270.760 286.767,266.252 296.359,266.222 312.200 C 266.201 323.027,267.669 328.640,273.062 338.360 C 276.575 344.690,283.133 351.552,289.659 355.727 C 292.163 357.329,292.799 358.619,291.822 360.111 C 290.893 361.528,278.106 367.705,270.000 370.652 C 267.910 371.411,264.940 372.492,263.400 373.054 C 251.024 377.565,250.137 377.450,242.658 370.352 C 233.260 361.434,221.600 342.457,221.600 336.081 C 221.600 335.684,221.418 335.178,221.195 334.955 C 217.817 331.577,217.463 303.342,220.652 291.600 C 220.980 290.390,221.424 288.500,221.638 287.400 C 221.853 286.300,222.194 285.040,222.397 284.600 C 222.600 284.160,222.971 282.990,223.221 282.000 C 223.742 279.932,224.938 276.855,226.040 274.746 C 226.458 273.946,226.800 273.093,226.800 272.852 C 226.800 272.359,228.200 269.460,230.892 264.383 C 234.413 257.741,241.058 248.504,246.690 242.424 C 254.071 234.456,260.053 224.911,262.960 216.461 C 270.103 195.699,265.789 170.527,252.358 154.604 C 245.440 146.402,239.025 141.260,230.347 136.961 C 227.891 135.745,221.357 133.200,220.689 133.200 C 220.398 133.200,219.977 133.017,219.752 132.792 C 219.392 132.432,217.068 131.945,210.200 130.794 C 207.449 130.333,195.135 130.332,192.200 130.793 C 187.247 131.571,183.201 132.390,182.512 132.754 C 182.121 132.961,180.090 133.710,178.000 134.419 C 173.849 135.827,173.914 135.797,168.367 138.936 C 158.825 144.338,150.371 152.698,144.841 162.200 C 142.088 166.929,142.017 167.065,141.389 168.753 C 141.093 169.549,140.302 171.518,139.631 173.129 C 134.573 185.267,134.757 204.972,140.053 218.288 C 143.641 227.311,146.119 231.167,155.012 241.573 C 162.299 250.098,166.522 255.770,168.584 259.800 C 168.922 260.460,169.559 261.540,169.999 262.200 C 170.440 262.860,171.440 264.750,172.221 266.400 C 173.002 268.050,173.812 269.670,174.021 270.000 C 174.231 270.330,174.562 270.966,174.758 271.413 C 174.954 271.860,175.479 273.030,175.925 274.013 C 176.371 274.996,176.852 276.250,176.995 276.800 C 177.138 277.350,177.488 278.340,177.774 279.000 C 179.421 282.808,181.470 290.569,181.952 294.828 C 182.141 296.494,182.536 298.294,182.831 298.828 C 184.057 301.051,183.769 324.485,182.470 328.200 C 182.239 328.860,181.879 330.480,181.669 331.800 C 181.192 334.805,180.283 338.010,179.174 340.600 C 178.703 341.700,178.087 343.140,177.805 343.800 C 175.927 348.199,172.500 354.632,170.921 356.725 C 170.371 357.454,169.333 358.942,168.616 360.032 C 165.856 364.223,157.650 372.897,154.428 375.029 C 151.639 376.875,147.883 376.364,138.400 372.848 C 137.190 372.399,134.490 371.409,132.400 370.648 C 124.289 367.693,112.032 361.849,110.680 360.291 C 109.408 358.827,109.951 357.655,112.800 355.713 C 136.493 339.562,143.491 307.459,128.244 284.860 C 127.450 283.683,126.800 282.640,126.800 282.544 C 126.800 282.071,122.618 276.730,119.885 273.712 C 119.132 272.881,117.564 271.120,116.401 269.800 C 115.238 268.480,113.772 266.820,113.143 266.111 C 112.514 265.402,112.000 264.645,112.000 264.431 C 112.000 264.216,111.751 263.896,111.448 263.720 C 110.775 263.330,104.089 253.486,103.570 252.121 C 103.366 251.584,102.769 250.573,102.243 249.873 C 101.718 249.173,100.888 247.700,100.399 246.600 C 99.910 245.500,98.878 243.340,98.105 241.800 C 95.178 235.968,91.832 225.769,90.362 218.200 C 90.148 217.100,89.696 214.782,89.356 213.050 C 88.079 206.529,87.648 194.216,88.384 185.312 C 88.763 180.740,89.130 178.529,91.231 168.200 C 91.751 165.644,93.489 160.100,94.178 158.800 C 94.469 158.250,94.835 157.203,94.992 156.473 C 95.148 155.743,95.527 154.663,95.835 154.073 C 96.143 153.483,96.396 152.860,96.398 152.688 C 96.409 151.251,104.740 135.811,107.058 132.933 C 107.796 132.016,108.400 131.136,108.400 130.978 C 108.400 130.819,109.127 129.770,110.016 128.645 C 110.905 127.520,112.486 125.501,113.529 124.157 C 120.892 114.679,134.232 103.150,143.600 98.170 C 144.810 97.526,145.892 96.879,146.005 96.730 C 146.201 96.473,151.921 93.686,156.954 91.397 C 172.797 84.189,197.930 80.911,216.548 83.623 M209.478 159.983 C 211.500 160.413,213.480 160.947,213.878 161.170 C 214.275 161.393,215.971 162.208,217.646 162.980 C 227.670 167.603,236.632 179.267,238.056 189.541 C 238.259 191.003,238.584 193.339,238.778 194.732 C 238.986 196.230,238.980 198.270,238.761 199.732 C 238.559 201.089,238.230 203.370,238.032 204.800 C 237.135 211.270,232.656 219.361,226.932 224.854 C 210.522 240.599,182.917 237.561,170.047 218.594 C 150.656 190.013,175.692 152.798,209.478 159.983 " stroke="none" fill="#fcfbfb" fill-rule="evenodd"></path><path id="path2" d="M190.000 7.197 C 169.180 8.000,144.795 13.845,124.212 22.965 C 120.997 24.389,109.213 30.321,108.564 30.842 C 108.324 31.034,107.067 31.758,105.771 32.449 C 104.475 33.141,102.707 34.178,101.842 34.753 C 100.978 35.329,99.155 36.520,97.792 37.400 C 96.428 38.280,94.556 39.540,93.630 40.200 C 90.105 42.714,83.391 47.711,83.200 47.964 C 83.090 48.109,82.100 48.934,81.000 49.798 C 79.900 50.661,78.370 51.940,77.600 52.638 C 76.830 53.337,74.850 55.127,73.200 56.615 C 65.110 63.915,56.741 73.247,49.720 82.795 C 47.695 85.548,45.700 88.250,45.285 88.800 C 44.870 89.350,44.018 90.700,43.392 91.800 C 42.765 92.900,41.736 94.468,41.104 95.285 C 40.473 96.102,39.328 97.976,38.560 99.449 C 37.792 100.922,36.841 102.593,36.446 103.163 C 35.289 104.831,30.615 113.985,29.584 116.600 C 29.063 117.920,28.437 119.270,28.192 119.600 C 27.741 120.208,26.404 123.432,24.792 127.800 C 24.305 129.120,23.755 130.500,23.570 130.868 C 23.385 131.235,22.583 133.575,21.787 136.068 C 20.991 138.560,20.102 141.320,19.810 142.200 C 18.328 146.673,16.200 155.641,15.600 159.947 C 15.374 161.567,15.089 163.056,14.965 163.256 C 11.718 168.510,11.730 212.786,14.983 227.600 C 15.297 229.030,15.661 230.920,15.791 231.800 C 16.177 234.417,17.605 240.825,18.376 243.400 C 18.770 244.720,19.494 247.150,19.985 248.800 C 21.145 252.705,22.876 257.890,24.191 261.400 C 24.768 262.940,25.389 264.650,25.571 265.200 C 25.753 265.750,26.537 267.550,27.313 269.200 C 28.090 270.850,29.290 273.510,29.982 275.111 C 31.356 278.295,36.185 287.440,36.998 288.400 C 37.278 288.730,37.908 289.810,38.398 290.800 C 38.889 291.790,39.950 293.500,40.757 294.600 C 41.564 295.700,42.849 297.655,43.612 298.945 C 44.376 300.235,45.225 301.379,45.500 301.488 C 45.775 301.597,46.000 301.838,46.000 302.025 C 46.000 302.629,48.347 305.875,53.700 312.671 C 63.904 325.628,79.598 341.200,82.452 341.200 C 83.932 341.200,88.522 338.861,89.600 337.558 C 89.710 337.425,90.284 337.065,90.875 336.758 C 92.090 336.128,96.426 332.394,97.976 330.644 C 98.539 330.008,99.765 328.658,100.700 327.645 C 101.635 326.631,102.400 325.601,102.400 325.355 C 102.400 325.109,102.729 324.479,103.131 323.954 C 108.052 317.534,106.876 305.297,100.424 295.800 C 97.689 291.774,97.065 290.916,95.781 289.409 C 95.026 288.524,93.801 287.080,93.057 286.200 C 84.521 276.104,75.185 260.783,70.998 250.000 C 70.186 247.910,69.383 246.020,69.214 245.800 C 69.044 245.580,68.072 242.700,67.053 239.400 C 66.034 236.100,64.841 232.320,64.400 231.000 C 63.960 229.680,63.601 228.240,63.603 227.800 C 63.604 227.360,63.258 225.380,62.832 223.400 C 60.152 210.925,58.961 184.917,60.790 178.800 C 61.020 178.030,61.480 175.340,61.812 172.823 C 62.143 170.305,62.682 167.348,63.007 166.250 C 63.333 165.153,63.601 163.612,63.602 162.827 C 63.604 162.042,63.887 160.860,64.232 160.200 C 64.577 159.540,65.017 158.280,65.209 157.400 C 65.823 154.587,68.772 145.557,69.533 144.158 C 69.760 143.741,70.504 141.960,71.186 140.200 C 71.868 138.440,72.628 136.644,72.873 136.209 C 73.119 135.775,74.128 133.795,75.116 131.809 C 77.381 127.258,82.092 119.040,82.804 118.400 C 82.926 118.290,83.597 117.300,84.294 116.200 C 90.938 105.717,103.093 92.821,114.800 83.834 C 118.549 80.956,127.462 74.800,127.880 74.800 C 128.270 74.800,132.997 71.849,133.133 71.521 C 133.207 71.344,133.426 71.200,133.621 71.200 C 133.816 71.200,136.726 69.869,140.088 68.242 C 143.449 66.615,146.650 65.154,147.200 64.994 C 147.750 64.835,149.100 64.289,150.200 63.781 C 152.465 62.735,155.065 61.861,161.400 60.016 C 163.820 59.311,166.430 58.500,167.200 58.214 C 167.970 57.929,169.770 57.561,171.200 57.398 C 172.630 57.235,174.219 56.943,174.730 56.749 C 175.242 56.555,177.402 56.213,179.530 55.987 C 181.659 55.762,185.110 55.291,187.200 54.940 C 195.673 53.518,211.611 54.129,225.400 56.404 C 226.720 56.621,229.150 56.999,230.800 57.243 C 232.450 57.488,234.430 57.925,235.200 58.216 C 235.970 58.507,238.580 59.307,241.000 59.995 C 243.420 60.683,245.991 61.506,246.714 61.823 C 247.436 62.140,248.339 62.400,248.719 62.400 C 249.100 62.400,250.109 62.774,250.961 63.231 C 251.814 63.687,253.881 64.576,255.556 65.205 C 258.929 66.473,268.157 71.065,271.896 73.337 C 273.221 74.142,274.491 74.800,274.719 74.800 C 274.947 74.800,275.193 74.945,275.267 75.121 C 275.340 75.298,277.200 76.647,279.400 78.120 C 284.261 81.374,287.071 83.377,288.400 84.534 C 288.950 85.013,289.940 85.824,290.600 86.337 C 298.466 92.443,309.621 104.168,315.400 112.404 C 316.280 113.658,317.501 115.385,318.113 116.242 C 321.369 120.802,324.756 126.697,327.856 133.200 C 330.733 139.234,331.421 140.808,332.573 144.000 C 333.169 145.650,333.815 147.394,334.009 147.875 C 341.470 166.447,343.957 193.926,340.389 218.400 C 338.579 230.818,331.984 250.507,326.129 260.971 C 325.381 262.307,324.282 264.390,323.685 265.600 C 323.088 266.810,322.449 267.911,322.264 268.046 C 322.079 268.181,321.719 268.672,321.464 269.137 C 319.347 272.996,313.196 281.559,308.557 287.106 C 302.873 293.903,301.487 295.942,298.841 301.400 C 292.773 313.917,297.246 327.590,310.131 335.907 C 311.049 336.500,312.700 337.645,313.800 338.453 C 316.150 340.180,318.457 341.200,320.009 341.200 C 322.988 341.200,344.315 319.181,352.940 307.200 C 360.664 296.470,365.560 288.501,369.652 280.000 C 370.552 278.130,371.449 276.330,371.645 276.000 C 371.841 275.670,372.162 275.040,372.357 274.600 C 372.552 274.160,373.181 272.777,373.756 271.526 C 374.330 270.275,374.800 269.120,374.800 268.960 C 374.800 268.800,375.403 267.393,376.140 265.834 C 376.878 264.275,377.703 262.280,377.975 261.400 C 378.247 260.520,378.723 259.233,379.034 258.540 C 379.346 257.846,379.600 256.974,379.600 256.600 C 379.600 256.226,379.862 255.354,380.183 254.660 C 381.103 252.670,383.200 246.073,383.200 245.168 C 383.200 244.717,383.383 244.006,383.606 243.589 C 383.829 243.172,384.268 241.608,384.580 240.115 C 384.893 238.622,385.441 236.140,385.798 234.600 C 387.301 228.120,387.672 225.974,388.011 221.800 C 388.208 219.380,388.601 216.680,388.885 215.800 C 389.626 213.497,389.628 176.821,388.887 174.802 C 388.604 174.033,388.283 172.053,388.172 170.402 C 387.950 167.088,386.620 159.030,385.729 155.600 C 385.414 154.390,384.930 152.230,384.651 150.800 C 384.373 149.370,383.933 147.807,383.673 147.326 C 383.413 146.846,383.200 146.103,383.200 145.675 C 383.200 144.790,381.189 138.106,380.289 136.000 C 379.960 135.230,379.208 133.084,378.619 131.232 C 378.029 129.380,377.199 127.182,376.773 126.348 C 376.348 125.514,376.000 124.577,376.000 124.265 C 376.000 123.953,375.752 123.492,375.448 123.240 C 375.145 122.988,374.788 122.241,374.656 121.581 C 374.450 120.550,373.359 118.093,370.048 111.200 C 365.442 101.611,354.941 84.855,349.743 78.800 C 349.459 78.470,347.084 75.680,344.463 72.600 C 340.216 67.608,330.561 57.780,326.187 53.995 C 319.426 48.146,311.900 42.357,306.200 38.619 C 304.220 37.321,301.610 35.598,300.400 34.791 C 299.190 33.983,297.183 32.771,295.940 32.097 C 294.698 31.423,293.258 30.608,292.740 30.286 C 290.938 29.163,283.013 25.147,280.217 23.939 C 278.667 23.270,276.500 22.307,275.400 21.799 C 274.300 21.291,271.600 20.210,269.400 19.396 C 267.200 18.583,265.040 17.761,264.600 17.570 C 263.520 17.101,258.311 15.426,255.600 14.675 C 254.390 14.340,251.780 13.610,249.800 13.052 C 244.106 11.448,232.388 9.159,226.000 8.403 C 224.130 8.182,221.250 7.834,219.600 7.631 C 215.329 7.104,198.715 6.861,190.000 7.197 M212.200 8.189 C 269.012 10.582,324.890 42.241,356.710 90.066 C 364.062 101.115,366.394 105.305,373.035 119.400 C 378.216 130.398,383.884 148.800,386.218 162.200 C 391.296 191.359,389.529 222.943,381.373 248.800 C 375.318 267.993,368.581 282.409,358.661 297.393 C 347.806 313.791,325.175 338.987,320.173 340.242 C 317.859 340.823,308.769 334.657,303.547 328.965 C 292.675 317.114,294.416 305.188,309.673 287.000 C 347.771 241.583,354.100 174.679,324.943 125.600 C 324.355 124.610,323.674 123.440,323.430 123.000 C 322.763 121.798,321.728 120.192,318.917 116.000 C 303.066 92.360,278.468 72.864,251.800 62.804 C 247.322 61.115,246.603 60.870,243.000 59.806 C 241.020 59.222,238.320 58.396,237.000 57.972 C 235.680 57.547,234.202 57.200,233.715 57.200 C 233.228 57.200,231.338 56.851,229.515 56.424 C 213.697 52.723,188.703 52.723,172.885 56.424 C 171.062 56.851,169.262 57.197,168.885 57.194 C 168.508 57.191,166.940 57.564,165.400 58.023 C 163.860 58.481,161.070 59.310,159.200 59.863 C 157.330 60.416,155.170 61.105,154.400 61.393 C 148.283 63.683,146.000 64.608,141.800 66.499 C 115.766 78.221,93.429 98.453,78.150 124.151 C 73.628 131.757,67.129 146.855,64.957 154.800 C 55.942 187.773,57.319 217.628,69.271 248.317 C 70.947 252.621,77.534 265.995,79.069 268.212 C 79.521 268.866,81.242 271.470,82.893 274.000 C 85.866 278.557,87.411 280.606,94.829 289.836 C 99.903 296.148,103.101 301.392,104.031 304.925 C 104.216 305.626,104.657 307.190,105.011 308.400 C 106.545 313.641,104.930 320.401,100.760 326.198 C 96.746 331.778,85.492 340.400,82.223 340.400 C 80.735 340.400,67.820 327.954,60.082 319.063 C 54.339 312.465,41.200 294.891,41.200 293.809 C 41.200 293.716,40.680 292.866,40.044 291.920 C 35.327 284.897,28.538 270.796,24.100 258.800 C 13.555 230.301,10.499 195.117,15.830 163.600 C 17.461 153.953,19.933 144.194,23.225 134.400 C 27.160 122.690,35.000 106.227,41.288 96.468 C 41.666 95.880,42.267 94.883,42.623 94.252 C 44.584 90.774,51.376 81.745,59.213 72.200 C 89.716 35.046,141.973 9.979,193.000 8.023 C 200.027 7.754,202.337 7.774,212.200 8.189 M184.600 83.776 C 174.971 85.234,163.629 88.360,156.954 91.397 C 151.921 93.686,146.201 96.473,146.005 96.730 C 145.892 96.879,144.810 97.526,143.600 98.170 C 134.232 103.150,120.892 114.679,113.529 124.157 C 112.486 125.501,110.905 127.520,110.016 128.645 C 109.127 129.770,108.400 130.819,108.400 130.978 C 108.400 131.136,107.796 132.016,107.058 132.933 C 104.740 135.811,96.409 151.251,96.398 152.688 C 96.396 152.860,96.143 153.483,95.835 154.073 C 95.527 154.663,95.148 155.743,94.992 156.473 C 94.835 157.203,94.469 158.250,94.178 158.800 C 93.489 160.100,91.751 165.644,91.231 168.200 C 89.130 178.529,88.763 180.740,88.384 185.312 C 87.648 194.216,88.079 206.529,89.356 213.050 C 89.696 214.782,90.148 217.100,90.362 218.200 C 91.832 225.769,95.178 235.968,98.105 241.800 C 98.878 243.340,99.910 245.500,100.399 246.600 C 100.888 247.700,101.718 249.173,102.243 249.873 C 102.769 250.573,103.366 251.584,103.570 252.121 C 104.089 253.486,110.775 263.330,111.448 263.720 C 111.751 263.896,112.000 264.216,112.000 264.431 C 112.000 264.645,112.514 265.402,113.143 266.111 C 113.772 266.820,115.238 268.480,116.401 269.800 C 117.564 271.120,119.132 272.881,119.885 273.712 C 122.618 276.730,126.800 282.071,126.800 282.544 C 126.800 282.640,127.450 283.683,128.244 284.860 C 143.491 307.459,136.493 339.562,112.800 355.713 C 109.951 357.655,109.408 358.827,110.680 360.291 C 112.032 361.849,124.289 367.693,132.400 370.648 C 134.490 371.409,137.190 372.399,138.400 372.848 C 147.883 376.364,151.639 376.875,154.428 375.029 C 157.650 372.897,165.856 364.223,168.616 360.032 C 169.333 358.942,170.371 357.454,170.921 356.725 C 172.500 354.632,175.927 348.199,177.805 343.800 C 178.087 343.140,178.703 341.700,179.174 340.600 C 180.283 338.010,181.192 334.805,181.669 331.800 C 181.879 330.480,182.239 328.860,182.470 328.200 C 183.769 324.485,184.057 301.051,182.831 298.828 C 182.536 298.294,182.141 296.494,181.952 294.828 C 181.470 290.569,179.421 282.808,177.774 279.000 C 177.488 278.340,177.138 277.350,176.995 276.800 C 176.852 276.250,176.371 274.996,175.925 274.013 C 175.479 273.030,174.954 271.860,174.758 271.413 C 174.562 270.966,174.231 270.330,174.021 270.000 C 173.812 269.670,173.002 268.050,172.221 266.400 C 171.440 264.750,170.440 262.860,169.999 262.200 C 169.559 261.540,168.922 260.460,168.584 259.800 C 166.522 255.770,162.299 250.098,155.012 241.573 C 146.119 231.167,143.641 227.311,140.053 218.288 C 134.757 204.972,134.573 185.267,139.631 173.129 C 140.302 171.518,141.093 169.549,141.389 168.753 C 142.017 167.065,142.088 166.929,144.841 162.200 C 150.371 152.698,158.825 144.338,168.367 138.936 C 173.914 135.797,173.849 135.827,178.000 134.419 C 180.090 133.710,182.121 132.961,182.512 132.754 C 183.201 132.390,187.247 131.571,192.200 130.793 C 195.135 130.332,207.449 130.333,210.200 130.794 C 217.068 131.945,219.392 132.432,219.752 132.792 C 219.977 133.017,220.398 133.200,220.689 133.200 C 221.357 133.200,227.891 135.745,230.347 136.961 C 239.025 141.260,245.440 146.402,252.358 154.604 C 265.789 170.527,270.103 195.699,262.960 216.461 C 260.053 224.911,254.071 234.456,246.690 242.424 C 241.058 248.504,234.413 257.741,230.892 264.383 C 228.200 269.460,226.800 272.359,226.800 272.852 C 226.800 273.093,226.458 273.946,226.040 274.746 C 224.938 276.855,223.742 279.932,223.221 282.000 C 222.971 282.990,222.600 284.160,222.397 284.600 C 222.194 285.040,221.853 286.300,221.638 287.400 C 221.424 288.500,220.980 290.390,220.652 291.600 C 217.463 303.342,217.817 331.577,221.195 334.955 C 221.418 335.178,221.600 335.684,221.600 336.081 C 221.600 342.457,233.260 361.434,242.658 370.352 C 250.137 377.450,251.024 377.565,263.400 373.054 C 264.940 372.492,267.910 371.411,270.000 370.652 C 278.106 367.705,290.893 361.528,291.822 360.111 C 292.799 358.619,292.163 357.329,289.659 355.727 C 280.665 349.974,272.728 340.168,269.321 330.600 C 263.950 315.520,265.052 300.956,272.577 287.536 C 275.968 281.490,278.743 277.816,286.428 269.200 C 290.152 265.025,294.769 258.876,296.175 256.219 C 296.751 255.129,297.481 253.952,297.797 253.603 C 298.113 253.254,299.023 251.716,299.819 250.184 C 300.615 248.653,301.781 246.410,302.410 245.200 C 303.039 243.990,304.027 241.830,304.607 240.400 C 305.186 238.970,305.987 237.080,306.387 236.200 C 306.786 235.320,307.511 233.340,307.998 231.800 C 308.485 230.260,309.066 228.460,309.289 227.800 C 309.513 227.140,309.924 225.610,310.204 224.400 C 310.483 223.190,310.915 221.686,311.162 221.059 C 311.409 220.431,311.880 218.181,312.208 216.059 C 312.536 213.936,312.979 211.480,313.193 210.600 C 313.990 207.315,313.691 182.522,312.800 178.000 C 312.360 175.768,312.000 173.505,312.000 172.972 C 312.000 172.439,311.656 170.967,311.235 169.702 C 310.814 168.436,310.349 166.689,310.202 165.820 C 310.054 164.952,309.679 163.877,309.367 163.431 C 309.055 162.986,308.800 162.256,308.800 161.808 C 308.800 160.975,307.069 155.872,305.812 153.000 C 305.427 152.120,304.896 150.860,304.632 150.200 C 302.492 144.838,296.557 134.503,292.000 128.204 C 286.924 121.188,276.042 109.987,270.800 106.384 C 270.030 105.855,269.040 105.090,268.600 104.685 C 267.834 103.980,263.862 101.219,263.009 100.798 C 262.784 100.688,261.608 99.968,260.395 99.198 C 257.236 97.196,256.296 96.683,251.600 94.396 C 249.290 93.272,247.117 92.201,246.772 92.017 C 232.853 84.610,204.191 80.810,184.600 83.776 M217.800 84.749 C 231.770 86.880,245.957 91.731,256.800 98.083 C 258.450 99.049,260.404 100.191,261.142 100.620 C 270.964 106.328,283.930 118.570,292.047 129.800 C 320.561 169.247,320.297 223.140,291.400 261.800 C 290.743 262.680,290.106 263.490,289.985 263.600 C 289.864 263.710,288.943 264.821,287.937 266.070 C 286.932 267.318,284.705 269.874,282.989 271.749 C 270.344 285.565,265.396 297.009,265.412 312.400 C 265.431 330.157,272.574 344.280,286.943 354.967 C 291.549 358.393,291.915 359.036,290.027 360.381 C 288.847 361.221,277.472 366.800,276.939 366.800 C 276.781 366.800,275.921 367.146,275.026 367.570 C 268.450 370.682,253.166 375.720,251.085 375.461 C 247.576 375.024,238.130 365.487,231.809 356.000 C 219.384 337.350,215.966 314.895,221.801 290.243 C 222.765 286.169,225.828 276.542,226.396 275.800 C 226.564 275.580,226.836 274.950,226.999 274.400 C 228.526 269.252,239.751 250.711,243.223 247.600 C 243.346 247.490,244.504 246.140,245.796 244.600 C 247.088 243.060,248.358 241.620,248.618 241.400 C 254.806 236.161,263.018 221.419,265.634 210.855 C 278.078 160.605,229.727 116.679,179.800 132.875 C 147.584 143.326,128.626 177.551,136.662 210.754 C 139.541 222.650,144.108 230.599,155.416 243.400 C 160.286 248.913,164.319 254.389,168.686 261.418 C 169.745 263.123,172.558 268.606,174.012 271.800 C 174.513 272.900,175.173 274.291,175.479 274.892 C 176.160 276.227,177.464 279.905,178.213 282.600 C 178.519 283.700,179.328 286.580,180.012 289.000 C 180.695 291.420,181.413 294.789,181.608 296.486 C 181.803 298.184,182.184 300.344,182.454 301.286 C 183.287 304.182,183.160 320.925,182.269 325.800 C 180.440 335.807,178.570 341.124,173.266 351.400 C 168.224 361.170,154.727 375.600,150.631 375.600 C 149.710 375.600,142.988 373.660,141.000 372.820 C 140.560 372.635,138.760 371.988,137.000 371.384 C 133.537 370.195,129.990 368.801,127.304 367.575 C 126.372 367.149,125.527 366.800,125.428 366.800 C 124.550 366.800,112.816 360.888,111.715 359.891 C 110.478 358.770,110.928 358.138,115.099 355.137 C 137.066 339.332,143.614 310.127,130.443 286.705 C 127.470 281.419,120.104 272.046,114.581 266.524 C 113.484 265.427,107.200 257.005,107.200 256.631 C 107.200 256.554,106.500 255.436,105.645 254.146 C 90.510 231.310,85.096 198.210,91.834 169.694 C 105.189 113.175,160.342 75.983,217.800 84.749 M196.753 159.201 C 164.254 164.359,151.882 202.469,175.460 224.788 C 191.559 240.027,216.760 238.106,230.810 220.570 C 234.277 216.244,237.387 209.452,238.032 204.800 C 238.230 203.370,238.559 201.089,238.761 199.732 C 238.980 198.270,238.986 196.230,238.778 194.732 C 238.584 193.339,238.259 191.003,238.056 189.541 C 236.632 179.267,227.670 167.603,217.646 162.980 C 215.971 162.208,214.275 161.393,213.878 161.170 C 211.346 159.751,200.877 158.547,196.753 159.201 M206.561 160.415 C 227.039 163.375,241.042 182.999,237.410 203.648 C 232.216 233.179,195.462 244.343,174.558 222.738 C 150.106 197.467,171.719 155.379,206.561 160.415 " stroke="none" fill="#f2c2bd" fill-rule="evenodd"></path><path id="path3" d="M187.800 8.420 C 169.356 10.098,158.068 12.287,142.702 17.168 C 140.006 18.024,137.350 18.916,136.800 19.150 C 136.250 19.384,134.090 20.229,132.000 21.030 C 104.276 31.644,77.035 51.177,57.735 74.280 C 50.897 82.465,43.750 92.367,40.034 98.800 C 39.336 100.010,38.598 101.270,38.395 101.600 C 37.584 102.918,33.200 110.871,33.200 111.023 C 33.200 111.113,32.375 112.944,31.366 115.093 C 30.357 117.242,29.279 119.540,28.969 120.200 C 12.882 154.526,9.095 202.129,19.265 242.200 C 21.744 251.965,25.918 263.982,29.478 271.600 C 33.566 280.349,37.113 287.082,39.659 290.928 C 40.506 292.209,41.200 293.348,41.200 293.459 C 41.200 293.669,44.830 299.161,45.956 300.654 C 46.310 301.123,46.870 301.912,47.200 302.406 C 55.814 315.308,79.156 340.000,82.739 340.000 C 85.804 340.000,96.262 331.956,100.162 326.600 C 108.978 314.490,107.025 304.932,91.990 286.600 C 87.331 280.919,80.809 271.726,78.441 267.500 C 77.978 266.675,77.235 265.356,76.790 264.569 C 57.510 230.533,53.534 185.360,66.624 149.085 C 67.196 147.498,67.899 145.480,68.186 144.600 C 77.069 117.314,102.992 87.441,131.684 71.429 C 136.207 68.905,139.508 67.335,149.600 62.907 C 150.370 62.569,151.540 62.148,152.200 61.971 C 152.860 61.794,155.200 61.010,157.400 60.228 C 159.600 59.447,161.670 58.808,162.000 58.809 C 162.330 58.811,163.770 58.463,165.200 58.037 C 188.884 50.978,226.267 52.498,248.600 61.428 C 249.260 61.692,250.880 62.306,252.200 62.793 C 274.980 71.192,301.110 90.670,314.200 109.009 C 314.886 109.971,316.434 112.029,317.502 113.400 C 317.673 113.620,318.514 114.880,319.370 116.200 C 320.227 117.520,321.439 119.374,322.064 120.320 C 322.689 121.266,323.200 122.138,323.200 122.258 C 323.200 122.378,323.549 122.966,323.975 123.565 C 328.503 129.925,335.762 147.526,338.835 159.600 C 350.343 204.809,340.244 249.685,310.281 286.494 C 292.506 308.328,292.354 321.647,309.735 334.392 C 311.531 335.708,313.193 336.946,313.429 337.142 C 318.575 341.420,320.077 341.021,328.487 333.147 C 349.027 313.916,367.301 286.962,376.588 262.200 C 377.166 260.660,377.884 258.770,378.185 258.000 C 381.929 248.409,385.989 231.147,387.405 218.800 C 387.721 216.050,388.183 212.196,388.433 210.235 C 389.696 200.337,388.652 177.112,386.373 164.400 C 384.677 154.935,384.038 152.186,380.985 141.200 C 379.752 136.762,374.396 122.283,372.996 119.600 C 372.709 119.050,371.185 115.939,369.610 112.686 C 368.035 109.433,365.833 105.203,364.715 103.286 C 363.598 101.369,362.480 99.440,362.232 99.000 C 359.226 93.682,353.947 86.157,347.643 78.200 C 317.858 40.608,271.083 14.308,225.592 9.574 C 223.286 9.334,219.960 8.967,218.200 8.757 C 213.672 8.219,192.579 7.985,187.800 8.420 M220.600 9.747 C 224.560 10.107,228.070 10.508,228.400 10.638 C 228.730 10.767,230.980 11.210,233.400 11.620 C 242.870 13.225,244.667 13.631,252.800 16.000 C 254.230 16.416,256.750 17.148,258.400 17.626 C 260.050 18.105,262.210 18.823,263.200 19.224 C 264.190 19.624,266.530 20.510,268.400 21.192 C 270.270 21.874,272.160 22.596,272.600 22.795 C 273.040 22.994,274.799 23.796,276.509 24.578 C 278.219 25.360,279.720 26.000,279.846 26.000 C 279.971 26.000,282.753 27.350,286.028 29.001 C 295.884 33.968,306.670 40.666,314.538 46.703 C 316.332 48.080,317.984 49.340,318.208 49.503 C 324.433 54.036,340.249 69.877,345.661 77.000 C 346.162 77.660,346.681 78.290,346.814 78.400 C 348.020 79.397,356.523 91.357,360.047 97.014 C 362.536 101.009,362.592 101.101,364.387 104.200 C 365.279 105.740,366.181 107.270,366.391 107.600 C 366.602 107.930,367.318 109.403,367.983 110.874 C 368.647 112.344,369.359 113.651,369.565 113.778 C 369.770 113.905,370.054 114.535,370.195 115.177 C 370.336 115.819,370.710 116.559,371.026 116.821 C 371.342 117.083,371.600 117.553,371.600 117.866 C 371.600 118.178,372.151 119.641,372.824 121.117 C 373.497 122.593,374.287 124.340,374.581 125.000 C 375.244 126.490,376.650 130.327,376.927 131.400 C 377.041 131.840,377.703 133.730,378.400 135.600 C 379.596 138.814,380.916 143.287,381.587 146.400 C 381.752 147.170,382.264 149.150,382.723 150.800 C 383.946 155.193,385.200 160.985,385.200 162.239 C 385.200 162.840,385.473 164.877,385.807 166.765 C 387.737 177.690,388.816 195.722,388.048 204.237 C 386.915 216.797,386.165 222.843,384.780 230.600 C 383.721 236.527,383.371 238.002,380.981 246.600 C 380.676 247.700,380.309 249.230,380.167 250.000 C 380.024 250.770,379.774 251.580,379.612 251.800 C 379.449 252.020,378.655 254.180,377.848 256.600 C 377.040 259.020,376.204 261.313,375.990 261.695 C 375.775 262.077,375.600 262.584,375.600 262.821 C 375.600 264.122,368.532 278.931,364.423 286.240 C 360.034 294.046,352.344 305.208,346.262 312.600 C 344.994 314.140,342.938 316.660,341.691 318.200 C 338.910 321.634,325.396 335.213,322.464 337.520 C 319.417 339.916,318.399 339.670,311.742 334.923 C 294.393 322.552,293.158 308.716,307.801 290.800 C 313.364 283.994,316.730 279.699,317.832 278.000 C 318.474 277.010,319.408 275.750,319.906 275.200 C 320.404 274.650,321.131 273.570,321.521 272.800 C 321.911 272.030,322.764 270.591,323.415 269.601 C 327.272 263.745,333.044 251.889,335.585 244.600 C 337.994 237.688,338.881 234.771,340.142 229.600 C 345.466 207.772,345.737 185.806,340.946 164.400 C 339.884 159.658,337.630 151.624,336.624 149.000 C 336.118 147.680,335.296 145.430,334.797 144.000 C 332.833 138.366,327.002 126.694,323.542 121.472 C 322.694 120.191,322.000 119.070,322.000 118.979 C 322.000 118.780,319.685 115.267,317.928 112.800 C 316.492 110.784,310.746 103.541,309.360 102.000 C 300.151 91.761,293.097 85.322,283.930 78.788 C 278.053 74.599,273.711 71.996,267.200 68.761 C 264.890 67.613,262.730 66.522,262.400 66.337 C 260.898 65.491,257.252 63.858,255.800 63.379 C 254.920 63.089,253.300 62.498,252.200 62.065 C 246.643 59.880,243.577 58.868,241.000 58.370 C 240.120 58.200,238.590 57.799,237.600 57.479 C 233.951 56.299,230.474 55.554,222.400 54.222 C 213.383 52.734,187.694 52.710,180.214 54.182 C 178.666 54.487,176.346 54.856,175.058 55.002 C 173.770 55.148,171.790 55.546,170.658 55.886 C 169.526 56.226,167.610 56.737,166.400 57.021 C 164.172 57.545,162.384 58.013,158.400 59.112 C 156.342 59.680,153.452 60.710,147.200 63.104 C 142.680 64.836,131.928 70.033,130.769 71.047 C 130.421 71.351,129.963 71.600,129.750 71.600 C 129.537 71.600,128.129 72.410,126.622 73.400 C 125.115 74.390,123.808 75.200,123.719 75.200 C 123.525 75.200,120.033 77.599,116.336 80.273 C 106.913 87.088,96.440 97.161,88.518 107.030 C 86.921 109.021,85.795 110.587,83.220 114.400 C 82.106 116.050,81.061 117.580,80.897 117.800 C 79.356 119.874,75.858 125.876,74.019 129.600 C 73.314 131.030,72.576 132.470,72.380 132.800 C 71.076 134.999,66.137 147.192,65.008 151.000 C 61.262 163.634,60.773 165.776,59.616 174.600 C 57.491 190.805,57.486 201.114,59.598 216.000 C 62.641 237.448,70.252 257.245,82.281 275.000 C 86.753 281.601,89.957 285.828,92.738 288.798 C 94.216 290.376,99.042 296.854,99.891 298.400 C 104.419 306.644,105.453 311.124,104.170 316.943 C 102.121 326.241,85.898 341.493,81.212 338.526 C 78.465 336.787,68.676 327.151,60.158 317.800 C 58.642 316.136,55.620 312.411,54.151 310.397 C 53.684 309.756,52.592 308.370,51.726 307.316 C 49.295 304.359,42.996 295.212,41.041 291.800 C 40.411 290.700,39.319 288.900,38.614 287.800 C 37.909 286.700,36.910 284.900,36.394 283.800 C 35.878 282.700,35.068 281.170,34.594 280.400 C 34.120 279.630,32.785 276.840,31.627 274.200 C 30.469 271.560,29.269 269.001,28.961 268.514 C 28.652 268.027,28.400 267.424,28.400 267.175 C 28.400 266.925,28.157 266.154,27.859 265.460 C 27.354 264.283,25.383 259.177,24.206 256.000 C 23.134 253.103,20.028 242.049,19.205 238.200 C 18.735 236.000,18.185 233.480,17.983 232.600 C 12.835 210.168,13.160 181.104,18.864 154.000 C 19.535 150.810,20.500 146.850,21.009 145.200 C 21.517 143.550,22.329 140.850,22.814 139.200 C 24.158 134.620,25.010 132.167,26.775 127.800 C 27.665 125.600,28.394 123.647,28.396 123.461 C 28.407 122.504,36.336 106.698,39.764 100.800 C 49.863 83.425,64.999 65.593,81.200 51.984 C 82.630 50.783,84.003 49.620,84.251 49.400 C 84.499 49.180,85.112 48.730,85.614 48.400 C 86.116 48.070,87.083 47.331,87.763 46.757 C 95.135 40.543,112.188 30.517,124.800 24.982 C 127.110 23.968,129.360 22.980,129.800 22.786 C 130.240 22.592,132.130 21.873,134.000 21.189 C 135.870 20.506,138.030 19.691,138.800 19.378 C 140.227 18.800,143.755 17.699,150.200 15.823 C 152.180 15.247,154.372 14.594,155.072 14.372 C 156.409 13.948,159.015 13.432,168.158 11.780 C 171.215 11.227,173.840 10.699,173.992 10.605 C 174.145 10.511,177.849 10.145,182.225 9.793 C 186.601 9.441,190.274 9.059,190.388 8.945 C 190.821 8.513,213.711 9.120,220.600 9.747 M186.800 84.606 C 136.406 91.313,97.627 129.425,90.146 179.600 C 89.007 187.234,89.090 204.520,90.302 212.200 C 93.121 230.074,99.161 244.668,110.649 261.366 C 111.116 262.045,113.186 264.525,115.249 266.878 C 125.669 278.762,125.134 278.115,127.836 282.108 C 144.463 306.678,139.194 337.436,115.299 355.287 C 112.656 357.262,111.400 358.456,111.400 358.994 C 111.400 359.817,117.721 363.301,124.142 366.017 C 125.714 366.681,127.540 367.485,128.200 367.802 C 128.860 368.119,129.940 368.583,130.600 368.832 C 131.260 369.082,132.970 369.729,134.400 370.270 C 140.578 372.610,149.127 375.198,150.676 375.199 C 155.059 375.201,166.881 362.415,173.605 350.400 C 176.984 344.363,181.600 331.595,181.600 328.287 C 181.600 327.717,181.905 326.023,182.277 324.525 C 183.077 321.305,183.222 305.849,182.482 302.800 C 182.241 301.810,181.847 299.380,181.605 297.400 C 181.363 295.420,180.904 292.900,180.586 291.800 C 180.268 290.700,179.727 288.720,179.384 287.400 C 177.953 281.897,177.627 280.862,176.415 278.000 C 175.716 276.350,174.992 274.513,174.805 273.917 C 174.481 272.883,174.256 272.397,172.624 269.200 C 172.231 268.430,171.269 266.540,170.485 265.000 C 169.702 263.460,168.912 262.140,168.731 262.067 C 168.549 261.993,168.400 261.767,168.400 261.564 C 168.400 260.111,160.785 249.917,152.441 240.200 C 127.700 211.388,128.530 173.371,154.450 148.127 C 160.758 141.985,174.735 133.200,178.202 133.200 C 178.559 133.200,179.695 132.862,180.726 132.449 C 186.455 130.154,197.051 128.993,206.585 129.615 C 247.147 132.260,275.755 171.781,265.757 211.357 C 262.887 222.717,258.077 231.054,247.613 242.800 C 238.434 253.105,229.242 267.376,227.004 274.800 C 226.838 275.350,226.563 275.980,226.393 276.200 C 226.223 276.420,225.354 278.890,224.462 281.689 C 213.672 315.542,219.990 346.404,242.245 368.567 C 248.871 375.165,250.716 376.052,254.906 374.652 C 256.498 374.120,259.510 373.133,261.600 372.460 C 270.861 369.474,287.111 362.377,290.099 360.013 C 291.519 358.890,291.148 358.140,288.211 356.190 C 272.420 345.708,263.253 326.343,265.135 307.439 C 266.526 293.472,272.357 282.611,286.632 267.400 C 292.364 261.292,302.010 245.437,305.005 237.200 C 309.344 225.268,309.998 222.874,311.832 212.200 C 313.052 205.095,313.565 191.760,312.847 185.800 C 311.706 176.342,310.659 170.737,308.920 164.800 C 297.361 125.324,266.064 95.591,226.610 86.605 C 216.005 84.190,197.072 83.239,186.800 84.606 M214.000 85.447 C 220.108 86.184,228.562 87.787,231.800 88.822 C 240.402 91.572,243.102 92.551,246.600 94.189 C 247.700 94.704,249.590 95.581,250.800 96.139 C 269.289 104.660,288.850 123.340,298.422 141.615 C 299.204 143.108,300.025 144.571,300.247 144.865 C 300.469 145.159,301.597 147.560,302.754 150.200 C 303.912 152.840,305.023 155.360,305.223 155.800 C 305.424 156.240,306.142 158.400,306.820 160.600 C 307.498 162.800,308.308 165.230,308.620 166.000 C 308.932 166.770,309.361 168.526,309.572 169.903 C 309.784 171.280,310.064 172.580,310.196 172.793 C 310.412 173.143,311.039 177.717,312.006 186.000 C 312.480 190.050,312.482 200.659,312.012 204.600 C 309.955 221.813,307.894 229.467,301.780 242.600 C 301.473 243.260,301.034 244.250,300.806 244.800 C 300.577 245.350,300.006 246.430,299.538 247.200 C 299.069 247.970,298.216 249.474,297.643 250.541 C 296.496 252.676,296.494 252.680,294.099 256.400 C 293.178 257.830,292.182 259.270,291.886 259.600 C 291.590 259.930,289.978 261.910,288.304 264.000 C 286.630 266.090,283.727 269.472,281.854 271.515 C 270.335 284.080,265.395 294.704,263.867 310.200 C 263.202 316.941,265.759 328.358,269.689 336.200 C 273.956 344.715,278.702 350.199,287.400 356.668 C 289.819 358.466,290.115 358.863,289.486 359.462 C 288.886 360.032,281.257 363.835,277.200 365.586 C 275.550 366.298,273.850 367.066,273.423 367.292 C 272.996 367.518,270.706 368.395,268.335 369.241 C 265.963 370.087,263.703 370.938,263.311 371.132 C 262.586 371.491,259.810 372.381,254.336 374.008 L 251.272 374.918 249.536 373.894 C 239.242 367.820,227.024 349.131,222.409 332.400 C 217.856 315.895,220.258 292.516,228.448 273.634 C 230.684 268.479,230.765 268.310,233.205 263.800 C 236.284 258.109,241.565 250.758,246.997 244.600 C 247.579 243.940,248.448 242.946,248.928 242.391 C 249.408 241.836,250.898 240.126,252.240 238.591 C 277.779 209.379,272.815 164.801,241.441 141.631 C 227.785 131.544,212.402 127.453,194.000 129.014 C 187.286 129.584,185.491 129.988,177.200 132.793 C 172.288 134.455,162.000 139.913,162.000 140.857 C 162.000 141.046,161.794 141.200,161.541 141.200 C 161.125 141.200,159.471 142.442,156.216 145.198 C 145.240 154.492,136.906 169.641,134.522 184.634 C 132.752 195.764,134.328 210.698,138.190 219.399 C 138.483 220.060,139.200 221.680,139.783 223.000 C 142.521 229.193,147.049 235.585,154.645 243.982 C 163.427 253.689,171.373 266.371,175.198 276.782 C 175.881 278.643,176.676 280.713,176.964 281.382 C 178.866 285.803,181.234 298.066,182.439 309.739 C 182.982 315.004,181.883 324.950,179.991 331.904 C 179.556 333.502,179.199 335.122,179.198 335.504 C 179.196 335.887,178.943 336.683,178.635 337.273 C 178.327 337.863,177.948 338.943,177.792 339.673 C 177.635 340.403,177.364 341.180,177.189 341.400 C 177.013 341.620,176.212 343.297,175.408 345.126 C 171.251 354.585,161.823 366.906,154.400 372.579 C 151.456 374.829,151.192 374.892,148.301 374.022 C 146.925 373.608,145.203 373.147,144.473 372.997 C 143.743 372.847,142.663 372.473,142.073 372.165 C 141.483 371.857,140.635 371.604,140.189 371.602 C 139.743 371.601,139.023 371.357,138.589 371.060 C 138.155 370.763,136.000 369.923,133.800 369.193 C 131.600 368.464,129.516 367.627,129.169 367.334 C 128.821 367.040,128.351 366.800,128.124 366.800 C 126.790 366.800,112.400 359.602,112.400 358.934 C 112.400 358.661,112.853 358.114,113.407 357.719 C 125.878 348.816,133.462 338.294,136.777 325.293 C 141.530 306.657,135.918 288.368,120.252 271.437 C 111.288 261.749,105.761 253.887,101.469 244.721 C 100.685 243.045,99.853 241.556,99.621 241.413 C 99.390 241.270,99.200 240.753,99.200 240.265 C 99.200 239.777,98.954 239.023,98.654 238.589 C 98.354 238.155,97.978 237.350,97.819 236.800 C 97.532 235.803,95.465 230.120,94.837 228.600 C 94.655 228.160,94.103 226.000,93.611 223.800 C 93.118 221.600,92.470 218.810,92.171 217.600 C 88.987 204.730,89.236 185.969,92.798 170.400 C 94.346 163.633,94.763 162.147,96.000 159.000 C 96.692 157.240,97.431 155.224,97.642 154.520 C 97.854 153.816,98.289 152.736,98.611 152.120 C 98.932 151.504,99.196 150.721,99.198 150.380 C 99.199 150.039,99.369 149.589,99.574 149.380 C 99.780 149.171,100.960 147.020,102.195 144.600 C 108.514 132.225,117.724 120.277,126.630 112.899 C 137.610 103.803,142.987 100.214,152.287 95.770 C 159.560 92.295,170.096 88.524,174.600 87.784 C 175.480 87.639,177.190 87.278,178.400 86.982 C 187.818 84.673,202.384 84.045,214.000 85.447 M193.600 160.985 C 168.083 166.451,156.178 195.474,170.448 217.422 C 187.091 243.019,227.043 237.353,236.181 208.101 C 244.492 181.497,220.708 155.179,193.600 160.985 M207.853 161.796 C 214.576 162.886,224.050 168.094,227.642 172.673 C 228.301 173.513,229.059 174.380,229.326 174.600 C 230.230 175.345,231.527 177.488,233.682 181.800 C 242.094 198.626,234.464 220.828,217.416 229.132 C 209.242 233.113,198.894 234.338,192.498 232.082 C 191.123 231.597,189.821 231.200,189.606 231.200 C 188.604 231.200,181.939 227.664,179.397 225.785 C 175.032 222.556,168.400 214.482,168.400 212.395 C 168.400 212.046,168.241 211.589,168.047 211.380 C 165.359 208.484,164.242 194.067,166.221 187.800 C 172.255 168.689,188.353 158.633,207.853 161.796 " stroke="none" fill="#ecaca4" fill-rule="evenodd"></path><path id="path4" d="M200.500 7.876 C 200.885 7.976,201.515 7.976,201.900 7.876 C 202.285 7.775,201.970 7.693,201.200 7.693 C 200.430 7.693,200.115 7.775,200.500 7.876 M189.100 8.282 C 189.595 8.378,190.405 8.378,190.900 8.282 C 191.395 8.187,190.990 8.109,190.000 8.109 C 189.010 8.109,188.605 8.187,189.100 8.282 M211.305 8.287 C 211.914 8.379,212.814 8.377,213.305 8.282 C 213.797 8.187,213.300 8.111,212.200 8.114 C 211.100 8.117,210.697 8.195,211.305 8.287 M184.305 8.683 C 184.802 8.779,185.522 8.775,185.905 8.675 C 186.287 8.575,185.880 8.496,185.000 8.501 C 184.120 8.505,183.807 8.587,184.305 8.683 M216.705 8.683 C 217.202 8.779,217.922 8.775,218.305 8.675 C 218.687 8.575,218.280 8.496,217.400 8.501 C 216.520 8.505,216.207 8.587,216.705 8.683 M123.600 24.200 C 123.050 24.514,122.780 24.772,123.000 24.772 C 123.220 24.772,123.850 24.514,124.400 24.200 C 124.950 23.886,125.220 23.628,125.000 23.628 C 124.780 23.628,124.150 23.886,123.600 24.200 M80.575 51.300 L 79.400 52.600 80.700 51.425 C 81.415 50.779,82.000 50.194,82.000 50.125 C 82.000 49.816,81.670 50.088,80.575 51.300 M191.305 53.887 C 191.914 53.979,192.814 53.977,193.305 53.882 C 193.797 53.787,193.300 53.711,192.200 53.714 C 191.100 53.717,190.697 53.795,191.305 53.887 M209.305 53.887 C 209.914 53.979,210.814 53.977,211.305 53.882 C 211.797 53.787,211.300 53.711,210.200 53.714 C 209.100 53.717,208.697 53.795,209.305 53.887 M329.400 58.400 C 330.706 59.720,331.865 60.800,331.975 60.800 C 332.085 60.800,331.106 59.720,329.800 58.400 C 328.494 57.080,327.335 56.000,327.225 56.000 C 327.115 56.000,328.094 57.080,329.400 58.400 M337.600 66.600 C 339.017 68.030,340.267 69.200,340.377 69.200 C 340.487 69.200,339.417 68.030,338.000 66.600 C 336.583 65.170,335.333 64.000,335.223 64.000 C 335.113 64.000,336.183 65.170,337.600 66.600 M61.781 69.300 L 60.200 71.000 61.900 69.419 C 62.835 68.549,63.600 67.784,63.600 67.719 C 63.600 67.416,63.252 67.719,61.781 69.300 M341.200 70.525 C 341.200 70.594,341.785 71.179,342.500 71.825 L 343.800 73.000 342.625 71.700 C 341.530 70.488,341.200 70.216,341.200 70.525 M197.500 83.898 C 199.535 83.971,202.865 83.971,204.900 83.898 C 206.935 83.825,205.270 83.766,201.200 83.766 C 197.130 83.766,195.465 83.825,197.500 83.898 M188.900 84.276 C 189.285 84.376,189.915 84.376,190.300 84.276 C 190.685 84.175,190.370 84.093,189.600 84.093 C 188.830 84.093,188.515 84.175,188.900 84.276 M211.700 84.276 C 212.085 84.376,212.715 84.376,213.100 84.276 C 213.485 84.175,213.170 84.093,212.400 84.093 C 211.630 84.093,211.315 84.175,211.700 84.276 M295.200 88.925 C 295.200 88.994,295.785 89.579,296.500 90.225 L 297.800 91.400 296.625 90.100 C 295.530 88.888,295.200 88.616,295.200 88.925 M103.775 91.700 L 102.600 93.000 103.900 91.825 C 105.112 90.730,105.384 90.400,105.075 90.400 C 105.006 90.400,104.421 90.985,103.775 91.700 M300.800 94.200 C 301.546 94.970,302.247 95.600,302.357 95.600 C 302.467 95.600,301.946 94.970,301.200 94.200 C 300.454 93.430,299.753 92.800,299.643 92.800 C 299.533 92.800,300.054 93.430,300.800 94.200 M249.633 94.549 C 250.045 94.917,252.400 96.000,252.400 95.821 C 252.400 95.590,250.182 94.400,249.753 94.400 C 249.596 94.400,249.542 94.467,249.633 94.549 M97.200 98.200 C 96.228 99.190,95.523 100.000,95.633 100.000 C 95.743 100.000,96.628 99.190,97.600 98.200 C 98.572 97.210,99.277 96.400,99.167 96.400 C 99.057 96.400,98.172 97.210,97.200 98.200 M306.000 99.725 C 306.000 99.794,306.585 100.379,307.300 101.025 L 308.600 102.200 307.425 100.900 C 306.330 99.688,306.000 99.416,306.000 99.725 M275.200 111.325 C 275.200 111.394,275.785 111.979,276.500 112.625 L 277.800 113.800 276.625 112.500 C 275.530 111.288,275.200 111.016,275.200 111.325 M121.186 116.700 L 119.000 119.000 121.300 116.814 C 123.437 114.782,123.783 114.400,123.486 114.400 C 123.424 114.400,122.389 115.435,121.186 116.700 M200.105 129.487 C 200.714 129.579,201.614 129.577,202.105 129.482 C 202.597 129.387,202.100 129.311,201.000 129.314 C 199.900 129.317,199.497 129.395,200.105 129.487 M207.700 129.876 C 208.085 129.976,208.715 129.976,209.100 129.876 C 209.485 129.775,209.170 129.693,208.400 129.693 C 207.630 129.693,207.315 129.775,207.700 129.876 M68.865 142.617 C 68.195 144.088,68.323 144.402,69.047 143.065 C 69.386 142.440,69.588 141.854,69.496 141.763 C 69.405 141.671,69.121 142.056,68.865 142.617 M246.783 147.300 C 247.764 148.345,248.619 149.200,248.683 149.200 C 248.984 149.200,248.666 148.841,246.900 147.183 L 245.000 145.400 246.783 147.300 M249.200 149.725 C 249.200 149.794,249.785 150.379,250.500 151.025 L 251.800 152.200 250.625 150.900 C 249.530 149.688,249.200 149.416,249.200 149.725 M199.300 160.294 C 200.345 160.376,202.055 160.376,203.100 160.294 C 204.145 160.212,203.290 160.144,201.200 160.144 C 199.110 160.144,198.255 160.212,199.300 160.294 M176.175 169.700 L 175.000 171.000 176.300 169.825 C 177.512 168.730,177.784 168.400,177.475 168.400 C 177.406 168.400,176.821 168.985,176.175 169.700 M13.701 180.600 C 13.705 181.480,13.787 181.793,13.883 181.295 C 13.979 180.798,13.975 180.078,13.875 179.695 C 13.775 179.313,13.696 179.720,13.701 180.600 M342.493 180.400 C 342.493 181.170,342.575 181.485,342.676 181.100 C 342.776 180.715,342.776 180.085,342.676 179.700 C 342.575 179.315,342.493 179.630,342.493 180.400 M89.293 184.800 C 89.293 185.570,89.375 185.885,89.476 185.500 C 89.576 185.115,89.576 184.485,89.476 184.100 C 89.375 183.715,89.293 184.030,89.293 184.800 M59.293 186.000 C 59.293 186.770,59.375 187.085,59.476 186.700 C 59.576 186.315,59.576 185.685,59.476 185.300 C 59.375 184.915,59.293 185.230,59.293 186.000 M312.893 186.000 C 312.893 186.770,312.975 187.085,313.076 186.700 C 313.176 186.315,313.176 185.685,313.076 185.300 C 312.975 184.915,312.893 185.230,312.893 186.000 M342.914 186.600 C 342.917 187.700,342.995 188.103,343.087 187.495 C 343.179 186.886,343.177 185.986,343.082 185.495 C 342.987 185.003,342.911 185.500,342.914 186.600 M13.373 195.400 C 13.373 200.900,13.430 203.205,13.499 200.523 C 13.568 197.841,13.568 193.341,13.499 190.523 C 13.430 187.705,13.374 189.900,13.373 195.400 M388.946 189.400 C 388.947 191.600,389.014 192.449,389.095 191.287 C 389.176 190.124,389.176 188.324,389.093 187.287 C 389.011 186.249,388.945 187.200,388.946 189.400 M134.893 188.800 C 134.893 189.570,134.975 189.885,135.076 189.500 C 135.176 189.115,135.176 188.485,135.076 188.100 C 134.975 187.715,134.893 188.030,134.893 188.800 M267.309 190.400 C 267.309 191.390,267.387 191.795,267.482 191.300 C 267.578 190.805,267.578 189.995,267.482 189.500 C 267.387 189.005,267.309 189.410,267.309 190.400 M88.961 195.200 C 88.961 198.610,89.022 200.005,89.097 198.300 C 89.172 196.595,89.172 193.805,89.097 192.100 C 89.022 190.395,88.961 191.790,88.961 195.200 M58.957 195.600 C 58.957 198.570,59.020 199.785,59.097 198.300 C 59.174 196.815,59.174 194.385,59.097 192.900 C 59.020 191.415,58.957 192.630,58.957 195.600 M134.528 195.200 C 134.528 196.630,134.601 197.215,134.689 196.500 C 134.778 195.785,134.778 194.615,134.689 193.900 C 134.601 193.185,134.528 193.770,134.528 195.200 M343.334 195.600 C 343.334 197.250,343.405 197.925,343.491 197.100 C 343.578 196.275,343.578 194.925,343.491 194.100 C 343.405 193.275,343.334 193.950,343.334 195.600 M164.131 197.000 C 164.133 198.540,164.205 199.121,164.292 198.291 C 164.379 197.461,164.377 196.201,164.289 195.491 C 164.200 194.781,164.129 195.460,164.131 197.000 M388.942 201.400 C 388.941 203.380,389.008 204.240,389.092 203.312 C 389.176 202.384,389.177 200.764,389.095 199.712 C 389.012 198.660,388.943 199.420,388.942 201.400 M267.314 200.200 C 267.317 201.300,267.395 201.703,267.487 201.095 C 267.579 200.486,267.577 199.586,267.482 199.095 C 267.387 198.603,267.311 199.100,267.314 200.200 M342.914 204.200 C 342.917 205.300,342.995 205.703,343.087 205.095 C 343.179 204.486,343.177 203.586,343.082 203.095 C 342.987 202.603,342.911 203.100,342.914 204.200 M59.301 204.600 C 59.305 205.480,59.387 205.793,59.483 205.295 C 59.579 204.798,59.575 204.078,59.475 203.695 C 59.375 203.313,59.296 203.720,59.301 204.600 M13.709 210.400 C 13.709 211.390,13.787 211.795,13.882 211.300 C 13.978 210.805,13.978 209.995,13.882 209.500 C 13.787 209.005,13.709 209.410,13.709 210.400 M227.200 223.000 C 226.228 223.990,225.523 224.800,225.633 224.800 C 225.743 224.800,226.628 223.990,227.600 223.000 C 228.572 222.010,229.277 221.200,229.167 221.200 C 229.057 221.200,228.172 222.010,227.200 223.000 M197.500 233.882 C 197.995 233.978,198.805 233.978,199.300 233.882 C 199.795 233.787,199.390 233.709,198.400 233.709 C 197.410 233.709,197.005 233.787,197.500 233.882 M203.105 233.883 C 203.602 233.979,204.322 233.975,204.705 233.875 C 205.087 233.775,204.680 233.696,203.800 233.701 C 202.920 233.705,202.607 233.787,203.105 233.883 M284.581 269.700 L 283.000 271.400 284.700 269.819 C 285.635 268.949,286.400 268.184,286.400 268.119 C 286.400 267.816,286.052 268.119,284.581 269.700 M119.800 272.400 C 120.659 273.280,121.452 274.000,121.562 274.000 C 121.672 274.000,121.059 273.280,120.200 272.400 C 119.341 271.520,118.548 270.800,118.438 270.800 C 118.328 270.800,118.941 271.520,119.800 272.400 M175.478 275.795 C 175.844 276.562,176.214 277.119,176.301 277.032 C 176.484 276.849,175.270 274.400,174.996 274.400 C 174.895 274.400,175.112 275.028,175.478 275.795 M219.309 306.400 C 219.309 307.390,219.387 307.795,219.482 307.300 C 219.578 306.805,219.578 305.995,219.482 305.500 C 219.387 305.005,219.309 305.410,219.309 306.400 M182.901 307.400 C 182.905 308.280,182.987 308.593,183.083 308.095 C 183.179 307.598,183.175 306.878,183.075 306.495 C 182.975 306.113,182.896 306.520,182.901 307.400 M297.029 308.629 C 296.881 309.215,296.838 309.772,296.932 309.866 C 297.027 309.960,297.224 309.558,297.371 308.971 C 297.519 308.385,297.562 307.828,297.468 307.734 C 297.373 307.640,297.176 308.042,297.029 308.629 M264.946 312.200 C 264.947 314.400,265.014 315.249,265.095 314.087 C 265.176 312.924,265.176 311.124,265.093 310.087 C 265.011 309.049,264.945 310.000,264.946 312.200 M137.344 312.400 C 137.344 314.490,137.412 315.345,137.494 314.300 C 137.576 313.255,137.576 311.545,137.494 310.500 C 137.412 309.455,137.344 310.310,137.344 312.400 M105.334 312.800 C 105.334 314.450,105.405 315.125,105.491 314.300 C 105.578 313.475,105.578 312.125,105.491 311.300 C 105.405 310.475,105.334 311.150,105.334 312.800 M218.928 313.600 C 218.928 315.030,219.001 315.615,219.089 314.900 C 219.178 314.185,219.178 313.015,219.089 312.300 C 219.001 311.585,218.928 312.170,218.928 313.600 M296.509 313.200 C 296.509 314.190,296.587 314.595,296.682 314.100 C 296.778 313.605,296.778 312.795,296.682 312.300 C 296.587 311.805,296.509 312.210,296.509 313.200 M182.901 319.800 C 182.905 320.680,182.987 320.993,183.083 320.495 C 183.179 319.998,183.175 319.278,183.075 318.895 C 182.975 318.513,182.896 318.920,182.901 319.800 M341.375 319.700 L 340.200 321.000 341.500 319.825 C 342.215 319.179,342.800 318.594,342.800 318.525 C 342.800 318.216,342.470 318.488,341.375 319.700 M219.301 320.600 C 219.305 321.480,219.387 321.793,219.483 321.295 C 219.579 320.798,219.575 320.078,219.475 319.695 C 219.375 319.313,219.296 319.720,219.301 320.600 M337.781 323.700 L 336.200 325.400 337.900 323.819 C 338.835 322.949,339.600 322.184,339.600 322.119 C 339.600 321.816,339.252 322.119,337.781 323.700 M69.600 329.400 C 71.681 331.490,73.474 333.200,73.584 333.200 C 73.694 333.200,72.081 331.490,70.000 329.400 C 67.919 327.310,66.126 325.600,66.016 325.600 C 65.906 325.600,67.519 327.310,69.600 329.400 M269.236 333.400 C 269.236 333.620,269.670 334.610,270.200 335.600 C 270.730 336.590,271.164 337.220,271.164 337.000 C 271.164 336.780,270.730 335.790,270.200 334.800 C 269.670 333.810,269.236 333.180,269.236 333.400 M326.175 335.300 L 325.000 336.600 326.300 335.425 C 327.015 334.779,327.600 334.194,327.600 334.125 C 327.600 333.816,327.270 334.088,326.175 335.300 M77.000 336.400 C 77.859 337.280,78.652 338.000,78.762 338.000 C 78.872 338.000,78.259 337.280,77.400 336.400 C 76.541 335.520,75.748 334.800,75.638 334.800 C 75.528 334.800,76.141 335.520,77.000 336.400 M80.487 339.300 C 81.106 339.905,82.015 340.385,82.506 340.366 C 83.261 340.337,83.221 340.278,82.248 339.986 C 81.614 339.796,80.705 339.317,80.228 338.921 C 79.752 338.524,79.868 338.695,80.487 339.300 M318.000 339.994 C 318.330 340.211,319.035 340.391,319.567 340.394 C 320.851 340.402,320.525 340.175,318.800 339.858 C 317.815 339.677,317.578 339.718,318.000 339.994 M280.000 349.400 C 281.195 350.610,282.263 351.600,282.373 351.600 C 282.483 351.600,281.595 350.610,280.400 349.400 C 279.205 348.190,278.137 347.200,278.027 347.200 C 277.917 347.200,278.805 348.190,280.000 349.400 M121.775 349.700 L 120.600 351.000 121.900 349.825 C 123.112 348.730,123.384 348.400,123.075 348.400 C 123.006 348.400,122.421 348.985,121.775 349.700 M239.600 366.200 C 240.346 366.970,241.047 367.600,241.157 367.600 C 241.267 367.600,240.746 366.970,240.000 366.200 C 239.254 365.430,238.553 364.800,238.443 364.800 C 238.333 364.800,238.854 365.430,239.600 366.200 M159.381 369.300 L 157.800 371.000 159.500 369.419 C 161.081 367.948,161.384 367.600,161.081 367.600 C 161.016 367.600,160.251 368.365,159.381 369.300 M149.905 375.483 C 150.402 375.579,151.122 375.575,151.505 375.475 C 151.887 375.375,151.480 375.296,150.600 375.301 C 149.720 375.305,149.407 375.387,149.905 375.483 " stroke="none" fill="#ecacac" fill-rule="evenodd"></path></g></svg>