<?xml version="1.0"?>
<!-- <svg xmlns="http://www.w3.org/2000/svg" role="img" viewBox="-8.59 -8.09 628.68 516.68"> -->
<svg xmlns="http://www.w3.org/2000/svg" role="img" viewBox="180 -10 420 355">
  <title>CoreDNS logo modified to remove CoreDNS text and changed viewBox</title>
  <style>svg {enable-background:new 0 0 612 502.5}</style>
  <style>.st6{fill:#fff}.st7{fill:#2c256c}.st8{fill:#5b2d82}.st14{fill:#623393}</style>
  <path fill="url(#SVGID_1_)" d="M229.7 170.7c-2.5 2.5-4.6 5.3-6.1 8.3 1.6-2.9 3.6-5.8 6.1-8.3z"/>
  <linearGradient id="SVGID_2_" x1="1565.793" x2="1821.812" y1="-3473.359" y2="-3473.359" gradientTransform="rotate(-45.001 5375.107 29.71)" gradientUnits="userSpaceOnUse">
    <stop offset="0" stop-color="#623393"/>
    <stop offset=".574" stop-color="#452b7c"/>
    <stop offset="1" stop-color="#2c256c"/>
  </linearGradient>
  <path fill="url(#SVGID_2_)" d="M333.7 97.1c4.7 0 9.4 1.8 13 5.4l10.7 10.7-10.7-10.7c-3.6-3.6-8.3-5.4-13-5.4z"/>
  <linearGradient id="SVGID_3_" x1="1565.793" x2="1821.812" y1="-3521.966" y2="-3521.966" gradientTransform="rotate(-45.001 5375.107 29.71)" gradientUnits="userSpaceOnUse">
    <stop offset="0" stop-color="#754fa0"/>
    <stop offset=".181" stop-color="#6e4a99"/>
    <stop offset=".457" stop-color="#5c3f8b"/>
    <stop offset=".791" stop-color="#413079"/>
    <stop offset="1" stop-color="#2c256c"/>
  </linearGradient>
  <path fill="url(#SVGID_3_)" d="M229.7 110c11.8-11.8 31.1-11.9 42.9 0l8.9 8.9 27.8-27.8c13.5-13.5 35.3-13.5 48.8 0l10.7 10.7 26.7-26.7L337.3 17C320.5.2 293.1.2 276.4 17L156.3 137.1c-14.2 14.2-16.3 36.2-6.4 52.7l.4-.4 79.4-79.4z"/>
  <linearGradient id="SVGID_4_" x1="1565.793" x2="1821.812" y1="-3400.318" y2="-3400.318" gradientTransform="rotate(-45.001 5375.107 29.71)" gradientUnits="userSpaceOnUse">
    <stop offset="0" stop-color="#754fa0"/>
    <stop offset=".181" stop-color="#6e4a99"/>
    <stop offset=".457" stop-color="#5c3f8b"/>
    <stop offset=".791" stop-color="#413079"/>
    <stop offset="1" stop-color="#2c256c"/>
  </linearGradient>
  <path fill="url(#SVGID_4_)" d="M386.5 214.5c-11.9 11.9-31.1 11.8-42.9 0L333 203.9l-35 35c-13.5 13.5-35.3 13.5-48.8 0l-9-9-26 26 53.5 53.5c16.8 16.8 44.2 16.8 60.9 0l120.1-120.1c12.5-12.5 15.7-31 9.5-46.5l-3.9 3.9-67.8 67.8z"/>
  <path d="M286.6 227.6c-1.8 1.8-3.9 3.1-6.1 4-2.2.9-4.6 1.3-6.9 1.3-4.7 0-9.4-1.8-13-5.4l-9-9-10.4-10.4c-3.6-3.6-5.4-8.3-5.4-13 0-2.4.5-4.7 1.3-6.9.9-2.2 2.2-4.3 4-6.1l51.8-51.8 27.8-27.8c2.7-2.7 6-4.4 9.5-5.1 1.2-.2 2.3-.3 3.5-.3 4.7 0 9.4 1.8 13 5.4l10.7 10.7 11.4-11.4-10.7-10.7c-13.5-13.5-35.3-13.5-48.8 0l-27.8 27.8-51.8 51.8c-2.5 2.5-4.6 5.3-6.1 8.3-.5 1-1 2-1.4 3.1-3.8 9.3-3.3 20 1.4 29 1.6 3 3.6 5.8 6.1 8.3l10.4 10.4 9 9c13.5 13.5 35.3 13.5 48.8 0l35-35-11.4-11.4-34.9 35.2z" class="st6"/>
  <path d="M454.3 146.7l3.9-3.9c-1.4-3.6-3.4-7-5.8-10.1.9 4.6 1.5 9.3 1.9 14z" class="st7"/>
  <path d="M150.3 189.4l-.4.4c.2.4.5.8.7 1.2-.1-.5-.2-1.1-.3-1.6z" class="st8"/>
  <linearGradient id="SVGID_5_" x1="1565.793" x2="1821.812" y1="-3460.657" y2="-3460.657" gradientTransform="rotate(-45.001 5375.107 29.71)" gradientUnits="userSpaceOnUse">
    <stop offset="0" stop-color="#623393"/>
    <stop offset=".574" stop-color="#452b7c"/>
    <stop offset="1" stop-color="#2c256c"/>
  </linearGradient>
  <path fill="url(#SVGID_5_)" d="M321.3 149.3l36.1-36.1-10.7-10.7c-3.6-3.6-8.3-5.4-13-5.4-1.2 0-2.4.1-3.5.3-3.5.7-6.8 2.4-9.5 5.1l-27.8 27.8 2 2c11.8 11.8 11.8 31.1 0 42.9l-43.4 43.4 9 9c3.6 3.6 8.3 5.4 13 5.4 2.4 0 4.7-.5 6.9-1.3 2.2-.9 4.3-2.2 6.1-4l35-35-.3-.3c-11.8-12-11.8-31.2.1-43.1z"/>
  <linearGradient id="SVGID_6_" x1="1541.522" x2="1848.991" y1="-3460.657" y2="-3460.657" gradientTransform="rotate(-45.001 5375.107 29.71)" gradientUnits="userSpaceOnUse">
    <stop offset="0" stop-color="#754fa0"/>
    <stop offset=".181" stop-color="#6e4a99"/>
    <stop offset=".457" stop-color="#5c3f8b"/>
    <stop offset=".791" stop-color="#413079"/>
    <stop offset="1" stop-color="#2c256c"/>
  </linearGradient>
  <path fill="url(#SVGID_6_)" d="M321.3 149.3l36.1-36.1-10.7-10.7c-3.6-3.6-8.3-5.4-13-5.4-1.2 0-2.4.1-3.5.3-3.5.7-6.8 2.4-9.5 5.1l-27.8 27.8 2 2c11.8 11.8 11.8 31.1 0 42.9l-43.4 43.4 9 9c3.6 3.6 8.3 5.4 13 5.4 2.4 0 4.7-.5 6.9-1.3 2.2-.9 4.3-2.2 6.1-4l35-35-.3-.3c-11.8-12-11.8-31.2.1-43.1z"/>
  <path d="M286.6 227.6c-1.8 1.8-3.9 3.1-6.1 4 2.2-.9 4.3-2.2 6.1-4z" class="st6"/>
  <linearGradient id="SVGID_7_" x1="1541.522" x2="1848.991" y1="-3429.216" y2="-3429.216" gradientTransform="rotate(-45.001 5375.107 29.71)" gradientUnits="userSpaceOnUse">
    <stop offset="0" stop-color="#623393"/>
    <stop offset=".574" stop-color="#452b7c"/>
    <stop offset="1" stop-color="#2c256c"/>
  </linearGradient>
  <path fill="url(#SVGID_7_)" d="M286.6 227.6c-1.8 1.8-3.9 3.1-6.1 4 2.2-.9 4.3-2.2 6.1-4z"/>
  <path d="M251.5 218.6l9 9-9-9z" class="st6"/>
  <linearGradient id="SVGID_8_" x1="1541.522" x2="1848.991" y1="-3446.784" y2="-3446.784" gradientTransform="rotate(-45.001 5375.107 29.71)" gradientUnits="userSpaceOnUse">
    <stop offset="0" stop-color="#623393"/>
    <stop offset=".574" stop-color="#452b7c"/>
    <stop offset="1" stop-color="#2c256c"/>
  </linearGradient>
  <path fill="url(#SVGID_8_)" d="M251.5 218.6l9 9-9-9z"/>
  <path d="M320.7 102.5c2.7-2.7 6-4.4 9.5-5.1-3.5.8-6.8 2.4-9.5 5.1z" class="st6"/>
  <linearGradient id="SVGID_9_" x1="1541.522" x2="1848.991" y1="-3491.248" y2="-3491.248" gradientTransform="rotate(-45.001 5375.107 29.71)" gradientUnits="userSpaceOnUse">
    <stop offset="0" stop-color="#623393"/>
    <stop offset=".574" stop-color="#452b7c"/>
    <stop offset="1" stop-color="#2c256c"/>
  </linearGradient>
  <path fill="url(#SVGID_9_)" d="M320.7 102.5c2.7-2.7 6-4.4 9.5-5.1-3.5.8-6.8 2.4-9.5 5.1z"/>
  <path d="M156.3 198c-2.2-2.2-4-4.5-5.7-7-.3-.4-.5-.8-.7-1.2l-11.4 11.4c-11.9 11.9-11.9 31.1 0 42.9l22.3 22.3c9.6 9.6 23.9 11.4 35.3 5.5 2.7-1.4 5.3-3.2 7.6-5.5l7.1-7.1 2.5-2.5.9-.9-57.9-57.9z" class="st7"/>
  <path d="M229.7 219.5c-2.5-2.5-4.6-5.3-6.1-8.3-4.7-9-5.2-19.7-1.4-29 .4-1 .9-2.1 1.4-3.1 1.6-3 3.6-5.8 6.1-8.3l51.8-51.8-8.9-8.9c-11.9-11.9-31.1-11.8-42.9 0l-79.4 79.4c.1.5.2 1.1.3 1.6 1.6 2.5 3.5 4.8 5.7 7l57.9 57.9 26-26-10.5-10.5z" class="st8"/>
  <path d="M222.2 182.1c-3.8 9.3-3.3 20 1.4 29-4.7-8.9-5.2-19.6-1.4-29zm29.3 36.5l43.4-43.4c11.8-11.8 11.8-31.1 0-42.9l-2-2-51.8 51.8c-1.8 1.8-3.1 3.9-4 6.1-.9 2.2-1.3 4.6-1.3 6.9 0 4.7 1.8 9.4 5.4 13l10.3 10.5z" class="st8"/>
  <path d="M241.1 208.1c-3.6-3.6-5.4-8.3-5.4-13 0 4.7 1.8 9.5 5.4 13l10.4 10.4-10.4-10.4zm0-26c-1.8 1.8-3.1 3.9-4 6.1.9-2.2 2.2-4.3 4-6.1z" class="st8"/>
  <path d="M357.4 113.2l-36.1 36.1c-11.9 11.9-11.9 31.1 0 42.9l.3.3 44.5-44.5c2.7-2.7 4.4-6 5.1-9.5.2-1.2.3-2.3.3-3.5 0-4.7-1.8-9.4-5.4-13l-8.7-8.8z" class="st7"/>
  <path d="M366.2 148c2.7-2.7 4.4-6 5.1-9.5-.8 3.5-2.5 6.8-5.1 9.5z" class="st7"/>
  <path d="M366.2 122c3.6 3.6 5.4 8.3 5.4 13-.1-4.7-1.8-9.4-5.4-13l-8.8-8.8 8.8 8.8zm11.3 37.4z" class="st14"/>
  <path d="M385.1 148c.4-1 .8-2.1 1.1-3.2 3.5-11.7.6-25-8.7-34.2l-8.8-8.8-11.4 11.4 8.8 8.8c3.6 3.6 5.4 8.3 5.4 13 0 1.2-.1 2.4-.3 3.5-.7 3.5-2.4 6.8-5.1 9.5l-44.5 44.5 11.4 11.4 44.5-44.5c3.4-3.4 5.9-7.3 7.6-11.4zm92.6-67.6l-22.3-22.3c-11.1-11.1-28.8-11.8-40.7-2-.8.6-1.5 1.3-2.2 2l-14.4 14.4-2.5 2.5-.1.1 53.2 53.2c1.4 1.4 2.6 2.8 3.7 4.4 2.4 3.1 4.3 6.5 5.8 10.1l19.5-19.5c11.8-11.8 11.8-31 0-42.9z" class="st14"/>
  <path d="M377.5 110.6c9.3 9.3 12.1 22.5 8.7 34.2-.3 1.1-.7 2.1-1.1 3.2-1.7 4.2-4.2 8-7.6 11.4L333 203.9l10.6 10.6c11.9 11.9 31.1 11.9 42.9 0l67.8-67.8c-.4-4.7-1-9.4-1.9-14-1.1-1.5-2.4-3-3.7-4.4l-53.2-53.2-26.7 26.7 8.7 8.8z" class="st7"/>
  <path d="M377.5 110.6c9.3 9.3 12.1 22.5 8.7 34.2 3.5-11.7.6-25-8.7-34.2l-8.8-8.8 8.8 8.8z" class="st7"/>
</svg>