<svg id="svg" version="1.1" xmlns="http://www.w3.org/2000/svg" xmlns:xlink="http://www.w3.org/1999/xlink" width="400" height="400" viewBox="0, 0, 400,400"><g id="svgg"><path id="path0" d="M41.299 74.498 L 41.400 131.800 79.800 131.800 L 118.200 131.800 118.306 119.648 C 118.381 111.015,118.280 107.338,117.957 106.948 C 117.581 106.495,113.254 106.400,92.951 106.400 C 68.933 106.400,68.383 106.383,67.600 105.600 C 66.699 104.699,66.311 46.139,67.190 43.826 L 67.580 42.800 86.747 42.800 C 103.856 42.800,105.940 42.868,106.157 43.433 C 106.291 43.781,106.400 51.615,106.400 60.843 L 106.400 77.620 107.426 78.010 C 108.793 78.530,171.577 78.528,172.400 78.009 C 172.915 77.683,173.016 75.234,173.113 60.740 C 173.189 49.292,173.366 43.682,173.662 43.326 C 174.286 42.574,213.390 42.549,213.876 43.300 C 214.054 43.575,214.254 51.476,214.320 60.859 L 214.439 77.917 215.320 78.153 C 216.472 78.462,276.731 78.461,277.884 78.152 L 278.768 77.915 278.884 61.019 C 278.977 47.415,279.107 43.993,279.549 43.461 C 280.046 42.862,281.999 42.800,300.259 42.800 L 320.420 42.800 320.810 43.826 C 321.605 45.919,321.311 104.577,320.500 105.559 C 319.802 106.405,319.742 106.407,294.000 106.504 L 268.200 106.600 268.200 119.200 L 268.200 131.800 307.200 131.800 L 346.200 131.800 346.200 74.600 L 346.200 17.400 299.700 17.298 L 253.200 17.197 253.200 34.198 C 253.200 54.725,253.851 52.803,246.900 52.794 C 243.917 52.790,241.835 52.603,241.200 52.282 L 240.200 51.777 240.000 34.588 L 239.800 17.400 193.800 17.400 L 147.800 17.400 147.600 34.480 C 147.445 47.728,147.284 51.677,146.881 52.080 C 146.130 52.832,134.579 53.015,133.200 52.297 L 132.200 51.777 132.000 34.588 L 131.800 17.400 86.499 17.298 L 41.197 17.197 41.299 74.498 M42.583 157.300 C 42.478 157.575,42.438 198.930,42.496 249.200 L 42.600 340.600 44.052 345.400 C 47.733 357.566,54.314 367.306,63.600 374.329 C 64.810 375.244,66.017 376.174,66.283 376.396 C 66.549 376.618,66.872 376.800,67.002 376.800 C 67.132 376.800,68.184 377.405,69.339 378.144 C 71.736 379.677,78.830 382.800,79.916 382.800 C 80.314 382.800,80.811 382.970,81.020 383.177 C 82.897 385.041,80.350 385.000,194.000 385.000 C 307.650 385.000,305.103 385.041,306.980 383.177 C 307.189 382.970,307.686 382.800,308.084 382.800 C 308.814 382.800,316.429 379.691,316.800 379.241 C 316.910 379.108,317.540 378.730,318.200 378.402 C 324.359 375.337,334.055 366.050,337.415 359.998 C 337.842 359.229,338.391 358.330,338.636 358.000 C 339.312 357.088,340.626 354.412,341.385 352.400 C 341.759 351.410,342.397 349.880,342.804 349.000 C 343.715 347.028,344.237 344.780,345.217 338.600 C 346.166 332.625,346.457 158.217,345.520 157.280 C 344.802 156.562,42.858 156.582,42.583 157.300 M319.832 183.376 C 320.708 184.574,320.680 329.872,319.802 335.322 C 318.098 345.914,309.273 356.475,300.683 358.202 C 299.977 358.344,298.770 358.761,298.000 359.130 C 295.838 360.165,92.162 360.165,90.000 359.130 C 89.230 358.761,87.970 358.334,87.200 358.181 C 81.990 357.144,70.800 347.239,70.800 343.665 C 70.800 343.334,70.554 342.779,70.252 342.431 C 69.951 342.084,69.276 340.540,68.752 339.000 L 67.800 336.200 67.687 260.400 C 67.567 180.063,67.522 182.948,68.901 182.681 C 72.603 181.964,319.299 182.648,319.832 183.376 M187.400 211.207 C 185.420 211.390,182.540 211.906,181.000 212.353 C 179.460 212.801,177.250 213.436,176.088 213.764 C 173.077 214.615,166.647 217.813,163.600 219.974 C 162.170 220.989,160.528 222.118,159.952 222.485 C 150.282 228.628,140.410 246.371,139.190 259.800 C 138.743 264.723,138.689 321.606,139.131 322.301 C 139.384 322.700,150.668 322.782,194.224 322.701 L 249.000 322.600 249.000 291.200 C 249.000 266.456,248.887 259.291,248.465 257.400 C 248.171 256.080,247.658 253.740,247.325 252.200 C 246.717 249.392,244.188 242.667,242.840 240.277 C 241.689 238.233,239.460 234.618,239.218 234.400 C 239.096 234.290,238.250 233.198,237.339 231.972 C 234.868 228.648,229.399 223.404,226.002 221.102 C 224.351 219.983,222.910 218.954,222.800 218.815 C 222.336 218.228,214.018 214.355,211.999 213.786 C 203.760 211.461,202.712 211.273,196.881 211.074 C 193.647 210.964,189.380 211.024,187.400 211.207 M201.600 237.448 C 204.077 238.153,209.303 240.566,210.763 241.679 C 215.309 245.147,218.942 249.467,220.619 253.400 C 220.995 254.280,221.536 255.456,221.822 256.013 C 223.225 258.743,223.597 263.834,223.599 280.277 L 223.600 296.355 222.711 296.977 C 221.101 298.105,166.300 297.900,165.162 296.762 C 164.331 295.931,164.326 295.774,164.501 278.262 C 164.692 259.149,164.824 257.878,167.021 254.129 C 167.559 253.210,168.000 252.252,168.000 252.001 C 168.000 251.134,170.496 247.921,173.543 244.865 C 180.522 237.867,192.212 234.777,201.600 237.448 " stroke="none" fill="#4095bc" fill-rule="evenodd"></path><path id="path1" d="M0.000 200.000 L 0.000 400.000 200.000 400.000 L 400.000 400.000 400.000 200.000 L 400.000 0.000 200.000 0.000 L 0.000 0.000 0.000 200.000 M132.675 15.914 C 133.854 16.664,134.000 18.727,134.000 34.637 L 134.000 50.821 139.900 50.711 L 145.800 50.600 145.901 33.600 C 145.993 18.185,146.066 16.553,146.678 16.100 C 147.818 15.255,240.124 15.381,240.971 16.229 C 241.522 16.779,241.600 18.876,241.600 33.196 C 241.600 42.182,241.709 49.819,241.843 50.167 C 242.045 50.695,242.873 50.800,246.830 50.800 L 251.575 50.800 251.688 33.861 C 251.778 20.218,251.907 16.794,252.349 16.261 C 253.195 15.243,346.143 15.243,347.269 16.262 C 348.321 17.215,348.422 131.920,347.371 132.971 C 346.601 133.741,268.202 133.950,266.774 133.186 C 265.693 132.607,265.556 106.501,266.629 105.429 C 267.187 104.870,270.170 104.800,293.429 104.800 L 319.600 104.800 319.600 74.600 L 319.600 44.400 300.443 44.400 C 283.343 44.400,281.260 44.468,281.043 45.033 C 280.909 45.381,280.800 53.018,280.800 62.004 C 280.800 76.324,280.722 78.421,280.171 78.971 C 279.402 79.741,214.998 79.948,213.574 79.186 C 212.828 78.787,212.800 78.175,212.800 62.262 C 212.800 49.685,212.681 45.591,212.300 45.072 C 211.839 44.444,210.331 44.398,193.200 44.495 L 174.600 44.600 174.496 61.564 C 174.424 73.277,174.254 78.694,173.947 79.064 C 173.196 79.969,106.302 79.846,105.549 78.939 C 105.110 78.411,104.960 74.898,104.800 61.439 L 104.600 44.600 86.909 44.496 L 69.217 44.392 68.998 45.296 C 68.878 45.793,68.829 59.340,68.890 75.400 L 69.000 104.600 94.267 104.800 C 108.164 104.910,119.684 105.150,119.867 105.333 C 120.529 105.996,120.273 132.783,119.600 133.208 C 118.646 133.812,41.085 133.725,40.480 133.120 C 39.782 132.422,39.782 16.778,40.480 16.080 C 41.027 15.533,131.819 15.370,132.675 15.914 M346.527 155.300 C 347.165 155.769,347.199 161.571,347.075 247.800 C 346.926 351.303,347.199 342.860,343.756 350.660 C 343.450 351.354,343.200 352.120,343.200 352.362 C 343.200 353.588,339.049 360.853,336.123 364.749 C 327.217 376.604,312.917 385.042,299.244 386.511 C 293.059 387.175,94.790 387.157,88.531 386.492 C 84.497 386.063,76.363 383.856,75.000 382.820 C 74.780 382.653,74.004 382.316,73.276 382.071 C 68.202 380.363,52.800 368.234,52.800 365.945 C 52.800 365.641,52.458 365.179,52.040 364.918 C 51.622 364.657,50.317 362.859,49.140 360.924 C 46.914 357.263,46.747 356.945,44.984 353.000 C 43.324 349.286,43.114 348.715,42.769 347.000 C 42.146 343.897,41.539 341.385,41.078 340.000 C 40.593 338.543,40.123 158.430,40.600 156.483 C 40.723 155.978,41.224 155.405,41.712 155.208 C 43.215 154.603,345.704 154.695,346.527 155.300 M69.467 184.267 C 68.794 184.939,69.165 333.289,69.848 336.400 C 71.220 342.657,74.991 348.529,80.401 352.831 C 82.748 354.698,84.135 355.377,89.200 357.139 L 93.400 358.600 194.000 358.600 L 294.600 358.600 298.832 357.146 C 303.505 355.540,304.011 355.291,307.136 353.052 C 310.917 350.342,316.000 344.225,316.000 342.384 C 316.000 342.041,316.172 341.588,316.381 341.379 C 316.591 341.169,317.221 339.288,317.780 337.199 L 318.798 333.400 318.799 258.943 C 318.800 191.416,318.741 184.463,318.167 184.243 C 317.299 183.910,69.800 183.934,69.467 184.267 M200.555 209.637 C 201.630 209.836,203.156 210.000,203.947 210.000 C 204.738 210.000,206.829 210.460,208.593 211.023 C 210.357 211.586,212.430 212.232,213.200 212.459 C 215.181 213.042,223.487 217.182,224.059 217.871 C 224.322 218.188,225.097 218.680,225.782 218.967 C 229.524 220.530,239.606 231.116,242.795 236.829 C 245.775 242.168,248.710 249.269,249.066 252.000 C 249.195 252.990,249.548 254.783,249.850 255.984 C 250.853 259.967,250.644 323.441,249.626 323.986 C 247.977 324.869,139.045 324.527,137.944 323.635 L 137.000 322.871 136.879 295.135 C 136.751 265.791,137.000 259.255,138.447 254.000 C 138.901 252.350,139.441 250.280,139.646 249.400 C 140.154 247.225,141.609 243.541,142.264 242.769 C 142.559 242.421,142.800 241.989,142.800 241.807 C 142.800 241.380,144.831 237.062,145.155 236.800 C 145.291 236.690,146.103 235.520,146.960 234.200 C 150.385 228.923,157.520 221.698,161.774 219.200 C 162.711 218.650,163.766 217.961,164.118 217.668 C 165.203 216.768,172.895 213.013,174.800 212.453 C 175.790 212.162,177.950 211.508,179.600 210.998 C 181.250 210.489,183.860 209.950,185.400 209.800 C 186.940 209.650,189.190 209.380,190.400 209.201 C 192.767 208.851,197.397 209.049,200.555 209.637 M190.000 238.291 C 186.658 238.898,182.764 240.249,180.753 241.500 C 179.957 241.995,179.102 242.400,178.853 242.400 C 178.218 242.400,170.400 250.285,170.400 250.925 C 170.400 251.214,169.680 252.644,168.800 254.103 C 167.920 255.562,167.200 257.112,167.200 257.546 C 167.200 257.980,166.928 259.397,166.595 260.695 C 166.095 262.649,166.009 265.875,166.095 279.427 L 166.200 295.800 194.000 295.800 L 221.800 295.800 221.786 278.000 L 221.771 260.200 220.286 256.812 C 219.469 254.949,218.800 253.276,218.800 253.094 C 218.800 252.239,214.400 246.733,212.378 245.059 C 211.103 244.002,210.190 243.376,207.000 241.370 C 203.058 238.891,194.864 237.407,190.000 238.291 " stroke="none" fill="#fbfbfb" fill-rule="evenodd"></path><path id="path2" d="M41.062 16.300 C 40.960 16.465,61.334 16.553,86.338 16.496 C 128.758 16.398,131.833 16.437,132.300 17.072 C 132.681 17.591,132.800 21.686,132.800 34.267 L 132.800 50.782 133.778 51.422 C 135.064 52.265,145.087 52.127,146.140 51.251 C 146.737 50.755,146.791 49.108,146.707 34.051 L 146.613 17.400 146.407 34.200 L 146.200 51.000 139.800 51.000 L 133.400 51.000 133.296 34.227 C 133.203 19.319,133.118 17.372,132.534 16.727 C 131.842 15.962,41.531 15.541,41.062 16.300 M147.149 16.665 C 146.653 17.267,146.684 17.286,147.477 16.864 C 148.134 16.514,159.857 16.422,194.277 16.498 L 240.200 16.600 240.400 33.680 C 240.636 53.813,239.947 51.800,246.601 51.800 C 253.253 51.800,252.564 53.813,252.800 33.680 L 253.000 16.600 299.600 16.497 C 343.056 16.401,346.234 16.440,346.700 17.073 C 347.242 17.809,347.342 17.637,346.957 16.633 C 346.576 15.639,253.575 15.667,252.749 16.661 C 252.310 17.189,252.160 20.702,252.000 34.161 L 251.800 51.000 246.600 51.000 L 241.400 51.000 241.200 34.161 C 241.040 20.702,240.890 17.189,240.451 16.661 C 239.602 15.639,147.992 15.644,147.149 16.665 M40.595 74.600 C 40.595 106.280,40.642 119.181,40.700 103.269 C 40.758 87.356,40.758 61.436,40.700 45.669 C 40.642 29.901,40.595 42.920,40.595 74.600 M347.395 74.600 C 347.395 105.620,347.442 118.369,347.500 102.931 C 347.558 87.493,347.558 62.113,347.500 46.531 C 347.442 30.949,347.395 43.580,347.395 74.600 M68.349 43.861 C 67.453 44.941,67.329 104.072,68.221 104.964 C 68.789 105.531,71.496 105.600,93.352 105.600 C 113.866 105.600,117.973 105.692,118.624 106.167 C 119.560 106.852,120.061 128.405,119.208 131.304 L 118.766 132.808 79.821 132.704 C 58.401 132.647,40.960 132.735,41.062 132.900 C 41.496 133.602,118.664 133.246,119.251 132.539 C 120.249 131.337,120.038 106.510,119.024 105.768 C 118.373 105.292,114.259 105.200,93.604 105.200 C 74.970 105.200,68.843 105.083,68.480 104.720 C 67.662 103.902,67.800 45.663,68.623 44.489 L 69.245 43.600 86.794 43.600 C 102.214 43.600,104.419 43.676,104.971 44.229 C 105.523 44.780,105.600 46.908,105.600 61.549 C 105.600 73.997,105.722 78.362,106.080 78.720 C 106.589 79.229,172.058 79.460,173.367 78.957 C 173.932 78.740,173.990 76.950,173.907 62.257 L 173.813 45.800 173.607 62.200 L 173.400 78.600 139.800 78.600 L 106.200 78.600 106.000 61.285 C 105.829 46.479,105.713 43.915,105.200 43.591 C 104.012 42.841,68.983 43.097,68.349 43.861 M174.267 43.467 C 174.120 43.613,174.000 43.919,174.000 44.147 C 174.000 44.394,174.193 44.367,174.480 44.080 C 175.299 43.261,211.746 43.403,212.571 44.229 C 213.122 44.780,213.200 46.881,213.200 61.255 C 213.200 71.793,213.348 77.929,213.614 78.426 C 214.078 79.293,278.245 79.665,279.600 78.809 C 280.115 78.483,280.216 76.021,280.316 61.450 C 280.409 47.889,280.540 44.382,280.966 44.028 C 281.345 43.714,287.100 43.616,300.712 43.692 C 311.279 43.752,319.840 43.665,319.738 43.500 C 319.442 43.021,281.675 43.132,280.774 43.614 C 280.028 44.013,280.000 44.623,280.000 60.388 C 280.000 70.050,279.840 77.168,279.610 77.774 L 279.220 78.800 246.657 78.800 L 214.093 78.800 213.852 77.900 C 213.719 77.405,213.608 69.678,213.605 60.729 C 213.601 46.475,213.522 44.379,212.971 43.829 C 212.316 43.173,174.910 42.823,174.267 43.467 M319.999 74.600 L 319.800 105.000 293.720 105.200 C 273.079 105.358,267.531 105.508,267.120 105.919 C 266.266 106.773,266.150 130.959,266.994 132.247 L 267.621 133.204 307.305 133.102 C 344.934 133.005,346.992 132.963,347.054 132.292 C 347.099 131.797,347.062 131.767,346.930 132.192 C 346.618 133.198,267.701 133.107,267.287 132.100 C 266.710 130.694,266.950 106.983,267.549 106.261 C 268.049 105.659,270.380 105.600,293.800 105.600 C 314.984 105.600,319.581 105.504,319.954 105.056 C 320.282 104.660,320.377 96.303,320.301 74.356 L 320.197 44.200 319.999 74.600 M41.423 156.489 C 40.546 157.741,40.535 331.298,41.412 336.800 C 41.709 338.670,41.854 339.210,41.733 338.000 C 41.118 331.868,41.184 157.884,41.801 156.942 L 42.418 156.000 194.189 156.000 C 338.311 156.000,345.981 156.035,346.368 156.700 C 346.730 157.321,346.777 157.326,346.788 156.743 C 346.809 155.591,348.006 155.600,193.790 155.600 L 42.045 155.600 41.423 156.489 M346.996 245.600 C 346.996 294.110,347.043 313.955,347.100 289.700 C 347.157 265.445,347.157 225.755,347.100 201.500 C 347.043 177.245,346.996 197.090,346.996 245.600 M68.598 184.100 C 68.479 184.595,68.431 218.750,68.492 260.000 L 68.602 335.000 68.701 259.520 C 68.795 188.116,68.838 184.018,69.500 183.632 C 70.159 183.248,70.159 183.224,69.508 183.212 C 69.115 183.205,68.721 183.589,68.598 184.100 M318.075 183.448 C 318.447 183.558,318.842 183.953,318.952 184.325 C 319.099 184.814,319.132 184.781,319.072 184.205 C 319.025 183.738,318.662 183.375,318.195 183.328 C 317.619 183.268,317.586 183.301,318.075 183.448 M319.396 258.200 C 319.396 298.460,319.443 314.871,319.500 294.668 C 319.557 274.466,319.557 241.526,319.500 221.468 C 319.443 201.411,319.396 217.940,319.396 258.200 M187.600 210.232 L 184.200 210.756 187.400 210.484 C 191.377 210.146,196.413 210.152,200.600 210.500 L 203.800 210.766 200.200 210.218 C 195.773 209.543,192.047 209.547,187.600 210.232 M180.200 211.414 C 178.613 212.141,179.380 212.139,181.400 211.412 C 182.280 211.095,182.640 210.842,182.200 210.850 C 181.760 210.858,180.860 211.112,180.200 211.414 M206.600 211.412 C 208.673 212.158,209.394 212.140,207.654 211.384 C 206.914 211.063,206.014 210.808,205.654 210.818 C 205.294 210.827,205.720 211.095,206.600 211.412 M175.766 212.595 C 173.633 213.269,171.465 214.398,171.753 214.686 C 171.878 214.812,172.234 214.704,172.544 214.446 C 172.854 214.189,174.344 213.547,175.854 213.019 C 178.704 212.023,178.636 211.689,175.766 212.595 M212.146 213.019 C 213.656 213.547,215.146 214.189,215.456 214.446 C 215.766 214.704,216.120 214.813,216.244 214.689 C 216.654 214.280,211.038 211.948,209.837 212.030 C 209.597 212.046,210.636 212.491,212.146 213.019 M217.200 215.086 C 217.530 215.208,218.160 215.474,218.600 215.676 C 219.387 216.038,219.388 216.034,218.624 215.422 C 218.196 215.080,217.566 214.814,217.224 214.832 C 216.685 214.859,216.682 214.893,217.200 215.086 M165.902 217.111 C 164.858 217.710,164.003 218.333,164.002 218.496 C 164.000 218.723,167.409 216.875,168.367 216.130 C 169.075 215.579,167.437 216.231,165.902 217.111 M219.600 216.103 C 220.120 216.655,224.000 218.742,224.000 218.469 C 224.000 218.299,223.145 217.723,222.100 217.189 C 219.864 216.047,219.328 215.814,219.600 216.103 M160.200 220.948 C 156.847 223.501,150.934 229.369,149.350 231.715 C 148.724 232.642,147.725 234.030,147.131 234.800 C 145.938 236.346,142.659 242.393,142.889 242.623 C 142.969 242.702,143.477 241.927,144.017 240.898 C 148.228 232.889,154.063 225.986,160.960 220.854 C 162.477 219.724,163.557 218.803,163.360 218.807 C 163.162 218.812,161.740 219.775,160.200 220.948 M224.600 219.068 C 224.820 219.278,226.374 220.482,228.054 221.745 C 230.899 223.883,234.793 227.661,237.283 230.700 C 237.869 231.415,238.462 232.000,238.602 232.000 C 239.416 232.000,232.678 225.003,228.726 221.745 C 227.037 220.352,223.628 218.140,224.600 219.068 M239.080 232.908 C 240.431 235.051,241.748 236.785,241.906 236.627 C 242.102 236.432,239.278 232.400,238.946 232.400 C 238.844 232.400,238.904 232.628,239.080 232.908 M187.200 238.000 C 185.042 238.906,185.603 239.046,188.000 238.200 C 189.107 237.809,191.201 237.600,194.000 237.600 C 196.799 237.600,198.893 237.809,200.000 238.200 C 202.397 239.046,202.958 238.906,200.800 238.000 C 199.360 237.396,197.999 237.245,194.000 237.245 C 190.001 237.245,188.640 237.396,187.200 238.000 M243.871 240.902 C 244.931 243.049,245.852 244.645,245.916 244.451 C 246.038 244.085,242.991 238.110,242.321 237.400 C 242.113 237.180,242.810 238.756,243.871 240.902 M182.600 239.482 C 179.359 240.781,169.701 248.400,171.296 248.400 C 171.446 248.400,172.416 247.493,173.453 246.385 C 175.725 243.956,180.164 240.920,183.189 239.728 C 184.405 239.249,185.130 238.853,184.800 238.849 C 184.470 238.845,183.480 239.130,182.600 239.482 M203.946 239.416 C 204.686 239.737,205.406 239.994,205.546 239.986 C 206.066 239.957,203.776 238.828,203.200 238.830 C 202.870 238.831,203.206 239.094,203.946 239.416 M208.487 241.616 C 211.213 243.252,215.000 246.654,216.930 249.200 C 217.514 249.970,217.993 250.397,217.996 250.149 C 218.011 248.615,208.029 239.994,206.249 240.002 C 206.002 240.003,207.009 240.730,208.487 241.616 M141.306 246.285 C 140.014 249.649,139.236 252.299,138.982 254.200 L 138.822 255.400 139.187 254.200 C 139.388 253.540,139.897 251.830,140.318 250.400 C 140.740 248.970,141.466 246.821,141.933 245.624 C 142.399 244.427,142.718 243.385,142.642 243.308 C 142.565 243.232,141.964 244.571,141.306 246.285 M246.030 245.600 C 246.028 246.176,247.157 248.466,247.186 247.946 C 247.194 247.806,246.937 247.086,246.616 246.346 C 246.294 245.606,246.031 245.270,246.030 245.600 M247.256 248.600 C 247.250 248.820,247.601 250.260,248.035 251.800 C 248.739 254.303,248.802 254.401,248.622 252.724 C 248.446 251.073,247.281 247.557,247.256 248.600 M170.079 249.900 C 169.171 251.186,167.109 255.200,167.355 255.200 C 167.448 255.200,168.107 254.165,168.820 252.900 C 169.533 251.635,170.381 250.195,170.704 249.700 C 171.545 248.412,171.006 248.585,170.079 249.900 M219.384 253.334 C 220.053 254.697,220.655 255.688,220.723 255.538 C 220.872 255.204,218.946 251.338,218.491 251.056 C 218.313 250.946,218.714 251.971,219.384 253.334 M248.844 255.200 C 248.838 255.530,249.081 256.790,249.383 258.000 C 249.689 259.226,249.944 259.757,249.960 259.200 C 249.975 258.650,249.733 257.390,249.421 256.400 C 249.109 255.410,248.849 254.870,248.844 255.200 M138.282 257.550 C 138.127 258.293,138.021 259.553,138.047 260.350 C 138.086 261.573,138.150 261.456,138.457 259.603 C 138.865 257.141,138.721 255.451,138.282 257.550 M220.800 256.478 C 220.800 256.604,221.063 257.314,221.384 258.054 C 221.789 258.986,221.970 259.154,221.972 258.600 C 221.973 258.160,221.710 257.451,221.387 257.024 C 221.064 256.596,220.800 256.351,220.800 256.478 M165.861 259.879 C 164.683 265.012,164.909 296.800,166.123 296.800 C 166.415 296.800,166.401 296.641,166.080 296.320 C 165.292 295.532,165.409 263.300,166.212 260.219 C 166.548 258.928,166.755 257.675,166.672 257.435 C 166.589 257.196,166.224 258.296,165.861 259.879 M222.336 277.660 C 222.440 291.099,222.356 295.336,221.970 296.060 C 221.514 296.916,221.528 296.951,222.135 296.451 C 222.833 295.875,223.101 267.815,222.460 262.400 C 222.317 261.190,222.261 268.057,222.336 277.660 M137.697 292.286 C 137.602 322.069,137.618 322.781,138.374 323.186 C 139.280 323.671,249.439 323.784,249.738 323.300 C 249.840 323.135,225.146 323.050,194.862 323.110 C 164.578 323.171,139.396 323.123,138.902 323.003 L 138.005 322.786 137.900 292.293 L 137.795 261.800 137.697 292.286 M250.189 293.200 C 250.189 308.710,250.239 315.055,250.300 307.300 C 250.361 299.545,250.361 286.855,250.300 279.100 C 250.239 271.345,250.189 277.690,250.189 293.200 M318.920 334.000 C 318.920 335.210,318.995 335.705,319.087 335.100 C 319.178 334.495,319.178 333.505,319.087 332.900 C 318.995 332.295,318.920 332.790,318.920 334.000 M68.848 335.800 C 68.864 336.777,69.929 339.642,69.964 338.800 C 69.977 338.470,69.729 337.480,69.412 336.600 C 69.095 335.720,68.841 335.360,68.848 335.800 M345.695 340.419 C 345.200 342.939,344.701 345.450,344.586 346.000 L 344.377 347.000 344.815 346.000 C 345.396 344.673,346.873 337.276,346.718 336.471 C 346.651 336.123,346.191 337.899,345.695 340.419 M318.089 338.662 C 317.441 340.823,315.653 344.720,315.174 345.016 C 314.968 345.143,314.800 345.455,314.800 345.709 C 314.800 346.000,315.007 345.954,315.357 345.586 C 316.181 344.721,318.856 338.384,318.712 337.640 C 318.644 337.288,318.364 337.748,318.089 338.662 M70.002 340.424 C 70.001 340.766,70.264 341.396,70.587 341.824 C 71.351 342.834,71.359 342.396,70.602 340.946 C 70.274 340.316,70.004 340.081,70.002 340.424 M42.171 342.400 C 42.502 344.379,43.896 349.084,44.373 349.834 C 44.845 350.576,44.852 350.575,44.604 349.800 C 44.463 349.360,43.985 347.740,43.542 346.200 C 43.099 344.660,42.571 342.950,42.370 342.400 L 42.003 341.400 42.171 342.400 M71.362 343.332 C 72.185 345.874,77.304 351.873,80.435 353.965 L 81.800 354.877 80.400 353.598 C 75.515 349.137,74.761 348.273,72.023 344.000 C 71.529 343.230,71.232 342.929,71.362 343.332 M313.039 348.284 C 310.115 352.038,305.315 355.412,300.371 357.190 C 299.177 357.620,298.508 357.978,298.885 357.986 C 302.204 358.055,310.820 352.171,313.946 347.700 C 315.307 345.752,314.714 346.135,313.039 348.284 M343.232 349.539 C 342.995 349.984,342.801 350.584,342.802 350.874 C 342.804 351.163,343.077 350.878,343.410 350.240 C 343.742 349.603,343.936 349.002,343.840 348.906 C 343.743 348.810,343.470 349.095,343.232 349.539 M44.827 351.200 C 44.826 351.530,45.090 352.149,45.413 352.576 C 46.160 353.564,46.152 352.915,45.400 351.600 C 45.068 351.020,44.828 350.852,44.827 351.200 M341.858 353.414 C 341.188 355.038,338.539 359.651,336.641 362.500 C 336.238 363.105,336.022 363.600,336.162 363.600 C 336.892 363.600,342.996 352.780,342.722 351.973 C 342.655 351.776,342.266 352.424,341.858 353.414 M46.000 353.835 C 46.000 354.457,48.453 358.880,48.675 358.658 C 48.779 358.554,48.597 358.049,48.270 357.535 C 47.943 357.021,47.299 355.883,46.838 355.006 C 46.377 354.129,46.000 353.602,46.000 353.835 M82.680 355.401 C 83.947 356.289,87.278 357.655,87.539 357.394 C 87.663 357.270,87.343 357.058,86.827 356.923 C 86.311 356.788,85.095 356.255,84.123 355.739 C 82.121 354.674,81.402 354.506,82.680 355.401 M91.000 358.576 C 92.048 359.089,105.135 359.154,194.000 359.084 L 295.800 359.004 193.600 358.802 C 137.390 358.691,91.040 358.462,90.600 358.294 C 90.160 358.126,90.340 358.253,91.000 358.576 M49.477 360.429 C 50.851 362.766,55.140 368.207,57.166 370.185 C 60.094 373.042,59.669 372.277,56.391 368.789 C 54.845 367.145,52.584 364.315,51.365 362.500 C 49.185 359.254,48.062 358.021,49.477 360.429 M333.749 366.286 C 332.677 367.543,331.125 369.208,330.301 369.986 C 329.476 370.764,328.801 371.542,328.801 371.716 C 328.799 372.278,332.025 369.071,334.047 366.500 C 336.506 363.374,336.336 363.251,333.749 366.286 M61.421 373.814 C 63.113 375.453,68.382 379.200,68.993 379.200 C 69.177 379.200,67.724 378.098,65.764 376.752 C 63.804 375.406,61.649 373.831,60.977 373.252 C 60.304 372.673,60.503 372.926,61.421 373.814 M326.800 373.220 C 323.752 375.828,319.211 378.790,315.500 380.589 C 311.557 382.500,310.345 383.281,313.100 382.135 C 317.906 380.137,325.289 375.498,327.570 373.044 C 328.851 371.665,328.531 371.738,326.800 373.220 M71.800 380.763 C 72.460 381.176,73.450 381.628,74.000 381.769 C 74.565 381.913,74.217 381.592,73.200 381.030 C 71.096 379.868,70.047 379.668,71.800 380.763 M79.400 383.814 C 80.060 384.117,80.870 384.365,81.200 384.366 C 81.530 384.368,81.194 384.106,80.454 383.784 C 78.753 383.046,77.782 383.074,79.400 383.814 M307.400 383.814 C 306.740 384.117,306.470 384.364,306.800 384.364 C 307.130 384.364,307.940 384.117,308.600 383.814 C 309.260 383.512,309.530 383.265,309.200 383.265 C 308.870 383.265,308.060 383.512,307.400 383.814 M84.000 385.217 C 85.210 385.621,87.100 385.939,88.200 385.925 C 90.195 385.899,90.194 385.898,87.638 385.567 C 86.228 385.384,84.537 385.047,83.878 384.817 C 83.219 384.588,82.482 384.418,82.240 384.441 C 81.998 384.464,82.790 384.813,84.000 385.217 M303.800 384.849 C 303.140 385.058,301.520 385.379,300.200 385.564 L 297.800 385.899 299.800 385.925 C 300.900 385.939,302.790 385.621,304.000 385.217 C 305.210 384.813,305.930 384.479,305.600 384.475 C 305.270 384.472,304.460 384.640,303.800 384.849 M142.900 386.300 C 171.005 386.357,216.995 386.357,245.100 386.300 C 273.205 386.243,250.210 386.197,194.000 386.197 C 137.790 386.197,114.795 386.243,142.900 386.300 " stroke="none" fill="#b7d5e3" fill-rule="evenodd"></path><path id="path3" d="M40.985 16.900 C 40.880 17.175,40.841 43.320,40.897 75.000 L 41.000 132.600 79.883 132.702 L 118.767 132.804 119.209 131.302 C 120.061 128.405,119.560 106.851,118.624 106.167 C 117.973 105.692,113.866 105.600,93.352 105.600 C 71.617 105.600,68.786 105.529,68.229 104.971 C 67.379 104.122,67.273 46.070,68.118 44.400 L 68.623 43.400 86.612 43.304 C 97.508 43.246,104.837 43.358,105.200 43.589 C 105.713 43.915,105.829 46.480,106.000 61.285 L 106.200 78.600 139.800 78.600 L 173.400 78.600 173.600 61.400 C 173.710 51.940,173.946 43.975,174.124 43.700 C 174.666 42.861,212.128 42.985,212.971 43.829 C 213.522 44.379,213.601 46.475,213.605 60.729 C 213.608 69.678,213.719 77.405,213.852 77.900 L 214.093 78.800 246.657 78.800 L 279.220 78.800 279.610 77.774 C 279.840 77.168,280.000 70.050,280.000 60.388 C 280.000 44.623,280.028 44.013,280.774 43.614 C 282.413 42.737,319.506 43.077,319.986 43.974 C 320.619 45.157,320.555 104.485,319.920 105.120 C 319.557 105.483,313.202 105.600,293.769 105.600 C 270.378 105.600,268.049 105.659,267.549 106.261 C 266.950 106.983,266.710 130.694,267.287 132.100 C 267.558 132.760,269.835 132.800,307.141 132.800 L 346.707 132.800 346.948 131.900 C 347.468 129.958,347.226 17.789,346.700 17.073 C 346.234 16.440,343.056 16.401,299.600 16.497 L 253.000 16.600 252.800 33.680 C 252.564 53.813,253.253 51.800,246.601 51.800 C 239.947 51.800,240.636 53.813,240.400 33.680 L 240.200 16.600 194.277 16.498 C 163.076 16.429,148.105 16.530,147.577 16.812 C 146.827 17.214,146.800 17.804,146.800 33.965 C 146.800 49.031,146.734 50.757,146.140 51.251 C 145.087 52.127,135.064 52.265,133.778 51.422 L 132.800 50.782 132.800 34.364 C 132.800 23.813,132.652 17.671,132.386 17.174 C 131.863 16.197,41.355 15.926,40.985 16.900 M132.000 34.588 L 132.200 51.777 133.200 52.297 C 134.579 53.015,146.130 52.832,146.881 52.080 C 147.284 51.677,147.445 47.728,147.600 34.480 L 147.800 17.400 193.800 17.400 L 239.800 17.400 240.000 34.588 L 240.200 51.777 241.200 52.282 C 241.835 52.603,243.917 52.790,246.900 52.794 C 253.851 52.803,253.200 54.725,253.200 34.198 L 253.200 17.197 299.700 17.298 L 346.200 17.400 346.200 74.600 L 346.200 131.800 307.200 131.800 L 268.200 131.800 268.200 119.200 L 268.200 106.600 294.000 106.504 C 319.742 106.407,319.802 106.405,320.500 105.559 C 321.311 104.577,321.605 45.919,320.810 43.826 L 320.420 42.800 300.259 42.800 C 281.999 42.800,280.046 42.862,279.549 43.461 C 279.107 43.993,278.977 47.415,278.884 61.019 L 278.768 77.915 277.884 78.152 C 276.731 78.461,216.472 78.462,215.320 78.153 L 214.439 77.917 214.320 60.859 C 214.254 51.476,214.054 43.575,213.876 43.300 C 213.390 42.549,174.286 42.574,173.662 43.326 C 173.366 43.682,173.189 49.292,173.113 60.740 C 173.016 75.234,172.915 77.683,172.400 78.009 C 171.577 78.528,108.793 78.530,107.426 78.010 L 106.400 77.620 106.400 60.843 C 106.400 51.615,106.291 43.781,106.157 43.433 C 105.940 42.868,103.856 42.800,86.747 42.800 L 67.580 42.800 67.190 43.826 C 66.311 46.139,66.699 104.699,67.600 105.600 C 68.383 106.383,68.933 106.400,92.951 106.400 C 113.254 106.400,117.581 106.495,117.957 106.948 C 118.280 107.338,118.381 111.015,118.306 119.648 L 118.200 131.800 79.800 131.800 L 41.400 131.800 41.299 74.498 L 41.197 17.197 86.499 17.298 L 131.800 17.400 132.000 34.588 M41.823 156.889 C 41.264 157.687,41.200 166.631,41.197 244.189 C 41.193 327.924,41.310 337.381,42.399 342.000 C 43.573 346.975,45.531 352.524,47.218 355.657 C 47.649 356.458,48.227 357.538,48.501 358.057 C 53.689 367.871,63.890 376.925,75.600 382.109 C 78.553 383.417,85.146 385.222,88.401 385.615 C 90.666 385.888,126.690 385.984,196.400 385.902 L 301.000 385.779 303.800 384.943 C 309.810 383.149,311.141 382.654,315.200 380.708 C 324.518 376.240,332.399 369.235,337.942 360.491 C 340.259 356.836,342.800 351.768,342.800 350.800 C 342.800 350.458,343.042 349.823,343.338 349.389 C 343.958 348.480,344.477 346.491,345.831 339.845 L 346.800 335.090 346.800 246.319 C 346.800 185.891,346.668 157.300,346.386 156.774 C 345.978 156.011,343.843 156.000,194.209 156.000 L 42.445 156.000 41.823 156.889 M345.520 157.280 C 346.457 158.217,346.166 332.625,345.217 338.600 C 344.237 344.780,343.715 347.028,342.804 349.000 C 342.397 349.880,341.759 351.410,341.385 352.400 C 340.626 354.412,339.312 357.088,338.636 358.000 C 338.391 358.330,337.842 359.229,337.415 359.998 C 334.055 366.050,324.359 375.337,318.200 378.402 C 317.540 378.730,316.910 379.108,316.800 379.241 C 316.429 379.691,308.814 382.800,308.084 382.800 C 307.686 382.800,307.189 382.970,306.980 383.177 C 305.103 385.041,307.650 385.000,194.000 385.000 C 80.350 385.000,82.897 385.041,81.020 383.177 C 80.811 382.970,80.314 382.800,79.916 382.800 C 78.830 382.800,71.736 379.677,69.339 378.144 C 68.184 377.405,67.132 376.800,67.002 376.800 C 66.872 376.800,66.549 376.618,66.283 376.396 C 66.017 376.174,64.810 375.244,63.600 374.329 C 54.314 367.306,47.733 357.566,44.052 345.400 L 42.600 340.600 42.496 249.200 C 42.438 198.930,42.478 157.575,42.583 157.300 C 42.858 156.582,344.802 156.562,345.520 157.280 M68.901 182.681 C 67.522 182.948,67.567 180.063,67.687 260.400 L 67.800 336.200 68.752 339.000 C 69.276 340.540,69.951 342.084,70.252 342.431 C 70.554 342.779,70.800 343.334,70.800 343.665 C 70.800 347.239,81.990 357.144,87.200 358.181 C 87.970 358.334,89.230 358.761,90.000 359.130 C 92.162 360.165,295.838 360.165,298.000 359.130 C 298.770 358.761,299.977 358.344,300.683 358.202 C 309.273 356.475,318.098 345.914,319.802 335.322 C 320.680 329.872,320.708 184.574,319.832 183.376 C 319.299 182.648,72.603 181.964,68.901 182.681 M319.076 183.700 C 319.597 184.505,319.719 327.280,319.204 333.318 C 318.262 344.355,311.087 353.914,301.200 357.304 C 295.265 359.339,303.118 359.200,193.854 359.202 C 83.530 359.204,92.807 359.383,86.411 357.130 C 78.752 354.432,72.395 347.455,69.346 338.400 C 68.618 336.238,67.893 186.989,68.596 184.100 L 68.815 183.200 193.784 183.200 C 293.320 183.200,318.819 183.302,319.076 183.700 M189.200 210.396 C 188.210 210.586,186.476 210.754,185.346 210.770 C 184.216 210.787,182.326 211.091,181.146 211.447 C 175.188 213.243,173.735 213.731,173.000 214.182 C 172.560 214.452,171.750 214.786,171.200 214.923 C 161.287 217.394,146.306 233.387,141.715 246.400 C 137.998 256.934,138.007 256.819,138.003 292.892 L 138.000 322.785 138.900 323.002 C 139.395 323.121,164.550 323.170,194.800 323.110 L 249.800 323.000 249.906 292.000 L 250.012 261.000 248.989 256.200 C 246.240 243.312,242.431 235.992,233.654 226.727 C 229.507 222.351,221.074 216.411,217.200 215.139 C 216.430 214.886,215.440 214.457,215.000 214.185 C 214.560 213.913,212.940 213.306,211.400 212.834 C 209.860 212.363,207.970 211.771,207.200 211.518 C 204.422 210.608,192.103 209.840,189.200 210.396 M206.281 212.220 C 213.354 214.120,214.272 214.443,218.399 216.484 C 220.709 217.627,222.690 218.676,222.800 218.815 C 222.910 218.954,224.351 219.983,226.002 221.102 C 229.399 223.404,234.868 228.648,237.339 231.972 C 238.250 233.198,239.096 234.290,239.218 234.400 C 239.460 234.618,241.689 238.233,242.840 240.277 C 244.188 242.667,246.717 249.392,247.325 252.200 C 247.658 253.740,248.171 256.080,248.465 257.400 C 248.887 259.291,249.000 266.456,249.000 291.200 L 249.000 322.600 194.224 322.701 C 150.668 322.782,139.384 322.700,139.131 322.301 C 138.689 321.606,138.743 264.723,139.190 259.800 C 140.410 246.371,150.282 228.628,159.952 222.485 C 160.528 222.118,162.170 220.989,163.600 219.974 C 166.647 217.813,173.077 214.615,176.088 213.764 C 177.250 213.436,179.460 212.801,181.000 212.353 C 187.125 210.573,199.902 210.506,206.281 212.220 M190.400 236.808 C 184.577 237.211,178.079 240.317,173.543 244.865 C 170.496 247.921,168.000 251.134,168.000 252.001 C 168.000 252.252,167.559 253.210,167.021 254.129 C 164.824 257.878,164.692 259.149,164.501 278.262 C 164.326 295.774,164.331 295.931,165.162 296.762 C 166.300 297.900,221.101 298.105,222.711 296.977 L 223.600 296.355 223.599 280.277 C 223.597 263.834,223.225 258.743,221.822 256.013 C 221.536 255.456,220.995 254.280,220.619 253.400 C 219.436 250.624,216.409 246.504,214.025 244.422 C 206.775 238.091,200.602 236.102,190.400 236.808 M201.803 238.341 C 208.486 240.727,211.233 242.423,215.082 246.538 C 217.674 249.308,217.921 249.674,219.749 253.435 C 221.797 257.648,221.954 258.150,222.379 261.800 C 222.989 267.041,222.940 295.700,222.320 296.320 C 221.491 297.149,165.762 297.000,165.443 296.167 C 164.691 294.209,165.206 262.529,166.044 259.176 C 169.976 243.442,187.497 233.233,201.803 238.341 " stroke="none" fill="#94c4db" fill-rule="evenodd"></path><path id="path4" d="M40.480 16.080 C 39.782 16.778,39.782 132.422,40.480 133.120 C 41.085 133.725,118.646 133.812,119.600 133.208 C 120.273 132.783,120.529 105.996,119.867 105.333 C 119.684 105.150,108.164 104.910,94.267 104.800 L 69.000 104.600 68.890 75.400 C 68.829 59.340,68.878 45.793,68.998 45.296 L 69.217 44.392 86.909 44.496 L 104.600 44.600 104.800 61.439 C 104.960 74.898,105.110 78.411,105.549 78.939 C 106.302 79.846,173.196 79.969,173.947 79.064 C 174.254 78.694,174.424 73.277,174.496 61.564 L 174.600 44.600 193.200 44.495 C 210.331 44.398,211.839 44.444,212.300 45.072 C 212.681 45.591,212.800 49.685,212.800 62.262 C 212.800 78.175,212.828 78.787,213.574 79.186 C 214.998 79.948,279.402 79.741,280.171 78.971 C 280.722 78.421,280.800 76.324,280.800 62.004 C 280.800 53.018,280.909 45.381,281.043 45.033 C 281.260 44.468,283.343 44.400,300.443 44.400 L 319.600 44.400 319.600 74.600 L 319.600 104.800 293.429 104.800 C 270.170 104.800,267.187 104.870,266.629 105.429 C 265.556 106.501,265.693 132.607,266.774 133.186 C 268.202 133.950,346.601 133.741,347.371 132.971 C 348.422 131.920,348.321 17.215,347.269 16.262 C 346.143 15.243,253.195 15.243,252.349 16.261 C 251.907 16.794,251.778 20.218,251.688 33.861 L 251.575 50.800 246.830 50.800 C 242.873 50.800,242.045 50.695,241.843 50.167 C 241.709 49.819,241.600 42.182,241.600 33.196 C 241.600 18.876,241.522 16.779,240.971 16.229 C 240.124 15.381,147.818 15.255,146.678 16.100 C 146.066 16.553,145.993 18.185,145.901 33.600 L 145.800 50.600 139.900 50.711 L 134.000 50.821 134.000 34.637 C 134.000 18.727,133.854 16.664,132.675 15.914 C 131.819 15.370,41.027 15.533,40.480 16.080 M132.534 16.727 C 133.118 17.372,133.203 19.319,133.296 34.227 L 133.400 51.000 139.800 51.000 L 146.200 51.000 146.400 34.161 C 146.560 20.702,146.710 17.189,147.149 16.661 C 147.994 15.643,239.606 15.643,240.451 16.661 C 240.890 17.189,241.040 20.702,241.200 34.161 L 241.400 51.000 246.600 51.000 L 251.800 51.000 252.000 34.161 C 252.160 20.702,252.310 17.189,252.749 16.661 C 253.254 16.053,257.064 16.000,300.030 16.000 L 346.762 16.000 347.179 17.500 C 347.638 19.152,347.705 129.666,347.249 131.800 L 346.992 133.000 307.307 133.102 L 267.621 133.204 266.994 132.247 C 266.150 130.959,266.266 106.773,267.120 105.919 C 267.531 105.508,273.079 105.358,293.720 105.200 L 319.800 105.000 319.800 74.400 L 319.800 43.800 300.646 43.696 C 287.177 43.623,281.334 43.723,280.962 44.032 C 280.541 44.381,280.409 47.962,280.316 61.450 C 280.216 76.021,280.115 78.483,279.600 78.809 C 278.245 79.665,214.078 79.293,213.614 78.426 C 213.348 77.929,213.200 71.793,213.200 61.255 C 213.200 46.881,213.122 44.780,212.571 44.229 C 211.746 43.403,175.299 43.261,174.480 44.080 C 174.122 44.438,174.000 48.888,174.000 61.637 C 174.000 76.840,173.931 78.741,173.367 78.957 C 172.058 79.460,106.589 79.229,106.080 78.720 C 105.722 78.362,105.600 73.997,105.600 61.549 C 105.600 46.908,105.523 44.780,104.971 44.229 C 104.419 43.676,102.214 43.600,86.794 43.600 L 69.245 43.600 68.623 44.489 C 67.800 45.663,67.662 103.902,68.480 104.720 C 68.843 105.083,74.970 105.200,93.604 105.200 C 114.259 105.200,118.373 105.292,119.024 105.768 C 120.038 106.510,120.249 131.337,119.251 132.539 C 118.325 133.654,41.412 133.544,40.814 132.426 C 40.237 131.348,40.237 17.852,40.814 16.774 C 41.443 15.599,131.471 15.553,132.534 16.727 M41.712 155.208 C 41.224 155.405,40.723 155.978,40.600 156.483 C 40.123 158.430,40.593 338.543,41.078 340.000 C 41.539 341.385,42.146 343.897,42.769 347.000 C 43.112 348.708,43.314 349.256,44.979 353.000 C 46.653 356.766,46.881 357.202,48.950 360.599 C 51.000 363.965,51.931 365.200,52.417 365.200 C 52.578 365.200,51.674 363.625,50.409 361.700 C 45.174 353.737,42.975 347.881,41.584 338.200 C 40.525 330.824,40.371 157.990,41.423 156.489 L 42.045 155.600 193.923 155.606 C 277.455 155.609,346.004 155.744,346.254 155.906 C 346.503 156.068,346.797 156.560,346.907 157.000 C 347.062 157.620,347.118 157.556,347.154 156.714 C 347.183 156.017,346.923 155.480,346.426 155.214 C 345.441 154.687,43.023 154.681,41.712 155.208 M69.500 183.632 C 68.521 184.202,68.435 333.888,69.412 336.600 C 69.729 337.480,69.991 338.575,69.994 339.033 C 70.013 341.679,75.093 349.058,79.305 352.557 C 83.115 355.723,90.426 358.851,93.835 358.774 C 94.694 358.754,94.422 358.595,92.800 358.166 C 81.954 355.300,76.224 351.024,72.148 342.752 C 68.939 336.239,69.142 342.210,69.279 258.600 L 69.400 184.200 194.100 184.200 C 262.685 184.200,318.800 184.086,318.800 183.947 C 318.800 183.807,318.395 183.585,317.900 183.452 C 316.256 183.012,70.259 183.190,69.500 183.632 M318.996 258.400 C 318.996 298.990,319.043 315.595,319.100 295.300 C 319.157 275.005,319.157 241.795,319.100 221.500 C 319.043 201.205,318.996 217.810,318.996 258.400 M190.400 209.201 C 189.190 209.380,186.940 209.650,185.400 209.800 C 183.860 209.950,181.250 210.489,179.600 210.998 C 177.950 211.508,175.790 212.162,174.800 212.453 C 172.895 213.013,165.203 216.768,164.118 217.668 C 163.766 217.961,162.711 218.650,161.774 219.200 C 157.520 221.698,150.385 228.923,146.960 234.200 C 146.103 235.520,145.291 236.690,145.155 236.800 C 144.735 237.139,142.707 241.640,142.891 241.824 C 142.986 241.920,143.665 240.803,144.399 239.342 C 145.133 237.881,146.289 235.946,146.967 235.042 C 147.645 234.137,148.715 232.640,149.344 231.714 C 151.809 228.086,162.014 218.800,163.536 218.800 C 163.791 218.800,164.000 218.650,164.000 218.466 C 164.000 218.283,165.575 217.354,167.500 216.403 C 169.425 215.451,171.698 214.317,172.551 213.882 C 175.302 212.480,180.841 211.146,187.500 210.282 L 194.000 209.439 200.500 210.282 C 207.385 211.174,211.601 212.194,215.200 213.837 C 218.284 215.245,223.760 218.075,224.000 218.384 C 224.110 218.526,224.877 219.054,225.705 219.557 C 230.779 222.640,239.109 231.398,242.105 236.800 C 245.755 243.382,248.151 249.339,248.813 253.478 C 249.046 254.940,249.363 256.331,249.518 256.568 C 249.672 256.806,249.903 258.890,250.031 261.200 L 250.264 265.400 250.332 261.784 C 250.369 259.795,250.153 257.185,249.850 255.984 C 249.548 254.783,249.195 252.990,249.066 252.000 C 248.710 249.269,245.775 242.168,242.795 236.829 C 239.606 231.116,229.524 220.530,225.782 218.967 C 225.097 218.680,224.322 218.188,224.059 217.871 C 223.487 217.182,215.181 213.042,213.200 212.459 C 212.430 212.232,210.357 211.586,208.593 211.023 C 206.829 210.460,204.738 210.000,203.947 210.000 C 203.156 210.000,201.630 209.836,200.555 209.637 C 197.397 209.049,192.767 208.851,190.400 209.201 M185.301 239.033 C 180.628 240.608,176.480 243.196,173.344 246.493 C 171.415 248.521,167.200 255.115,167.200 256.105 C 167.200 256.802,169.137 253.844,170.087 251.696 C 170.899 249.862,177.943 242.400,178.863 242.400 C 179.106 242.400,179.957 241.995,180.753 241.500 C 187.829 237.099,200.112 237.038,207.000 241.370 C 212.886 245.072,213.620 245.723,216.827 250.082 C 217.912 251.558,218.800 252.911,218.800 253.090 C 218.800 253.269,219.376 254.762,220.079 256.408 C 220.783 258.053,221.478 260.300,221.623 261.400 L 221.887 263.400 221.944 261.534 C 221.981 260.305,221.581 258.571,220.772 256.453 C 215.192 241.839,199.638 234.200,185.301 239.033 M142.122 242.890 C 141.228 244.054,139.534 249.167,138.971 252.400 C 138.814 253.300,138.855 253.279,139.380 252.200 C 139.701 251.540,139.972 250.609,139.982 250.132 C 139.992 249.654,140.627 247.776,141.394 245.959 C 142.728 242.795,142.966 241.792,142.122 242.890 M138.093 255.294 C 137.014 259.370,136.759 267.729,136.879 295.135 L 137.000 322.871 137.944 323.635 C 139.045 324.527,247.977 324.869,249.626 323.986 C 250.164 323.698,250.386 323.180,250.353 322.286 L 250.305 321.000 250.049 322.200 L 249.792 323.400 194.472 323.501 C 155.833 323.572,138.912 323.474,138.355 323.176 C 137.363 322.645,137.355 260.081,138.347 257.079 C 138.623 256.243,138.792 255.073,138.722 254.479 C 138.615 253.571,138.515 253.701,138.093 255.294 M166.285 259.874 C 165.405 263.811,165.227 295.467,166.080 296.320 C 167.029 297.269,221.474 296.983,221.986 296.026 C 222.256 295.522,222.368 289.780,222.307 279.526 L 222.214 263.800 222.007 279.800 L 221.800 295.800 194.000 295.800 L 166.200 295.800 166.086 279.600 C 165.989 265.659,166.065 263.002,166.635 260.546 C 167.000 258.977,167.227 257.480,167.140 257.221 C 167.054 256.961,166.669 258.155,166.285 259.874 M346.876 335.360 C 346.733 339.052,344.666 347.834,343.342 350.371 C 343.047 350.937,342.804 351.648,342.802 351.950 C 342.797 353.168,338.503 360.606,335.532 364.543 C 326.700 376.249,311.862 384.920,298.800 386.009 C 293.331 386.465,94.700 386.467,89.200 386.011 C 83.866 385.569,74.704 382.665,70.731 380.157 C 69.898 379.630,69.091 379.200,68.937 379.200 C 67.620 379.200,57.616 370.992,54.502 367.355 C 53.581 366.280,52.822 365.647,52.814 365.949 C 52.757 368.198,68.193 380.360,73.276 382.071 C 74.004 382.316,74.780 382.653,75.000 382.820 C 76.363 383.856,84.497 386.063,88.531 386.492 C 94.790 387.157,293.059 387.175,299.244 386.511 C 312.917 385.042,327.217 376.604,336.123 364.749 C 339.049 360.853,343.200 353.588,343.200 352.362 C 343.200 352.120,343.450 351.354,343.754 350.660 C 345.051 347.714,345.958 344.869,346.198 343.000 C 346.339 341.900,346.635 340.370,346.855 339.600 C 347.075 338.830,347.187 337.120,347.104 335.800 C 346.957 333.490,346.948 333.474,346.876 335.360 M317.885 336.817 C 317.492 338.477,316.907 340.343,316.585 340.963 C 316.263 341.584,316.000 342.298,316.000 342.550 C 316.000 343.278,312.499 348.301,310.823 349.977 C 307.195 353.605,304.013 355.450,298.400 357.180 C 296.090 357.892,294.020 358.534,293.800 358.606 C 293.580 358.678,293.855 358.751,294.411 358.768 C 299.223 358.919,309.156 353.290,313.064 348.198 C 316.382 343.876,318.989 337.851,318.727 335.117 C 318.623 334.036,318.472 334.340,317.885 336.817 " stroke="none" fill="#d2e3ec" fill-rule="evenodd"></path></g></svg>