<svg xmlns="http://www.w3.org/2000/svg" width="65.26" height="63.622" viewBox="0 0 17.267 16.833"><path d="m8.753 24.242 1.71-7.491 6.924-3.334 6.923 3.334 1.71 7.491-4.79 6.008h-7.685Z" style="fill:#326ce5;fill-opacity:1;fill-rule:evenodd;stroke:none;stroke-width:.26458332;stroke-linecap:square;stroke-miterlimit:10" transform="translate(-8.753 -13.417)"/><text xml:space="preserve" x="17.357" y="29.096" style="font-style:normal;font-weight:400;font-size:10.58333302px;line-height:6.61458349px;font-family:Sans;letter-spacing:0;word-spacing:0;fill:#eee;fill-opacity:1;stroke:none;stroke-width:.26458332px;stroke-linecap:butt;stroke-linejoin:miter;stroke-opacity:1" transform="translate(-8.753 -13.417)"><tspan x="17.357" y="29.096" style="font-style:normal;font-variant:normal;font-weight:400;font-stretch:normal;font-size:2.82222223px;font-family:Arial;-inkscape-font-specification:&quot;Arial, Normal&quot;;font-variant-ligatures:normal;font-variant-caps:normal;font-variant-numeric:normal;font-feature-settings:normal;text-align:center;writing-mode:lr-tb;text-anchor:middle;fill:#eee;fill-opacity:1;stroke-width:.26458332px">c-m</tspan></text><path d="M17.369 16.92c-.139-.005-3.996 1.891-4.046 1.988-.121.234-.999 4.282-.947 4.37.03.05.662.851 1.404 1.78l1.35 1.688h2.222l2.221.002 1.413-1.766 1.414-1.765-.495-2.17c-.272-1.192-.515-2.187-.54-2.211-.07-.067-3.921-1.914-3.996-1.917Zm.236 1.982c.187.008.206.292.605.322.522.039.466-.447.865-.109.399.338-.09.363.035.87.124.509.569.306.37.79-.198.484-.372.027-.817.302-.445.275-.115.636-.636.597-.522-.04-.14-.346-.54-.685-.399-.338-.64.088-.764-.42s.286-.241.484-.725c.199-.484-.281-.582.164-.857a.696.696 0 0 1 .142-.07.256.256 0 0 1 .092-.015zm.521.572a.758.758 0 0 0-.73.976.757.757 0 1 0 .73-.976zm-2.992 1.302c.04 0 .088.009.148.027.48.148-.008.4.334.767.343.368.629-.1.742.388.112.49-.35.193-.498.673-.147.48.402.494.034.836-.367.342-.341-.206-.83-.093-.49.112-.227.594-.707.447-.48-.147.007-.4-.335-.767s-.628.101-.74-.388c-.113-.49.35-.193.496-.673.147-.48-.402-.494-.034-.836.367-.342.342.206.831.094.428-.099.28-.48.559-.475zm3.567.524c.046.001.1.013.17.04.553.215-.175.546.254.956.429.41.727-.333.967.21.239.543-.51.263-.497.856.013.593.75.279.534.832-.214.553-.546-.175-.956.254-.41.429.333.727-.21.966-.544.24-.262-.51-.855-.497-.594.014-.28.75-.833.535-.553-.215.176-.546-.253-.956-.43-.41-.727.332-.967-.21-.24-.544.51-.263.497-.856-.014-.593-.75-.28-.535-.832.215-.554.546.175.956-.254.41-.429-.332-.727.21-.967.544-.239.263.51.856.497.52-.012.343-.576.662-.574zm-3.881.256a.757.757 0 1 0-.001 1.513.757.757 0 0 0 0-1.513zm3.253.725a1.115 1.115 0 1 0 0 2.23 1.115 1.115 0 0 0 0-2.23z" style="opacity:1;fill:#eee;fill-opacity:1;stroke:#eee;stroke-width:0;stroke-miterlimit:10;stroke-dasharray:none;stroke-dashoffset:11.23642349;stroke-opacity:1" transform="translate(-8.753 -13.417)"/></svg>