<svg xmlns="http://www.w3.org/2000/svg" width="65.26" height="63.622" viewBox="0 0 17.267 16.833"><path d="m.414 11.178 1.71-7.491L9.048.353l6.923 3.334 1.71 7.491-4.791 6.008H5.206Z" style="fill:#326ce5;fill-opacity:1;fill-rule:evenodd;stroke:none;stroke-width:.26458332;stroke-linecap:square;stroke-miterlimit:10" transform="translate(-.414 -.353)"/><text xml:space="preserve" x="9.017" y="16.032" style="font-style:normal;font-weight:400;font-size:10.58333302px;line-height:6.61458349px;font-family:Sans;letter-spacing:0;word-spacing:0;fill:#eee;fill-opacity:1;stroke:none;stroke-width:.26458332px;stroke-linecap:butt;stroke-linejoin:miter;stroke-opacity:1" transform="translate(-.414 -.353)"><tspan x="9.017" y="16.032" style="font-style:normal;font-variant:normal;font-weight:400;font-stretch:normal;font-size:2.82222223px;font-family:Arial;-inkscape-font-specification:&quot;Arial, Normal&quot;;font-variant-ligatures:normal;font-variant-caps:normal;font-variant-numeric:normal;font-feature-settings:normal;text-align:center;writing-mode:lr-tb;text-anchor:middle;fill:#eee;fill-opacity:1;stroke-width:.26458332px">k-proxy</tspan></text><path d="M9.03 3.855c-.139-.004-3.995 1.892-4.046 1.99-.121.233-.999 4.281-.947 4.369.03.05.662.851 1.404 1.78l1.35 1.688h2.221l2.222.002 1.413-1.766 1.414-1.765-.495-2.169c-.272-1.193-.516-2.188-.54-2.212-.07-.067-3.921-1.914-3.996-1.917Zm.196.948.909.264-.91.263-.908-.263Zm-.91.365.852.253-.004 1.183-.847-.47Zm1.819 0v.967l-.847.47-.004-1.184ZM7.937 6.782l.91.264-.91.263-.909-.263Zm2.209 0 .909.264-.909.263-.909-.263zm-3.118.365.851.253-.004 1.183-.846-.469zm1.818 0v.967L8 8.583 7.995 7.4zm.391 0 .851.253-.004 1.183-.847-.469zm1.818 0v.967l-.847.469-.004-1.183Zm-3.45 1.515c.27.01.061.282.369.428.327.156.395-.236.601.063.206.299-.183.223-.154.585.029.362.401.225.245.553-.155.328-.285-.048-.584.158-.298.206.006.46-.355.49-.362.028-.102-.271-.43-.427-.327-.156-.395.235-.6-.064-.207-.299.183-.223.154-.584-.029-.362-.401-.225-.246-.553.156-.328.285.048.584-.158.299-.206-.006-.46.356-.49a.56.56 0 0 1 .06-.001zm2.336.363c.484.013.015.467.456.664.442.198.467-.454.8-.102.332.351-.32.34-.148.792.172.452.652.01.638.493-.014.483-.467.014-.665.456-.197.441.454.467.103.8-.351.331-.34-.32-.792-.148-.452.172-.01.651-.493.638-.483-.014-.014-.468-.456-.665-.441-.198-.467.454-.8.103-.332-.352.32-.34.148-.792-.172-.452-.652-.01-.638-.493.014-.484.467-.015.665-.457.197-.44-.454-.467-.103-.799.352-.332.34.32.793.148.451-.173.009-.652.492-.638Zm-2.315.253a.532.532 0 1 0 0 1.064.532.532 0 0 0 0-1.064Zm2.265.48a1.062 1.062 0 1 0-.001 2.125 1.062 1.062 0 0 0 0-2.124z" style="opacity:1;fill:#eee;fill-opacity:1;stroke:#eee;stroke-width:0;stroke-miterlimit:10;stroke-dasharray:none;stroke-dashoffset:11.23642349;stroke-opacity:1" transform="translate(-.414 -.353)"/></svg>