<svg xmlns="http://www.w3.org/2000/svg" width="65.26" height="63.622" viewBox="0 0 17.267 16.833"><path d="m3.462 14.415 1.71-7.492 6.923-3.334 6.924 3.334 1.71 7.492-4.792 6.008H8.253Z" style="fill:#326ce5;fill-opacity:1;fill-rule:evenodd;stroke:none;stroke-width:.26458332;stroke-linecap:square;stroke-miterlimit:10" transform="translate(-3.462 -3.59)"/><text xml:space="preserve" x="12.065" y="19.269" style="font-style:normal;font-weight:400;font-size:10.58333302px;line-height:6.61458349px;font-family:Sans;letter-spacing:0;word-spacing:0;fill:#eee;fill-opacity:1;stroke:none;stroke-width:.26458332px;stroke-linecap:butt;stroke-linejoin:miter;stroke-opacity:1" transform="translate(-3.462 -3.59)"><tspan x="12.065" y="19.269" style="font-style:normal;font-variant:normal;font-weight:400;font-stretch:normal;font-size:2.82222223px;font-family:Arial;-inkscape-font-specification:&quot;Arial, Normal&quot;;font-variant-ligatures:normal;font-variant-caps:normal;font-variant-numeric:normal;font-feature-settings:normal;text-align:center;writing-mode:lr-tb;text-anchor:middle;fill:#eee;fill-opacity:1;stroke-width:.26458332px">master</tspan></text><path d="M12.077 7.092c-.138-.004-3.995 1.892-4.046 1.989-.12.234-.998 4.281-.947 4.369.03.05.662.852 1.405 1.78l1.35 1.688 2.221.001 2.222.001 1.412-1.765 1.414-1.766-.494-2.168c-.272-1.193-.516-2.189-.54-2.213-.07-.067-3.922-1.914-3.997-1.916Zm.236 1.983c.187.008.206.291.605.321.522.04.466-.446.865-.108.399.338-.089.362.035.87.124.509.569.306.37.79-.198.484-.372.027-.817.302-.445.275-.114.635-.636.596-.522-.039-.14-.346-.54-.684-.399-.338-.64.087-.764-.42-.124-.509.286-.242.484-.726.2-.484-.28-.58.164-.856a.696.696 0 0 1 .142-.07.256.256 0 0 1 .092-.015zm.522.572a.758.758 0 0 0-.73.976.757.757 0 1 0 .73-.976Zm-2.993 1.302c.04 0 .088.009.148.027.48.147-.007.4.335.767s.628-.101.74.388c.113.49-.35.193-.496.673-.147.48.401.494.034.836-.368.342-.342-.206-.831-.094-.49.113-.227.595-.707.448-.48-.147.008-.4-.334-.767s-.629.1-.741-.389c-.113-.489.35-.193.497-.672.147-.48-.402-.494-.035-.836.367-.342.342.206.832.094.428-.099.28-.48.558-.475zm3.567.524c.046 0 .101.013.17.04.554.214-.175.545.254.955.43.41.728-.332.967.21.24.544-.51.263-.497.856.013.594.75.28.535.832-.215.554-.546-.175-.956.254-.41.43.332.727-.211.967-.543.239-.262-.51-.855-.497-.593.013-.28.749-.832.534-.554-.214.175-.546-.254-.956-.43-.41-.727.333-.966-.21-.24-.543.51-.262.496-.855-.013-.594-.75-.28-.535-.833.215-.553.547.176.957-.253.41-.429-.333-.728.21-.967.543-.24.262.51.855.497.52-.012.344-.577.662-.574zm-3.881.255a.757.757 0 1 0 0 1.514.757.757 0 0 0 0-1.514zm3.254.725a1.115 1.115 0 1 0 0 2.231 1.115 1.115 0 0 0 0-2.23z" style="opacity:1;fill:#eee;fill-opacity:1;stroke:#eee;stroke-width:0;stroke-miterlimit:10;stroke-dasharray:none;stroke-dashoffset:11.23642349;stroke-opacity:1" transform="translate(-3.462 -3.59)"/></svg>