<svg xmlns="http://www.w3.org/2000/svg" width="65.26" height="63.622" viewBox="0 0 17.267 16.833"><path d="m14.045 34.826 1.71-7.492L22.68 24l6.923 3.334 1.71 7.492-4.791 6.007h-7.685z" style="fill:#326ce5;fill-opacity:1;fill-rule:evenodd;stroke:none;stroke-width:.26458332;stroke-linecap:square;stroke-miterlimit:10" transform="translate(-14.045 -24)"/><text xml:space="preserve" x="22.648" y="39.679" style="font-style:normal;font-weight:400;font-size:10.58333302px;line-height:6.61458349px;font-family:Sans;letter-spacing:0;word-spacing:0;fill:#eee;fill-opacity:1;stroke:none;stroke-width:.26458332px;stroke-linecap:butt;stroke-linejoin:miter;stroke-opacity:1" transform="translate(-14.045 -24)"><tspan x="22.648" y="39.679" style="font-style:normal;font-variant:normal;font-weight:400;font-stretch:normal;font-size:2.82222223px;font-family:Arial;-inkscape-font-specification:&quot;Arial, Normal&quot;;font-variant-ligatures:normal;font-variant-caps:normal;font-variant-numeric:normal;font-feature-settings:normal;text-align:center;writing-mode:lr-tb;text-anchor:middle;fill:#eee;fill-opacity:1;stroke-width:.26458332px">etcd</tspan></text><path d="M22.712 27.503c-.138-.005-3.995 1.891-4.045 1.989-.122.233-1 4.281-.948 4.368.03.051.663.853 1.405 1.781l1.35 1.688 2.221.001 2.222.001 1.413-1.766 1.414-1.765-.495-2.169c-.272-1.192-.516-2.188-.54-2.212-.07-.067-3.922-1.914-3.997-1.916z" style="opacity:1;fill:#eee;fill-opacity:1;stroke:#eee;stroke-width:0;stroke-miterlimit:10;stroke-dasharray:none;stroke-dashoffset:11.23642349;stroke-opacity:1" transform="translate(-14.045 -24)"/><path d="M25.125 31.625c0 .523-1.072.948-2.395.948-1.322 0-2.394-.425-2.394-.948 0-.524 1.072-.948 2.394-.948 1.323 0 2.395.424 2.395.948v2.564c0 .523-1.072.948-2.395.948-1.322 0-2.394-.425-2.394-.948v-2.564" style="fill:none;fill-rule:evenodd;stroke:#326ce5;stroke-width:.57499999;stroke-linecap:butt;stroke-linejoin:round;stroke-miterlimit:10;stroke-dasharray:none;stroke-opacity:1" transform="translate(-14.045 -24)"/></svg>