<svg xmlns="http://www.w3.org/2000/svg" width="65.26" height="63.622" viewBox="0 0 17.267 16.833"><path d="M1.09 11.755 2.8 4.263 9.723.93l6.924 3.334 1.71 7.492-4.792 6.007H5.881Z" style="fill:#326ce5;fill-opacity:1;fill-rule:evenodd;stroke:none;stroke-width:.26458332;stroke-linecap:square;stroke-miterlimit:10" transform="translate(-1.09 -.929)"/><text xml:space="preserve" x="9.693" y="16.608" style="font-style:normal;font-weight:400;font-size:10.58333302px;line-height:6.61458349px;font-family:Sans;letter-spacing:0;word-spacing:0;fill:#eee;fill-opacity:1;stroke:none;stroke-width:.26458332px;stroke-linecap:butt;stroke-linejoin:miter;stroke-opacity:1" transform="translate(-1.09 -.929)"><tspan x="9.693" y="16.608" style="font-style:normal;font-variant:normal;font-weight:400;font-stretch:normal;font-size:2.82222223px;font-family:Arial;-inkscape-font-specification:&quot;Arial, Normal&quot;;font-variant-ligatures:normal;font-variant-caps:normal;font-variant-numeric:normal;font-feature-settings:normal;text-align:center;writing-mode:lr-tb;text-anchor:middle;fill:#eee;fill-opacity:1;stroke-width:.26458332px">node</tspan></text><path d="M9.705 4.432C9.567 4.427 5.71 6.323 5.66 6.42c-.122.233-1 4.281-.948 4.369.03.05.662.852 1.405 1.78l1.35 1.688 2.22.001h2.222l1.414-1.765 1.413-1.765-.494-2.169c-.273-1.192-.516-2.188-.541-2.212-.07-.067-3.92-1.914-3.996-1.916Zm.196.947.91.264-.91.263-.909-.263Zm-.909.365.851.253L9.84 7.18l-.846-.469Zm1.818 0v.967l-.847.47-.004-1.184ZM8.613 7.358l.909.264-.91.264-.908-.264Zm2.208 0 .91.264-.91.264-.909-.264zm-3.117.365.85.253-.003 1.183-.847-.469zm1.818 0v.967l-.847.47-.004-1.184zm.39 0 .852.253-.004 1.183-.847-.469zm1.818 0v.967l-.846.47-.004-1.184zM8.28 9.238c.271.01.062.282.37.428.327.156.394-.235.6.063.206.3-.183.224-.154.585.029.362.402.225.246.553-.156.328-.285-.048-.584.158-.299.206.006.46-.356.49-.361.028-.101-.271-.429-.427-.328-.156-.395.235-.601-.064-.206-.298.184-.222.155-.584-.03-.362-.402-.225-.246-.553.155-.327.285.048.583-.158.3-.206-.006-.46.356-.49a.56.56 0 0 1 .06-.001zm2.337.363c.483.013.014.467.456.665.441.197.467-.455.799-.103.332.351-.32.34-.148.792.173.452.652.01.638.493-.013.483-.467.015-.664.456-.198.441.454.467.102.8-.351.332-.34-.32-.792-.148-.452.172-.009.651-.492.638-.484-.014-.015-.467-.456-.665-.442-.197-.468.454-.8.103-.332-.352.32-.34.147-.792-.172-.452-.651-.01-.638-.493.014-.483.468-.015.665-.456.198-.442-.454-.467-.102-.8.351-.332.34.32.792.148.452-.173.009-.652.493-.638zm-2.315.253a.532.532 0 1 0 0 1.064.532.532 0 0 0 0-1.064zm2.264.481a1.062 1.062 0 1 0 0 2.124 1.062 1.062 0 0 0 0-2.124z" style="opacity:1;fill:#eee;fill-opacity:1;stroke:#eee;stroke-width:0;stroke-miterlimit:10;stroke-dasharray:none;stroke-dashoffset:11.23642349;stroke-opacity:1" transform="translate(-1.09 -.929)"/></svg>