<svg xmlns="http://www.w3.org/2000/svg" width="65.26" height="63.622" viewBox="0 0 17.267 16.833"><path d="m62.426 51.457 1.71-7.492 6.924-3.334 6.923 3.334 1.71 7.492-4.791 6.007h-7.685z" style="fill:#326ce5;fill-opacity:1;fill-rule:evenodd;stroke:none;stroke-width:.26458332;stroke-linecap:square;stroke-miterlimit:10" transform="translate(-62.426 -40.63)"/><text xml:space="preserve" x="71.029" y="56.31" style="font-style:normal;font-weight:400;font-size:10.58333302px;line-height:6.61458349px;font-family:Sans;letter-spacing:0;word-spacing:0;fill:#eee;fill-opacity:1;stroke:none;stroke-width:.26458332px;stroke-linecap:butt;stroke-linejoin:miter;stroke-opacity:1" transform="translate(-62.426 -40.63)"><tspan x="71.029" y="56.31" style="font-style:normal;font-variant:normal;font-weight:400;font-stretch:normal;font-size:2.82222223px;font-family:Arial;-inkscape-font-specification:&quot;Arial, Normal&quot;;font-variant-ligatures:normal;font-variant-caps:normal;font-variant-numeric:normal;font-feature-settings:normal;text-align:center;writing-mode:lr-tb;text-anchor:middle;fill:#eee;fill-opacity:1;stroke-width:.26458332px">sched.</tspan></text><path d="M71.041 44.134c-.138-.005-3.995 1.891-4.045 1.989-.121.233-1 4.281-.948 4.368.03.051.663.853 1.405 1.781l1.35 1.688 2.221.001 2.222.001 1.413-1.766 1.414-1.765-.495-2.169c-.272-1.193-.516-2.188-.54-2.212-.07-.067-3.922-1.914-3.997-1.916zm.237 1.982c.186.008.205.292.605.322.521.039.465-.447.864-.109.4.339-.089.363.035.871.125.508.57.305.37.79-.197.483-.372.027-.817.302-.444.275-.114.635-.636.596-.521-.04-.14-.346-.54-.684-.398-.338-.64.087-.764-.421s.286-.241.485-.725c.198-.484-.281-.581.164-.856a.696.696 0 0 1 .142-.07.256.256 0 0 1 .092-.016zm.521.573a.758.758 0 0 0-.73.975.757.757 0 1 0 .73-.975zm-2.993 1.301c.04.001.089.01.149.028.48.147-.008.4.334.767s.629-.102.741.388c.113.489-.35.193-.497.672-.147.48.401.495.034.837-.367.342-.342-.206-.83-.094-.49.113-.228.595-.708.448-.48-.148.008-.4-.334-.767-.342-.368-.629.1-.741-.389-.113-.49.35-.193.497-.673.147-.48-.402-.493-.035-.835.368-.342.343.206.832.093.428-.098.28-.48.558-.475zm3.568.525c.045 0 .1.012.17.04.553.214-.176.545.253.955.43.41.728-.333.967.21.24.543-.51.263-.497.856.013.593.75.279.535.832-.215.553-.546-.175-.956.254-.41.429.332.727-.21.966-.544.24-.262-.51-.856-.496-.593.013-.279.749-.832.534-.553-.215.175-.546-.254-.956-.429-.41-.727.333-.966-.21-.24-.543.51-.262.496-.856-.013-.593-.75-.279-.534-.832.214-.553.546.176.956-.253.41-.43-.333-.728.21-.967.543-.24.262.51.856.496.519-.011.343-.576.662-.573zm-3.882.255a.757.757 0 1 0 0 1.514.757.757 0 0 0 0-1.514zm3.254.725a1.115 1.115 0 1 0 0 2.23 1.115 1.115 0 0 0 0-2.23z" style="opacity:1;fill:#eee;fill-opacity:1;stroke:#eee;stroke-width:0;stroke-miterlimit:10;stroke-dasharray:none;stroke-dashoffset:11.23642349;stroke-opacity:1" transform="translate(-62.426 -40.63)"/></svg>