<?xml version="1.0" standalone="no"?>
<!DOCTYPE svg PUBLIC "-//W3C//DTD SVG 20010904//EN"
 "http://www.w3.org/TR/2001/REC-SVG-20010904/DTD/svg10.dtd">
<svg version="1.0" xmlns="http://www.w3.org/2000/svg"
 width="398.000000pt" height="354.000000pt" viewBox="0 0 398.000000 354.000000"
 preserveAspectRatio="xMidYMid meet">
<g transform="translate(0.000000,354.000000) scale(0.100000,-0.100000)"
fill="#0075a8" stroke="none">
<path d="M396 3419 c-76 -66 -115 -191 -211 -679 -84 -420 -84 -432 -39 -527
32 -67 97 -124 182 -159 67 -28 67 -28 339 -32 l273 -4 2 -876 3 -877 25 -45
c17 -29 41 -53 70 -70 l45 -25 930 0 c923 0 930 0 970 21 45 23 80 69 95 123
6 23 10 350 10 894 l0 857 240 0 c140 0 261 5 292 11 162 35 265 129 289 266
10 54 6 82 -66 443 -85 426 -116 537 -174 628 -58 90 -100 105 -144 52 -59
-69 -87 -207 -87 -424 0 -192 -29 -282 -117 -368 -43 -41 -152 -103 -200 -113
l-32 -6 -3 218 c-3 211 -4 219 -28 263 -17 29 -41 53 -70 70 l-45 25 -900 3
c-653 2 -915 0 -953 -8 -69 -15 -124 -67 -140 -133 -7 -27 -12 -126 -12 -242
l0 -196 -37 7 c-54 9 -153 66 -206 119 -25 25 -60 75 -78 112 -32 66 -32 68
-40 277 -8 217 -19 288 -59 366 -34 67 -71 76 -124 29z"/>
</g>
</svg>
